<?xml version="1.0" encoding="UTF-8"?>
<svg id="Ebene_1" xmlns="http://www.w3.org/2000/svg" viewBox="0 0 800 800">
  <defs>
    <style>
      .cls-1 {
        fill: #3d4f69;
      }

      .cls-2 {
        fill: #f90;
      }
    </style>
  </defs>
  <g>
    <path class="cls-1" d="M356.5,195.09c-119.75,0-217.16,97.41-217.16,217.16,0,66.83,30.35,126.69,77.98,166.56v-62.51c0-25.15,20.39-45.54,45.54-45.54h302.82c5.27-18.9,7.98-38.55,7.98-58.5,0-119.77-97.41-217.18-217.16-217.18ZM466.38,337.59l-103.41,82.73c-1.88,1.51-4.18,2.28-6.47,2.28-1.51,0-3.04-.33-4.49-1.01-3.58-1.74-5.85-5.36-5.85-9.33v-186.14c0-5.71,4.63-10.34,10.34-10.34s10.34,4.63,10.34,10.34v164.61l86.62-69.28c4.49-3.56,10.96-2.81,14.54,1.61,3.56,4.47,2.85,10.96-1.61,14.54Z"/>
    <path class="cls-1" d="M217.32,604.99c-59.73-43.25-98.66-113.53-98.66-192.74,0-131.14,106.7-237.84,237.84-237.84s237.84,106.7,237.84,237.84c0,19.9-2.46,39.53-7.27,58.52h38.57c4.08-18.86,6.23-38.44,6.23-58.52,0-152.08-123.29-275.37-275.37-275.37S81.13,260.17,81.13,412.25c0,101.62,55.04,190.37,136.94,238.09-.48-2.65-.75-5.38-.75-8.17v-37.18Z"/>
  </g>
  <path class="cls-2" d="M612.67,488.26h-334.07c-22.92,0-41.51,18.58-41.51,41.51v114.72c0,22.92,18.58,41.51,41.51,41.51h334.07c22.92,0,41.51-18.58,41.51-41.51v-114.72c0-22.92-18.58-41.51-41.51-41.51ZM333.93,624.23c6.8,0,12.32,5.52,12.32,12.32s-5.52,12.32-12.32,12.32h-49.3c-4.98,0-9.49-3.01-11.39-7.62s-.84-9.91,2.66-13.43l31.9-31.89c8.87-8.9,13.8-20.7,13.8-33.3,0-6.8-5.55-12.35-12.32-12.35s-12.32,5.52-12.32,12.32-5.52,12.32-12.32,12.32-12.32-5.52-12.32-12.32c0-20.38,16.59-36.97,36.97-36.97s36.97,16.59,36.97,36.97c0,19.18-7.47,37.22-21.03,50.78l-10.85,10.84h19.55ZM420.2,636.55c0,6.8-5.52,12.32-12.32,12.32s-12.32-5.52-12.32-12.32v-12.32h-36.97c-4.56,0-8.73-2.51-10.85-6.51-2.17-4.02-1.92-8.87.59-12.64l49.3-73.95c3.8-5.67,11.46-7.17,17.08-3.43,5.64,3.77,7.2,11.41,3.43,17.08l-36.5,54.79h26.25c6.8,0,12.32,5.52,12.32,12.32v24.65ZM513.6,525.69l-57.05,128.37c-1.18,2.67-3.79,4.24-6.52,4.24-.97,0-1.95-.2-2.9-.61-3.59-1.6-5.22-5.82-3.62-9.41l57.05-128.37c1.6-3.61,5.81-5.21,9.41-3.62,3.59,1.6,5.22,5.82,3.62,9.41ZM609.47,543.46l-49.3,98.59c-2.17,4.34-6.51,6.83-11.02,6.83-1.85,0-3.72-.42-5.52-1.31-6.09-3.06-8.55-10.45-5.52-16.54l40.4-80.75h-29.36c-6.8,0-12.32-5.52-12.32-12.32s5.52-12.32,12.32-12.32h49.3c4.26,0,8.23,2.22,10.5,5.84,2.24,3.62,2.44,8.18.52,11.98Z"/>
</svg>