<?xml version="1.0" encoding="UTF-8"?>
<svg id="Ebene_1" xmlns="http://www.w3.org/2000/svg" viewBox="0 0 800 800">
  <defs>
    <style>
      .cls-1 {
        fill: #324d67;
      }

      .cls-2 {
        fill: #f9a728;
      }
    </style>
  </defs>
  <path class="cls-1" d="M613.87,453.98c-4.78-1.61-6.61.96-7.53,3.93-4.84,15.59-11.07,30.58-19,44.84-1.41,2.52.1,3.73,1.14,5.28,6.98,10.35,13.99,20.69,21.02,31.01,5.41,7.94,5.12,11.75-1.62,18.5-16.85,16.86-33.71,33.7-50.58,50.53-5.19,5.18-9.33,5.63-15.56,1.39-10.5-7.14-20.96-14.32-31.31-21.68-2.55-1.82-4.5-2.48-7.53-.82-12.72,6.94-26.24,12.01-40.18,15.83-4.52,1.24-6.42,3.7-7.27,8.08-2.21,11.27-4.67,22.5-7.23,33.69-2.08,9.08-6.51,12.47-15.74,12.47-22.42.01-44.84,0-67.26,0-8.55,0-11.11-2.03-12.85-10.29-2.47-11.74-4.19-23.62-7.19-35.27-1.09-4.23-2.59-6.91-7.18-8.28-13.86-4.13-27.36-9.34-39.98-16.52-2.8-1.59-4.8-.92-7.1.65-10.31,7.04-20.65,14.05-31.01,21.03-8.54,5.76-12.2,5.19-19.39-2.1-15.88-16.1-31.93-32.04-47.88-48.08-7.33-7.37-7.57-11.48-1.72-20.04,6.82-9.98,13.4-20.12,20.29-30.04,1.89-2.72,1.82-4.72.26-7.6-6.7-12.37-12.25-25.26-15.92-38.89-1.17-4.34-3.2-6.47-8.1-7.24-11.5-1.8-22.88-4.44-34.24-7.04-8.13-1.86-10.6-5.23-10.62-13.68-.05-23.03-.05-46.05,0-69.08.02-9.34,2.83-12.3,11.98-14.34,10.07-2.25,20.18-4.02,30.49-4.72,5.09-.35,8.44-2.33,9.96-8.05,3.68-13.83,9.25-27,16.81-39.2,1.88-3.04,1.8-5.02-.16-7.82-7.82-11.18-16.04-22.1-23.02-33.87-2.75-4.63-2.15-8.83,1.58-12.58,17.66-17.75,35.3-35.54,53.06-53.18,4.48-4.45,9.23-4.66,14.78-.9,10.84,7.35,21.6,14.81,32.28,22.4,2.99,2.13,5.36,2.24,8.66.43,13.05-7.14,26.52-13.46,40.89-17.45,3.63-1.01,4.23-3.46,4.79-6.06,2.65-12.15,5.18-24.33,7.58-36.54,1.59-8.09,3.36-9.71,11.62-9.72,23.03,0,46.05,0,69.08,0,12.67,0,13.91,1.03,15.29,13.49,1.34,12.09,5.02,23.68,7.48,35.53.49,2.36,1.96,3.64,4.36,4.4,14.7,4.71,29.14,10.15,42.91,17.17,3.12,1.59,4.95.17,7.05-1.32,9.53-6.77,18.98-13.65,28.56-20.35,7.1-4.96,15.54-3.92,21.52,2.17,15.14,15.42,30.26,30.85,45.62,46.06,2.46,2.43,4.48,5.21,6.19,7.94,3.04,4.86-.79,9.14-3.24,12.96-6.54,10.16-13.52,20.04-20.35,30.01-1.5,2.19-2.76,3.91-.8,6.93,7.61,11.68,12.88,24.47,17.07,37.75,2.55,8.09,4.81,9.2,13.12,9.84,10.56.83,20.97,2.96,31.14,5.99,5.27,1.57,7.73,5.76,7.75,10.98.13,23.83.21,47.67-.05,71.5-.09,8.24-2.76,11.23-10.62,13.18-10.86,2.7-21.66,5.82-32.09,6.77ZM562.17,400.25c1.27-87.86-73.13-163.62-167.8-160.07-81.91,3.07-155.63,66.55-156.64,158.44-.5,45.16,15.22,84.48,47.42,116.42,40.98,40.65,91.06,54.52,146.92,44.44,31.85-5.75,59.99-21.17,83.08-44.86,31.09-31.9,46.52-70.03,47.03-114.38Z"/>
  <path class="cls-1" d="M689.09,488.72c-.51-4.07,1.51-7.71,4.38-10.98,20.41-23.18,40.84-46.34,61.26-69.51.27-.3.53-.61.83-.89,7.65-7,7.48-11.95-.68-18.72-6.82-5.66-11.79-13-17.75-19.35-5.38-5.73-10.25-11.97-15.93-17.5-9.81-9.56-18.45-20.31-27.69-30.46-4.18-4.6-5.16-10.01-4.11-15.75,2.05-11.31,17.25-14.59,24.01-7.89,6.74,6.66,13.75,13.32,19.06,21.06,3.75,5.47,8.87,9.15,13.05,13.94,15.08,17.22,30.49,34.14,45.84,51.13,11.12,12.31,11.11,17.76.17,29.95-18.07,20.13-35.6,40.76-54.21,60.38-7.85,8.28-14.52,17.54-22.7,25.48-4.66,4.52-9.81,6.08-15.96,3.62-5.81-2.32-9.5-7.74-9.56-14.51Z"/>
  <path class="cls-1" d="M110.35,487.99c-.06,8.18-3.94,13.52-10.55,15.68-6.59,2.15-10.61-.53-16.34-6.49-8.9-9.27-17.84-18.5-26.37-28.12-17-19.17-34.12-38.24-51.08-57.45-7.83-8.86-7.54-16.15.46-25.05,8.77-9.75,17.44-19.59,26.19-29.36,16.87-18.82,33.76-37.63,50.66-56.43,5.61-6.25,16.62-7.78,22.01-3.11,6.66,5.76,7.2,16.02.8,23.3-21.73,24.69-43.53,49.31-65.49,73.78-3.01,3.36-3.2,5.39-.08,8.74,7.84,8.41,15.27,17.2,22.9,25.8,13.44,15.15,26.94,30.24,40.33,45.42,3.62,4.11,7,8.44,6.56,13.28Z"/>
  <path class="cls-2" d="M328.11,341.94c2.22,0,4.44-.02,6.66.01,4.26.06,7.23,1.85,8.77,6.03,12.66,34.3,25.41,68.57,38.03,102.89,2,5.45.2,7.88-5.53,8.4-.2.02-.4,0-.61.02-18.78,1.16-19.86.72-25.21-17.58-1.56-5.35-3.72-6.83-9-6.58-9.67.45-19.39.42-29.07,0-4.32-.19-6.06,1.3-6.96,5.23-.8,3.5-2.57,6.79-3.31,10.31-1.44,6.87-5.65,9.22-12.25,8.7-3.41-.27-6.88.07-10.29-.19-6.46-.49-7.74-2.47-5.57-8.53,8.89-24.77,17.87-49.51,26.78-74.27,2.86-7.94,5.54-15.95,8.37-23.9,3.36-9.46,4.54-10.26,14.94-10.55,1.41-.04,2.83,0,4.24,0ZM339.81,411.98c-4.07-14.79-8.07-29.33-12.32-44.8-4.3,15.54-8.31,30.06-12.39,44.8h24.71Z"/>
  <path class="cls-2" d="M395.14,401.29c0-16.15-.04-32.3.03-48.45.04-8.88,2.19-11.11,11.22-10.89,13.9.34,27.84-1.14,41.7,1.02,19.01,2.96,30.84,17.5,30.79,37.97-.05,20.09-12.92,35.82-31.23,38.69-6.43,1.01-12.88,1.61-19.27,1.03-6.15-.56-7.42,1.76-7.09,7.39.49,8.25-.03,16.55.19,24.82.12,4.55-1.34,6.46-6.19,6.59-20.16.53-20.16.66-20.16-19.41,0-6.46,0-12.92,0-19.38,0-6.46,0-12.92,0-19.38ZM421.42,381.5q.02,17.3,16.22,16.03c.2-.02.4,0,.6-.02,8.21-.92,12.53-5.21,14.12-14.02,1.19-6.63-1.83-14.54-6.97-16.75-7.31-3.14-15.64-3.06-22.52-.94-3.91,1.21-.78,9.46-1.45,14.49-.05.4,0,.81,0,1.21Z"/>
  <path class="cls-2" d="M492.75,400.05c0-17.54.1-35.09-.06-52.63-.04-4.04.91-5.95,5.39-5.56,4.4.38,8.87.06,13.3.09,5.1.03,7.88,2.48,7.88,7.72,0,34.28-.02,68.56-.04,102.85,0,4.4-2.08,6.79-6.62,6.75-.2,0-.4.01-.6.01-22.66.1-19.28,1.42-19.26-18.08.02-13.71,0-27.43,0-41.14Z"/>
</svg>