<?xml version="1.0" encoding="UTF-8"?>
<svg id="Ebene_1" xmlns="http://www.w3.org/2000/svg" viewBox="0 0 800 800">
  <defs>
    <style>
      .cls-1 {
        fill: #2c4b66;
      }

      .cls-2 {
        fill: #fd9e12;
      }
    </style>
  </defs>
  <path class="cls-1" d="M621.84,424.23c-13.1-20.92-30.27-37.62-51.72-49.89-18.28-10.46-37.93-16.09-58.91-17.93-40.87-3.58-75.9,9.8-107.03,35.54-1.13-.6-.89-1.95-1.28-3.03-2.08-5.8-6.94-9.43-11.9-8.92-4.91.5-9.91,5.61-10.23,11.4-.58,10.46-1,20.94-.84,31.41.09,5.98,4.11,12.3,12.35,11.76,10.3-.68,20.64-.62,30.96-1.09,10.4-.47,14.61-7.84,10.4-17.32-2.09-4.71-6.42-3.87-10.04-4.82-1.33-.35-2.84-.06-5.25-.06,14.71-13.51,30.63-22.81,48.94-28.01,4.23-1.2,8.68-.82,12.81-1.89,7.19-1.86,14.41-2.83,21.79-2.52,16.15.68,31.89,3.45,46.55,10.58,33.21,16.15,56.66,40.89,66.98,76.99,2.67,9.33,3.31,18.97,4.16,28.57.16,1.76-.36,3.81,1.14,5.06,3.21,2.69,2.92,6.23,2.91,9.81-.02,13.17-.1,26.35.12,39.52.05,3.23-.92,3.89-3.97,3.91-12.12.09-24.24.48-36.36.78-5.71.14-10.35,4.49-10.4,9.66-.05,5.25,5.42,11.53,10.36,11.76,2.64.12,5.29.02,8.57.02-14.73,16.39-31.67,28.27-52.04,35.11-15.94,5.35-32.36,6.92-48.99,5.38-32.13-2.97-58.97-16.75-80.4-40.85-15.86-17.84-25.11-38.88-28.98-62.3-.82-4.99-.66-10.15-.88-15.23-.37-8.44-6.68-10.99-13.56-10.87-3.71.06-7.77,6.75-7.98,12.13-.78,20.02,4.08,38.84,12.32,56.87,12.89,28.19,33.03,49.74,59.71,65.48,13.18,7.77,27.34,12.55,42.17,15.42,49.46,9.56,92.46-3.38,129.15-37.73.87-.82,1.61-1.83,2.6-2.46,1.64-1.05,3.07-1.51,3.83,1.24,1.71,6.17,5.38,10.31,12.31,10.29,2.1,0,2,1.23,1.99,2.63-.02,18.11.28,36.23-.14,54.34-.29,12.13-10.57,20.84-24.11,20.94-22.3.17-44.61.05-66.91.05-108.23,0-216.46-.02-324.69.02-10.04,0-18.62-2.54-23.98-11.81-2.05-3.54-3.04-7.43-3.04-11.5-.04-66.91-.04-133.83-.02-200.74,0-1.45-1.1-3.79,2.53-2.62,12.32,3.98,25.04,5.66,37.97,4.85,5.86-.37,11.66.43,17.61-.9,15.09-3.38,29.68-7.9,43.16-15.55,19.94-11.31,35.55-27.04,47.44-46.61,9.56-15.72,14.94-32.85,17.39-50.93,9.68-71.35-39.39-130.13-102.51-142.06-20.78-3.93-41.27-3.02-61.65,2.34-.55.14-1.11.23-1.91.39,0-20.11-.29-40.01.12-59.9.21-9.98,8.16-16.47,18.73-16.47,69.61-.01,139.22,0,208.83,0,42.21,0,84.43.1,126.64-.08,8.82-.04,15.81,2.77,21.88,9.18,19.35,20.43,38.88,40.69,58.45,60.91,5.17,5.34,7.56,11.32,7.54,18.89-.19,66.76-.13,133.52-.15,200.28-.19.18-.37.37-.54.57ZM435.29,536.9c2.62-.67,4.33.51,5.76,2.53,1.38,1.95,2.64,4.09,4.39,5.65,6.81,6.01,6.85,12.49,2.79,20.21-2.99,5.69-1.26,9.21,4.57,12.43,4.83,2.66,9.97,4.84,14.48,7.95,6.15,4.25,12.67,4.1,15.24-2.6,4.34-11.31,12.19-13.76,22.81-12.05.29.05.6.02.9,0,3.03-.17,5.02,1.21,6.44,3.89,1.67,3.16,3.32,6.4,5.51,9.19,2.21,2.82,5,6.57,9.03,4.66,7.66-3.62,14.99-7.96,22.26-12.31,3.04-1.82,4.65-5.06,2.81-8.49-5.65-10.54-2.91-18.87,5.46-26.73,2.45-2.3,4.98-4.13,7.69-3.94,2.85.19,5.83.21,8.73.88,6.16,1.43,10.49-1.35,12.07-7.47,1.55-6.01,3.09-12.03,4.5-18.08,1.63-7.01-.87-11.08-7.85-13.24-2.8-.87-5.57-1.84-8.37-2.74-1.67-.54-2.95-1.51-3.39-3.25-1.25-4.9-2.4-9.82-3.66-14.72-.91-3.55-.03-6.33,2.83-8.74,2.74-2.31,5.29-4.86,7.74-7.48,2.82-3.02,3.06-6.69.62-9.82-4.69-6-9.6-11.86-14.81-17.41-4.02-4.29-8.32-4.1-12.91-.45-2.45,1.95-5.12,3.63-7.6,5.54-2,1.53-3.91,1.72-6.19.53-4.36-2.27-8.78-4.43-13.26-6.46-2.8-1.26-4.05-3.23-4.1-6.26-.07-3.88.13-7.76-.71-11.62-.81-3.69-2.96-6.02-6.64-6.16-8.06-.32-16.15-.55-24.21-.33-5.01.14-7.39,3.02-7.78,8.11-.17,2.24-.21,4.48-.23,6.73-.05,5.4-2.64,8.37-7.4,11.39-8.54,5.42-15.43,6.08-23.25-1.15-4.7-4.35-8.29-3.53-12.9,1.18-4.91,5.02-9.6,10.27-14.27,15.52-3.26,3.66-3.09,7.88.34,11.61,1.21,1.31,2.64,2.43,3.99,3.61,4.99,4.36,8.11,9.23,4.93,16.16-.85,1.86-1.12,4-1.58,6.03-1.49,6.61-2.16,7.08-9.02,8.29-5.7,1.01-12.8,5.99-12.07,11.54,1.11,8.42,3.15,16.71,6.4,24.57,1.43,3.48,4.95,5.74,8.58,5.07,3.79-.7,7.61-1.06,11.33-1.76ZM461,242.23h0c-12.27.01-24.53,0-36.8.02-19.89.03-39.79.11-59.68.08-3.02,0-5.2,1.01-6.4,3.78-3.19,7.38,1.22,14.57,9.15,14.99,1.04.05,2.09.02,3.14.02,61.33,0,122.66.01,183.99,0,1.77,0,3.58-.14,5.32-.51,4-.85,7.21-4.91,7.47-9.2.21-3.54-2.59-7.4-6.65-8.57-1.96-.56-4.13-.58-6.2-.58-31.11-.03-62.23-.02-93.34-.02ZM445.13,311.65c20.04,0,40.08,0,60.12,0,6.43,0,12.86.09,19.29-.1,3.8-.11,7.33-1.5,8.62-5.41,2.59-7.82-1.77-13.36-10.28-13.36-45.16-.02-90.33,0-135.49,0-6.88,0-13.76-.11-20.64.03-6.51.14-10.73,4.47-10.37,10.31.33,5.33,4.52,8.5,11.58,8.51,25.72.04,51.45.01,77.17.02Z"/>
  <path class="cls-2" d="M327.17,333.77c-.72,59.05-45.61,109.52-108.77,110.51-60.23.94-108.51-46.2-109.72-107.85-1.23-63.09,49.29-110.3,108.63-110.44,61.2-.14,109.32,46.74,109.86,107.79ZM216.6,314.19c-5.24,0-10.48.03-15.71-.02-1.17-.01-3,.59-2.31-1.9,2.63-9.52,7.29-17.26,17.32-20.59,8.44-2.8,16.47-1.67,24.25,2.21,6.25,3.13,7.62,2.62,9.63-3.85.62-1.99,1.27-3.97,1.81-5.97,1.46-5.33.53-7.27-4.66-9.37-5.86-2.38-12-3.51-18.29-3.89-24.85-1.48-43.75,8.5-51.92,33.81-2.96,9.16-2.86,9.19-12.41,9.59-5.37.22-7.79,3.51-7.62,10.41.13,5.14,3.88,4.83,7.37,4.84,7.45.03,7.22.03,7.42,7.44.1,3.62-1.07,4.48-4.5,4.38-5.71-.18-9.39,3.54-9.91,9.34-.37,4.14,1.69,6.51,5.89,6.65,2.24.07,4.5.18,6.73-.03,2.73-.25,3.87.69,4.54,3.48,2.45,10.18,6.65,19.64,14.74,26.58,13.71,11.76,29.73,15.19,47.3,11.7,4.69-.93,9.33-2.27,13.17-5.26,4.86-3.79,4.91-8.6.5-15.48-2.87-4.46-3.83-4.39-10.34-1.44-15.86,7.16-35.45,2.6-40.65-16.81-.62-2.33-.34-2.85,1.98-2.78,4.49.12,8.98.04,13.47.04,2.39,0,4.81.15,7.18-.08,4.6-.45,8.24-5.28,8.02-10.37-.18-4.32-2.13-5.64-8.29-5.63-5.84,0-11.67,0-17.51,0-7.4,0-7.21,0-7.42-7.62-.09-3.39.86-4.28,4.22-4.2,9.57.24,19.16.17,28.73.05,4.76-.06,7.71-4.04,7.56-9.72-.12-4.28-1.65-5.47-7.27-5.51-4.34-.04-8.68,0-13.02,0Z"/>
  <path class="cls-1" d="M622.39,423.66l.4.57c-.31,0-.63,0-.94,0,.17-.2.35-.38.54-.57Z"/>
  <path class="cls-1" d="M500.04,537.97c-20.79-.08-37.52-16.48-37.24-37.25.29-21.58,16.89-37.7,37.68-37.4,20.64.3,36.33,15.44,36.49,38.16.14,20.68-16.15,36.57-36.93,36.49Z"/>
</svg>