<?xml version="1.0" encoding="UTF-8"?>
<svg id="Ebene_1" xmlns="http://www.w3.org/2000/svg" viewBox="0 0 800 800">
  <defs>
    <style>
      .cls-1 {
        fill: #fdab11;
      }

      .cls-2 {
        fill: #3b556e;
      }
    </style>
  </defs>
  <path class="cls-2" d="M446.54,407.34c0-2.1,0-3.65,0-5.2,0-18.04.06-36.07-.05-54.11-.09-14.12-6.59-21.34-20.55-22.55-2.88-.25-2.53-1.59-2.52-3.38.02-8.29.5-16.61-.09-24.85-1.96-27.38-12.72-50.03-36.93-64.69-10.91-6.61-22.81-9.58-35.8-10.04-19.21-.67-36.45,3.53-51.53,15.71-19.65,15.86-27.01,37.33-28.04,61.61-.31,7.3-.11,14.62,0,21.93.04,2.38-.07,3.61-3.19,3.81-13.19.85-19.77,8.19-19.78,21.47,0,39.81.07,79.62-.09,119.43-.02,5.32,1.38,10.28,4.36,14.09,3.79,4.85,9.85,6.28,16.03,6.27,35.58-.04,71.17.01,106.75-.25,4.52-.03,5.02,1.09,3.57,4.86-4.56,11.81-6.97,24.26-8.43,36.66-1.14,9.71-.74,19.75.06,29.65,1.44,17.71,6.01,34.58,13.07,50.82.77,1.76,1.14,2.95-1.1,4.26-9.22,5.41-18.54,10.54-28.4,14.73-6.6,2.81-12.95,2.27-19.07-.61-39.29-18.46-72.91-44.59-102.26-76.36-23.07-24.96-42.4-52.64-57.63-82.98-11.99-23.88-21.09-48.95-27.45-74.95-4.72-19.28-8.4-38.75-10.88-58.47-4.91-39-4.86-78.08-2.73-117.22.53-9.68,8.27-16.21,19.65-16.79,6.01-.3,12.38-.25,17.94-1.41,30.04-6.3,60.12-12.68,88.78-24.21,10.93-4.4,21.79-8.93,32.58-13.68,12.88-5.67,25.25-12.27,37.15-19.76,11.27-7.1,22.58-7.09,34.04-.32,30.77,18.2,63.39,32.19,97.49,42.85,26.19,8.19,52.87,13.92,80.21,16.45,9.85.91,16.56,7.83,17.4,17.59,2.08,24.17,1.8,48.38.75,72.55-.6,13.83-2.22,27.63-4.23,41.42-2.29,15.74-5.47,31.18-9.1,46.61-.86,3.65-2.05,5.17-6.33,5.03-26.41-.89-51.66,4.17-76.06,14.54-6.03,2.56-11.21,6.36-17.58,9.46Z"/>
  <path class="cls-1" d="M672.31,474.54c0,11.7.16,23.4-.06,35.1-.15,8.09-3.83,11.42-11.82,11.43-21.94.01-43.87-.02-65.81.02-5.12,0-9.56-1.59-13.22-5.14-4.04-3.93-4.28-8.31-.47-12.47,6.79-7.43,13.66-14.81,20.7-22,2.09-2.13,2.18-3.2-.09-5.26-27.59-25.18-59.6-34.11-95.36-23-36.06,11.2-59.16,36.11-67.08,73.35-11.15,52.45,23.38,103.18,76.24,113.24,46.86,8.92,95.18-23.1,106.06-70.27.33-1.42.68-2.83.96-4.26,1.58-8.02,4.07-10.11,12.1-10.11,7.47,0,14.95,0,22.42,0,9.26,0,12.75,4.04,11.19,13.11-2.71,15.75-7.49,30.83-15.39,44.77-22.65,39.98-56.28,64.95-102.01,71.47-40.65,5.79-77.18-5.39-108.77-31.54-27.76-22.98-44.58-52.71-49.25-88.35-5.91-45.09,7.01-84.65,38.76-117.59,22.75-23.6,50.6-37.73,83.01-41.81,46.07-5.79,86.16,7.64,119.64,39.98,2.9,2.8,4.47,3.07,7.23.02,4.35-4.81,9.14-9.24,13.8-13.76,2.9-2.81,6.07-5,10.42-3.24,4.6,1.87,6.72,5.43,6.74,10.26.04,12.02.01,24.05.01,36.07.01,0,.03,0,.04,0Z"/>
  <path class="cls-2" d="M346.63,325.1c-14.44,0-28.89-.11-43.33.09-3.25.04-4.09-.86-3.91-4,.62-10.82-1.2-21.77,1.17-32.5,4.84-21.96,23.19-37.44,44.9-38.14,21.64-.7,41.6,14.17,47.5,35.82,3.23,11.84,1.43,24.06,1.8,36.12.1,3.25-2.4,2.03-3.83,2.04-14.77.09-29.53.06-44.3.06,0,.18,0,.35,0,.53Z"/>
  <path class="cls-2" d="M346.32,450.92c-2.27,0-4.55-.07-6.82.01-5.91.22-8.38-1.05-7.97-8.92.38-7.4,1.25-14.77,2.05-22.14.32-2.91-.21-4.83-2.83-6.86-10.5-8.13-13.01-21.96-6.45-33.01,5.17-8.7,15.7-14.16,24.96-12.8,11.1,1.62,18.79,7.71,22.36,18.33,3.29,9.79-.25,20.6-8.77,27.36-2.41,1.91-2.89,3.73-2.49,6.58,1.08,7.8,1.96,15.63,2.67,23.46.5,5.58-1.32,7.5-6.99,7.96-1.61.13-3.24.03-4.87.03-1.62,0-3.25,0-4.87,0Z"/>
</svg>