<?xml version="1.0" encoding="UTF-8"?>
<svg id="Ebene_1" xmlns="http://www.w3.org/2000/svg" viewBox="0 0 800 800">
  <defs>
    <style>
      .cls-1 {
        fill: #fea219;
      }

      .cls-2 {
        fill: #354e64;
      }
    </style>
  </defs>
  <path class="cls-2" d="M370.59,606.41c-64.04,0-128.08-.26-192.12.15-19.71.13-33.2-15.44-32.52-33.37.38-10,5.46-18.71,12.89-24.99,20.6-17.41,37.3-37.52,45.61-63.48,3.95-12.36,6.4-25.03,7.03-38.3,1.3-27.4.02-54.78.81-82.15.22-7.46,1.74-14.95,3.31-22.29,3.4-15.86,8.83-31.14,18.16-44.43,5.58-7.95,10.3-16.46,17.16-23.8,5.8-6.21,12.13-11.92,18.02-18.02,5.66-5.86,12.85-10.22,19.9-14.5,7.76-4.71,15.79-8.85,24.19-12.26,4.22-1.71,8.79-2.34,13.11-3.9,2.06-.74,3.39-1.81,3.14-3.45-.58-3.8.86-7.34.84-11-.14-17.27,6.7-29.83,23.89-35.17,14.94-4.65,29.75-4.92,42.83,4.95,7.85,5.92,12.27,14.35,12.54,24.5.12,4.71-.89,9.67.25,14.09,2.67,10.41-2.43,19.68-3.08,29.5-.55,8.39-1.64,16.8-1.08,25.26.99,14.81,3.66,29.37,8.16,43.44,4.31,13.48,11.3,25.79,19.54,37.35,16.01,22.47,36.8,39.04,61.71,50.76,10.23,4.81,21.17,6.85,31.95,9.57,2.12.54,2.55,1.12,2.52,3.03-.09,5.85.15,11.71-.05,17.55-.74,21.23,3.64,41.65,12.11,60.81,7.46,16.85,17.98,32.05,32.3,44.23,4.32,3.68,8.43,7.67,12.25,11.86,16.69,18.33,8.07,47.48-15.03,53.45-2.59.67-5.15.58-7.73.59-64.2.02-128.41.02-192.61.02Z"/>
  <path class="cls-1" d="M423.45,268.24c-.95-69.76,56.69-128.11,127.54-129.11,72.57-1.02,130.58,55.6,131.01,128.68.41,70.28-55.44,127.37-126.81,130.12-73.84,2.84-132.31-59.72-131.74-129.69ZM571.42,218.62c.46-6.5.71-12.99-1.42-19.28-2.54-7.52-8.84-11.85-16.28-11.28-8.42.64-15.03,5.88-16.64,13.24-.66,3.01-.99,6.05-1.01,9.15-.12,16.08,2.27,32.06,2.11,48.13-.09,9.66.59,19.19,2.99,28.52,1.32,5.14,3.58,10.06,9.86,10.65,5.84.55,10.94-1.2,14.37-6.3,1.84-2.74,2.65-5.91,2.81-9.17,1.1-21.22,2.13-42.44,3.19-63.66ZM553.04,348.92c11.96.18,19.93-7.36,19.97-18.9.03-9.14-8.17-18.11-16.72-18.29-10.68-.22-19.24,8.04-19.38,18.71-.16,12.1,5.26,18.31,16.14,18.48Z"/>
  <path class="cls-2" d="M371.46,629.74c17.38,0,34.76.13,52.14-.09,4.3-.05,5.58,1.32,5.54,5.57-.29,25.62-20.53,49.08-46.85,54.07-28.85,5.47-62.03-13-68.63-49.04-1.75-9.54-.64-10.52,9.07-10.52,16.24,0,32.49,0,48.73,0Z"/>
  <path class="cls-2" d="M154.43,238.15c5.31-.03,9.4,1.13,13.05,4.89,11.09,11.41,22.43,22.58,33.83,33.68,5.87,5.72,6.01,11.77.67,17.85-4.34,4.93-11.96,4.23-17.3-1.08-11.97-11.91-24.07-23.7-35.82-35.83-7-7.22-4.83-13.4,2.04-19.11,1.21-1.01,2.6-.95,3.52-.39Z"/>
  <path class="cls-2" d="M159.15,378.09c-9.58-1.52-20.47-2.88-31.18-5.09-5.66-1.17-11.41-1.21-17.04-2.54-7.79-1.85-11.84-6.4-10.97-13.41.77-6.15,6.83-10.3,14.17-9.37,7.49.94,14.94,2.18,22.4,3.32,7.75,1.18,15.51,2.29,23.23,3.65,5.39.95,10.91,1.7,12.56,8.57,2.2,9.18-2.29,14.99-13.18,14.88Z"/>
  <path class="cls-2" d="M110.62,475.96c0-5.09,2.48-8.9,6.97-10.77,15.61-6.51,31.3-12.82,47.06-18.96,4.87-1.9,9.94.28,12.52,4.57,2.9,4.81,1.96,9.16-1.77,13.62-3.34,3.99-7.9,5.25-12.28,7.07-11.91,4.93-23.79,9.94-35.81,14.62-8.61,3.36-16.66-1.72-16.69-10.15Z"/>
</svg>