<?xml version="1.0" encoding="UTF-8"?>
<svg id="Ebene_1" xmlns="http://www.w3.org/2000/svg" viewBox="0 0 800 800">
  <defs>
    <style>
      .cls-1 {
        fill: #3d4f69;
      }

      .cls-2 {
        fill: #f90;
      }
    </style>
  </defs>
  <path class="cls-1" d="M399.38,582.35c-.56-1.05-1.11-2.11-1.65-3.17h-203.95c-5.66,0-10.62-4.26-10.97-9.91-.37-6.14,4.5-11.24,10.55-11.24h194.99c-4.78-12.54-8.44-25.49-11.17-38.74-.24-1.18-.48-2.37-.7-3.55h-182.7c-5.66,0-10.62-4.26-10.97-9.91-.37-6.14,4.5-11.24,10.55-11.24h179.91c-1.45-12.66-2.14-25.4-2.34-38.19,0-1.37,0-2.74,0-4.11h-177.15c-5.66,0-10.62-4.26-10.97-9.91-.37-6.14,4.5-11.24,10.55-11.24h177.68c.68-7.67,5.04-12.96,12.87-14.85,24.37-5.86,48.04-13.76,71.15-23.48,15.65-6.58,30.55-14.53,44.94-23.42v-167.86c0-36.71-29.76-66.46-66.46-66.46h-176.73c-.49,0-.89.21-1.35.27-.47.06-.89.15-1.33.27-1.82.49-3.51,1.27-4.8,2.56l-126.86,126.86c-1.29,1.29-2.07,2.96-2.56,4.78-.13.47-.21.89-.27,1.35-.06.46-.27.87-.27,1.35v330.76c0,21.72,17.61,39.32,39.32,39.32h286.64c-18.09-17.22-33.59-37.11-45.93-60.27ZM425.98,388.85h-232.21c-5.66,0-10.62-4.26-10.97-9.91-.37-6.14,4.5-11.24,10.55-11.24h232.21c5.66,0,10.62,4.26,10.97,9.91.37,6.14-4.5,11.24-10.55,11.24ZM320.25,240.82h105.74c5.84,0,10.57,4.72,10.57,10.57s-4.74,10.57-10.57,10.57h-105.32c-5.66,0-10.62-4.26-10.97-9.91-.37-6.14,4.5-11.24,10.55-11.24ZM425.98,304.27c5.84,0,10.57,4.72,10.57,10.57s-4.74,10.57-10.57,10.57h-232.21c-5.66,0-10.62-4.26-10.97-9.91-.37-6.14,4.5-11.24,10.55-11.24h232.62ZM155.58,261.97s-.07-.06-.04-.09l90.6-90.6s.09,0,.09.04v80.03c0,5.87-4.76,10.63-10.63,10.63h-80.03Z"/>
  <path class="cls-2" d="M399.93,467.28c0-7.37-.03-14.74,0-22.11.04-8.35,4.26-14.11,12.35-16.06,23.2-5.58,45.73-13.1,67.73-22.35,15.74-6.61,30.67-14.68,45.09-23.72,9.1-5.71,17.99-5.7,26.91-.13,34.5,21.54,71.74,36.46,111.22,45.78,8.11,1.91,13.89,9.26,13.77,17.62-.19,12.79.15,25.58-.6,38.37-2.14,36.29-9.18,71.34-26.49,103.73-20.85,39.02-51.21,68.81-89.15,91.13-5.3,3.12-10.29,6.79-16.47,8.41-5.09,1.34-9.57,1.62-14.46-1.04-43.55-23.72-79.24-55.47-102.83-99.73-10.09-18.94-16.82-39.07-21.13-60.03-4.06-19.74-5.64-39.74-5.95-59.86ZM518.03,589.56c6.34,0,10.33-2.26,13.77-5.74,11.43-11.58,22.86-23.17,34.32-34.72,19.78-19.95,39.62-39.85,59.37-59.83,7.91-8,7.77-16.8-.19-24.81-2.74-2.76-5.48-5.53-8.22-8.3-1.79-1.81-3.85-3.11-6.36-3.78-6.51-1.74-10.88,1.79-15,5.96-24.44,24.73-48.9,49.45-73.28,74.25-2.02,2.06-3.07,2.54-5.4.12-10.22-10.63-20.72-20.98-31.1-31.44-6.27-6.32-14.34-6.44-20.64-.25-3.08,3.02-6.18,6.02-9.15,9.14-6.66,6.99-6.79,15.33-.01,22.24,17.24,17.57,34.62,35,51.98,52.47,3.07,3.08,6.78,4.78,9.92,4.7Z"/>
</svg>