<?xml version="1.0" encoding="UTF-8"?>
<svg id="Ebene_1" xmlns="http://www.w3.org/2000/svg" viewBox="0 0 800 800">
  <defs>
    <style>
      .cls-1 {
        fill: #f29f1e;
      }

      .cls-2 {
        fill: #3d4f69;
      }

      .cls-3 {
        fill: #f7f6f2;
      }

      .cls-4 {
        fill: #f90;
      }

      .cls-5 {
        fill: #345066;
      }
    </style>
  </defs>
  <path class="cls-4" d="M224.36,220.69c-.33-.16-.69-.2-1.06-.22-.41-.02-.83-.01-1.24-.01-5.99-.01-11.98,0-17.97-.02-.35-.01-.7-.04-1.02-.13-.94-.23-.73-1.17-.53-2.02,1.21-4.3,1.32-5.42,2.57-10.66.68-2.76,1.55-6.26,2.23-8.97.56-1.96,1.09-3.94,1.67-5.9.12-.44.26-.9.13-1.35-.13-.47-.58-.8-1.01-.72-.34.05-.64.34-.9.61-.55.6-1.03,1.29-1.53,1.97-5.95,8.21-18.17,22.66-18.17,22.66l-3.79,4.69s-8.27,9.56-13.47,16.44c-.28.38-.53.76-.78,1.14-.37.55-.58,1.21-.34,1.9h0c.37,1.2,1.48,1.57,2.48,1.64.51.04,1.01.02,1.52.02,5.99,0,11.99-.01,17.99,0,.23,0,.48.02.7.05.8.1.99.44.84,1.33-.1.57-.26,1.13-.41,1.69-2.93,10.71-6.09,21.9-8.99,32.5-.14.53-.31,1.03-.45,1.56-.09.37-.14.8.03,1.13.18.37.56.61.93.57.28-.03.53-.22.75-.46.29-.33.54-.71.79-1.07,8.43-11.54,16.9-23.69,25.42-35.38,4.87-6.43,9.67-12.94,14.07-19.8.34-.6.57-1.26.43-1.94-.11-.55-.45-1.04-.9-1.25Z"/>
  <path class="cls-2" d="M286.23,400.56c0-.31.01-.63.02-.94-.05,0-.11,0-.16,0v-231.52c0-17.73-14.37-32.09-32.09-32.09h-113.66c-17.73,0-32.09,14.37-32.09,32.09v272.81c0,17.73,14.37,32.09,32.09,32.09h113.66c17.73,0,32.09-14.37,32.09-32.09v-19.7s.09,0,.14,0v-20.65ZM250.73,278.85c0,9.45-7.66,17.11-17.11,17.11h-72.9c-9.45,0-17.11-7.66-17.11-17.11v-93.11c0-9.45,7.66-17.11,17.11-17.11h72.9c9.45,0,17.11,7.66,17.11,17.11v93.11Z"/>
  <g>
    <path class="cls-1" d="M688.52,550.69c1.41,46.82-37.77,94.15-97.27,93.15-51.48-.87-94.24-43.12-94.25-93.79,0-50.84,43.86-97.1,98.31-95.19,50.82,1.78,94.03,43.19,93.21,95.83ZM608.32,537.3c.14,0-.73-.03-1.59,0-7.5.3-10.03-2.15-9.17-9.67,1.1-9.52,2.62-19,3.91-28.5.75-5.56,1.44-11.12,2.08-16.69.23-1.97-.81-3.41-2.64-3.97-1.76-.53-3.4-.23-4.42,1.63-.55,1.01-1.32,1.89-1.92,2.87-14.52,23.69-29.07,47.37-43.51,71.11-1.48,2.43-4.39,4.88-2.11,8.15,2.16,3.09,5.56,1.36,8.45,1.49.57.02,1.14-.17,1.72-.2,6.9-.43,13.8-1.02,20.71-1.22,4.63-.14,6.49,2.2,6.55,6.9.06,4.3-1.27,8.4-1.63,12.57-.96,11.15-2.56,22.21-3.84,33.31-.28,2.38-.93,4.86,1.86,5.91,2.99,1.12,4.81-.83,6.26-3.24,4.03-6.65,8.13-13.25,12.2-19.88,10.92-17.79,21.86-35.56,32.74-53.38,1.29-2.11,3.48-4.23,1.49-7.02-1.78-2.49-4.31-1.51-6.73-1.34-6.46.46-12.92.76-20.39,1.17Z"/>
    <path class="cls-5" d="M390.46,563.1c0-37.65-.04-75.3.07-112.95,0-3.27-.31-5.02-4.23-4.75-3.97.28-6.32-2.47-7.72-5.83-1.37-3.3-.96-6.31,1.75-9.08,10.09-10.31,20.02-20.77,30.05-31.13,2.41-2.49,8.12-2.45,10.72.23,9.83,10.16,19.55,20.42,29.32,30.63,2.67,2.79,2.56,6.04,1.25,9.25-1.45,3.56-4.2,6.45-8.15,5.97-5.62-.68-5.67,2.15-5.63,6.34.13,13.41-.08,26.83-.15,40.24-.02,3.21-.83,6.16-2.25,9.08-4.97,10.26-7.25,21.29-7.47,32.54-.25,12.66-1.19,25.41.7,38.01,1.18,7.9,2.12,16.06,8.21,22.22,1.26,1.28,1.04,2.93,1.04,4.5.02,25.82.04,51.64.01,77.47,0,6.63-2.16,8.73-8.77,8.74-10.24.02-20.48.03-30.73,0-5.87-.02-8.03-2.17-8.03-8.08-.02-37.8,0-75.59,0-113.39h.01Z"/>
    <path class="cls-5" d="M359.48,580.86c0,31.02,0,62.04,0,93.06,0,7.27-1.66,8.93-8.81,8.93-13.85,0-27.7.02-41.55,0-6.34,0-8.67-2.25-8.67-8.45-.02-62.47-.02-124.94-.01-187.42,0-6.22,2.07-8.18,8.35-8.18,13.99,0,27.99,0,41.98,0,7.08,0,8.7,1.55,8.7,8.56.01,31.16,0,62.33,0,93.49Z"/>
    <path class="cls-5" d="M490.26,660.24c0,3.75.01,7.04,0,10.33-.03,5.89-3.66,9.71-9.88,10.4-4.98.56-8.98-2.29-10.18-7.87-1.04-4.87-1.62-9.86-2.17-14.82-1.11-10-1.89-20.04-3.15-30.02-.75-5.93,5.02-11.56,10.8-10.48,13.07,2.44,26.35,2.35,39.48,3.88,6,.7,9.16,4.32,8.79,9.6-.49,6.99-3.98,10.65-10.22,10.67-3.03.01-6.06,0-9.31,0,.19,1.81,1.72,2.28,2.7,3.1,19.53,16.31,41.52,26.94,67.05,30.24,9.47,1.23,18.85,1.6,28.24.81,4.97-.42,10.02.28,14.94-1.12,10.82-3.09,22.15-5.65,31.72-11.23,31.13-18.16,56.85-41.59,68.27-77.4,7.56-23.7,7.41-47.46,1-71.34-1.19-4.44-1.47-8.96,2.57-12.28,3.32-2.72,7.05-4.45,11.56-2.92,4.2,1.43,5.87,5.02,6.97,8.7,11.87,39.73,7.73,77.77-13.45,113.43-18.78,31.61-46.61,53-79.98,67.55-11.68,5.09-24.15,7.16-36.69,8.64-13.18,1.55-26.34,1.33-39.55-.52-26.53-3.72-50.31-13.71-71.38-30.19-2.7-2.11-5.17-4.53-8.13-7.15Z"/>
    <path class="cls-5" d="M697.21,434.72c-.51-4.82-1.08-9.21-1.06-13.69.03-7.05,2.75-10.4,9.81-11.17,6.14-.67,8.39.73,10.14,6.66,2.03,6.85,2.66,13.96,3.52,21,.91,7.43,1.8,14.88,2.21,22.35.53,9.64-3.1,12.65-10.58,12.51-11.68-.23-23.36.08-35.01-1.01-2.26-.21-4.53-.62-6.73-1.2-5.06-1.35-7.94-6.13-7.01-11.34.91-5.07,5.65-9.18,10.42-9.06,1.54.04,3.09,0,5.7,0-7.86-6.37-15.3-11.66-23.61-15.47-19.45-8.93-39.85-14.33-61.35-13.85-35.3.79-66.52,11.85-91.76,37.62-18.42,18.82-30.47,40.89-36.16,66.6-2.48,11.21-2.25,22.49-2.35,33.82-.05,5.48,1.45,10.71,1.73,16.1.39,7.42-3.35,11.37-11.75,12.47-4.85.64-8.91-3.31-10.03-9.71-5.47-31.33-2.91-61.87,11.41-90.46,21.82-43.6,54.94-74.1,103.69-85.17,5.55-1.26,11.5-.87,16.98-1.82,8.46-1.47,16.82-1.53,25.21-1.27,35.72,1.09,67.9,11.95,95.32,35.47.2.17.48.24,1.26.61Z"/>
    <path class="cls-5" d="M210.25,613.34c0-19.76,0-39.52,0-59.28,0-8.43,1.46-9.89,9.7-9.88,13.85,0,27.69-.02,41.54,0,5.65,0,7.91,2.16,7.92,7.75.03,41.11.03,82.21,0,123.32,0,5.4-2.19,7.6-7.6,7.61-14.71.04-29.42.02-44.13-.01-5.03-.01-7.43-2.44-7.44-7.63-.03-20.62-.01-41.25-.01-61.87h.02Z"/>
    <path class="cls-3" d="M608.32,537.3c7.47-.42,13.94-.71,20.39-1.17,2.42-.17,4.96-1.15,6.73,1.34,1.99,2.8-.2,4.91-1.49,7.02-10.88,17.81-21.82,35.59-32.74,53.38-4.07,6.62-8.16,13.23-12.2,19.88-1.46,2.41-3.28,4.36-6.26,3.24-2.79-1.05-2.13-3.52-1.86-5.91,1.28-11.1,2.88-22.16,3.84-33.31.36-4.16,1.69-8.27,1.63-12.57-.06-4.69-1.92-7.04-6.55-6.9-6.91.21-13.8.79-20.71,1.22-.57.04-1.15.23-1.72.2-2.89-.13-6.29,1.6-8.45-1.49-2.28-3.27.63-5.72,2.11-8.15,14.45-23.74,28.99-47.42,43.51-71.11.6-.98,1.37-1.87,1.92-2.87,1.02-1.86,2.67-2.16,4.42-1.63,1.84.56,2.87,2,2.64,3.97-.64,5.57-1.33,11.14-2.08,16.69-1.29,9.5-2.81,18.98-3.91,28.5-.86,7.51,1.67,9.96,9.17,9.67.86-.03,1.73,0,1.59,0Z"/>
  </g>
  <path class="cls-5" d="M586,421.5c-6.9,0-12.5-5.6-12.5-12.5v-154.5h-297.5c-6.9,0-12.5-5.6-12.5-12.5s5.6-12.5,12.5-12.5h310c6.9,0,12.5,5.6,12.5,12.5v167c0,6.9-5.6,12.5-12.5,12.5Z"/>
</svg>