<?xml version="1.0" encoding="UTF-8"?>
<svg id="Ebene_1" xmlns="http://www.w3.org/2000/svg" viewBox="0 0 800 800">
  <defs>
    <style>
      .cls-1 {
        fill: #3d4f69;
      }

      .cls-2 {
        fill: #f90;
      }
    </style>
  </defs>
  <path class="cls-1" d="M317.97,492.23c23.45-6.52,43.26-18.94,59.23-37.31,17.12-19.69,26.85-42.62,29.3-68.58.91-9.64.55-19.27-.93-28.86-3.03-19.74-10.5-37.63-22.39-53.65-7.85-10.57-18.84-15.49-31.64-15.7-21.66-.37-43.33-.1-64.99-.1-21.09,0-42.19.03-63.28-.02-4.55,0-8.99.58-13.34,1.87-5.22,1.54-10.11,3.67-14.26,6.92-11.71,21.92-18.36,46.96-18.36,73.54,0,40.32,15.28,77.08,40.35,104.79,16.63,11.61,35.34,18.49,56,20.7,14.99,1.6,29.79.43,44.3-3.61ZM321.45,478.21c-15.67-.02-28.17-12.54-28.15-28.22.01-15.53,12.57-28.07,28.13-28.09,15.57-.01,28.22,12.66,28.19,28.24-.03,15.5-12.66,28.08-28.17,28.06ZM357.14,357.11c15.82.06,28.65,13.15,28.59,29.18-.06,15.74-13.04,28.56-28.85,28.52-15.99-.05-28.87-12.99-28.78-28.94.08-15.95,13.08-28.81,29.04-28.76ZM321.24,312.91c11.4-.08,20.75,9.06,20.84,20.35.09,11.6-9,20.87-20.56,20.96-11.37.09-20.71-9.17-20.77-20.58-.05-11.33,9.16-20.65,20.48-20.73ZM314.99,384.68c.07,15.92-12.88,28.92-28.81,28.93-15.97,0-28.87-12.9-28.88-28.88,0-15.85,13.07-28.84,29-28.82,15.67.02,28.63,13.01,28.69,28.78ZM230.26,331.53c.18-10.97,9.69-19.96,20.98-19.82,11.36.14,20.43,9.56,20.26,21.07-.16,11.25-9.53,20.39-20.73,20.23-11.83-.17-20.71-9.47-20.51-21.48ZM186.54,385.87c.05-15.83,13.03-28.75,28.89-28.76,15.89,0,28.73,12.96,28.72,29.01-.02,15.9-12.87,28.7-28.8,28.69-15.97-.01-28.86-12.96-28.81-28.93ZM251.01,478.21c-15.77,0-28.29-12.51-28.27-28.27.02-15.5,12.61-28.03,28.17-28.04,15.58,0,28.11,12.61,28.11,28.29,0,15.41-12.6,28.01-28.02,28.02Z"/>
  <path class="cls-1" d="M508.46,508.35c.8-4.79-.22-6.61-4.51-7.17-1.2-.17-2.53-.24-3.77-.26-32.33-.1-64.67,0-97-.03-2.75,0-5.43.1-8.17-.1-5.44-.33-11.39-2.37-13.4-8.78v-.05c-.42-1.21-.58-2.4-.54-3.56-19.64,11.94-42.71,18.82-67.37,18.82-71.74,0-129.89-58.16-129.89-129.89s58.16-129.89,129.89-129.89,129.89,58.16,129.89,129.89c0,12.02-1.64,23.66-4.7,34.71,12.42-14.77,21.38-25.14,21.38-25.14l20.43-25.28s34.46-40.74,65.67-80.06l-39.64-66.06c-6.94-9.25-16.18-13.87-27.74-9.25l-53.17,20.81c-9.25-6.94-20.81-13.87-32.37-18.5l-6.94-55.49c-2.31-9.25-13.87-18.5-23.12-18.5h-97.1c-9.25,0-20.81,9.25-23.12,20.81l-6.94,55.49c-11.56,4.62-20.81,11.56-32.37,18.5l-53.17-20.81c-11.56-4.62-23.12,0-27.74,9.25l-48.55,78.61c-6.94,9.25-4.62,23.12,4.62,30.05l43.93,34.68v34.68l-46.24,34.68c-9.25,6.94-11.56,20.81-4.62,30.05l48.55,80.92c6.94,9.25,16.18,13.87,27.74,9.25l55.49-23.12c9.25,6.94,20.81,13.87,32.37,18.5l6.94,55.49c2.31,9.25,13.87,18.5,23.12,18.5h94.79c11.56,0,20.81-9.25,23.12-20.81l6.94-55.49c11.56-4.62,20.81-11.56,32.37-18.5l53.17,20.81c2.31,0,4.62,2.31,9.25,2.31,4.92,0,9.18-1.32,12.79-3.59,2.53-9.17,5.04-18.3,7.52-27.37.8-3,1.71-6.02,2.22-9.1Z"/>
  <path class="cls-2" d="M439.24,466.3c2.01,6.41,7.96,8.45,13.4,8.78,2.74.2,5.42.1,8.17.1,32.33.02,64.67-.07,97,.03,1.24.03,2.56.1,3.77.27,4.3.55,5.32,2.38,4.51,7.17-.52,3.08-1.42,6.1-2.22,9.1-15.79,57.77-32.85,118.11-48.48,175.28-.74,2.83-1.69,5.57-2.43,8.44-.5,1.98-.77,4.3.13,6.11.96,2.01,3.01,3.29,5.01,3.09,1.53-.14,2.85-1.17,4.04-2.51,1.56-1.77,2.9-3.84,4.29-5.77,45.46-62.25,91.17-127.76,137.12-190.81,26.27-34.68,52.16-69.8,75.89-106.8,1.83-3.25,3.09-6.78,2.33-10.48-.6-2.99-2.41-5.61-4.86-6.74-1.78-.86-3.7-1.09-5.7-1.2-2.22-.11-4.46-.07-6.68-.08-32.31-.06-64.62.04-96.93-.1-1.86-.06-3.78-.2-5.52-.68-5.06-1.22-3.95-6.34-2.88-10.91,6.53-23.19,7.11-29.25,13.88-57.48,3.69-14.9,8.34-33.75,12.05-48.4,3-10.57,5.89-21.26,8.99-31.81.62-2.35,1.38-4.84.73-7.25-.68-2.51-3.12-4.3-5.44-3.91-1.81.26-3.44,1.81-4.84,3.31-2.97,3.24-5.54,6.93-8.25,10.62-32.07,44.31-97.98,122.24-97.98,122.24l-20.43,25.28s-44.62,51.58-72.64,88.65c-1.53,2.03-2.84,4.08-4.19,6.16-2,2.95-3.12,6.52-1.85,10.25v.05Z"/>
</svg>