<?xml version="1.0" encoding="UTF-8"?>
<svg id="Ebene_1" xmlns="http://www.w3.org/2000/svg" viewBox="0 0 800 800">
  <defs>
    <style>
      .cls-1 {
        fill: #375064;
      }

      .cls-2 {
        fill: #fca010;
      }
    </style>
  </defs>
  <path class="cls-1" d="M540.63,314.88c-59.56-21.15-107.68,8.58-127.45,49.41-25.83,53.34-1.94,114.6,53.37,138.04-3.14,1.09-5.94,1.55-8.85,1.53-6.98-.03-13.97-.35-20.92.06-8.6.51-16.21-1.75-23.73-5.81-20.26-10.95-41.71-17.37-65.1-15.47-16.01,1.3-30.92,6.24-44.58,14.47-8.18,4.93-16.57,7.52-26.1,6.78-4.72-.37-9.53.25-14.23-.25-10.02-1.07-16.24-8.51-16.25-18.86,0-44.09-.01-88.17-.01-132.26,0-64.27,0-128.55,0-192.82,0-13.37,6.58-19.99,19.82-19.99,85.05,0,170.11,0,255.16-.02,10.69,0,18.79,7.04,18.81,17.14.11,52.54.05,105.08.05,158.04ZM390.73,190.52h0c-28.03-.01-56.07-.02-84.1,0-2.61,0-5.19-.16-7.56,1.54-7.47,5.39-6.9,16.56,1.16,21.63,3.31,2.08,6.95,2.27,10.67,2.27,55.18,0,110.35,0,165.53,0,1.47,0,2.95-.13,4.42-.28,4.79-.48,9.07-4.55,9.84-9.32,1.43-8.84-4.62-15.79-14.08-15.81-28.63-.07-57.25-.03-85.88-.03ZM393.69,272.89v-.02c26.99,0,53.98.01,80.97-.02,2.36,0,4.77-.07,7.07-.53,6.11-1.22,9.84-5.85,9.85-11.9.01-6.17-3.55-10.58-9.63-12.12-2.19-.55-4.39-.61-6.62-.61-55.02,0-110.03,0-165.05.03-1.77,0-3.55.15-5.3.42-5.38.84-9.3,4.58-10.09,9.49-.87,5.43,1.52,10.54,6.17,13.22,3.21,1.85,6.74,2.04,10.32,2.04,27.43,0,54.87,0,82.3,0ZM348,331.83v.02c12.75,0,25.5.03,38.26-.03,2.21-.01,4.48-.18,6.6-.74,3.92-1.05,6.78-3.39,7.95-7.54,2.56-9.12-3.71-17-13.71-17.01-25.65-.02-51.31,0-76.96.06-2.2,0-4.45.2-6.6.65-5.67,1.2-9.56,6.13-9.52,11.81.04,6.21,3.62,10.85,9.57,12.08,2.3.47,4.7.67,7.05.68,12.46.06,24.91.03,37.37.03Z"/>
  <path class="cls-2" d="M452.27,683.02c-17.86.65-33.68-4.92-49.41-10.48-22.55-7.98-44.89-16.51-67.36-24.72-4.44-1.62-9.08-2.51-13.8-3.15-11.84-1.6-19.49,5.06-26.69,12.97-7.29,8.01-14.69,15.92-22.16,23.76-5.66,5.94-13.64,6.23-19.24.28-19.01-20.19-38.33-40.11-55.56-61.89-6.53-8.25-5.51-15.8,2.91-22.19,24.54-18.63,49.14-37.18,73.69-55.81,7.69-5.84,14.61-12.56,21.53-19.29,26.13-25.39,56.66-30.54,90.61-19.45,4.19,1.37,8.34,3.12,12.17,5.28,26.03,14.63,53.31,26.94,78.32,43.48,18.61,12.3,16.67,37.49,1.06,47.98-7.26,4.88-14.6,4.77-22.44,2.43-25.6-7.63-51.2-15.23-76.81-22.83-1.84-.55-3.69-1.16-5.58-1.42-4.63-.64-8.06,1.23-8.95,4.67-.86,3.32,1.6,7.67,5.35,9.31,1.49.65,3.03,1.18,4.58,1.66,28.9,8.97,58.02,17.2,87.17,25.29,5.82,1.62,11.4.93,16.87-1.43,20.41-8.82,31.31-29.36,26.83-51.11-1-4.88-.25-8.68,3.79-11.79,13.17-10.13,25.77-20.92,38.4-31.71,19.22-16.42,43.61-15.05,65.33-2.18,5.88,3.48,11.32,7.57,16.17,12.43,7.78,7.79,8.22,16.68.58,24.66-5.54,5.77-11.56,11.09-17.43,16.53-28.39,26.32-57.35,52.01-86.23,77.79-16.52,14.75-35.33,24.55-56.82,29.45-5.82,1.33-11.72,1.65-16.9,1.46Z"/>
  <path class="cls-1" d="M418.42,408c.21-50.64,40.19-79.33,70.46-83.64,28.75-4.09,54.29,3.31,74.79,24.86,15.89,16.7,24.25,36.86,23.98,59.7-.58,48.2-38.26,86.03-86.85,85.23-45.89-.76-82.3-38.23-82.37-86.15ZM503.06,348.92c-7.12-.09-9.17,1.76-9.83,8.87-.12,1.25.13,2.33-1.78,2.95-15.27,4.95-21.22,14.11-20.36,29.9.53,9.66,10.34,23.19,23.53,25.93,5.3,1.1,10.53,2.59,15.51,4.82,3.72,1.67,4.83,4.49,4.02,8.32-1,4.69-6.59,8.25-12.2,7.03-6.04-1.31-11.94-3.25-17.87-5.03-5.43-1.63-8.94.19-10.44,5.62-1.47,5.32.34,9.66,5.41,12.09,2.78,1.34,5.72,2.46,8.71,3.2,4.01.99,6.21,2.56,5.86,7.36-.35,4.8,2.91,7.52,8.14,8.2,5.13.67,9.72-1.24,10.35-5.38.76-5.03,2-7.55,7.61-9.73,6.1-2.38,10.62-8.82,12.43-15.93,3.55-13.92,1.23-29.5-16.65-33.92-6.13-1.52-12.14-3.7-18.03-6.02-5.67-2.23-8.09-7.54-6.47-12.86,1.32-4.33,5.04-5.97,11.26-5.35,6.11.61,11.07,3.91,16.38,6.45,4.93,2.36,9.9.76,12.11-3.73,2.11-4.28.15-10.05-4.2-12.36-3.5-1.86-6.94-3.83-10.55-5.47-2.37-1.08-3.1-2.66-3.18-5.13-.21-7-3.03-9.73-9.77-9.81Z"/>
</svg>