<?xml version="1.0" encoding="UTF-8"?>
<svg id="Ebene_1" xmlns="http://www.w3.org/2000/svg" viewBox="0 0 800 800">
  <defs>
    <style>
      .cls-1 {
        fill: #3d4f69;
      }
    </style>
  </defs>
  <path class="cls-1" d="M688.03,399.9c-2.97-3.24-6.55-5.84-9.8-8.81-24.04-21.96-48.01-44.02-72.17-65.82-2.8-2.52-3.7-4.93-3.69-8.64.08-32.01,0-64.02-.07-96.03-.02-9.49-4.86-14.78-13.38-14.78-15.47,0-30.95-.01-46.42,0-9.14.01-13.73,4.94-13.74,14.73-.01,11.2,0,22.4,0,34.42-1.15-.98-1.71-1.42-2.24-1.9-7.32-6.68-14.61-13.39-21.95-20.06-19.44-17.65-38.92-35.26-58.35-52.93-11.52-10.48-22.89-21.15-34.5-31.51-7.54-6.73-14.32-6.57-21.93-.07-2.62,2.24-5.25,4.48-7.79,6.82-9.71,8.94-19.4,17.91-29.09,26.88,0,0,0,0,0,0-4.6,3.2-8.55,7.25-12.7,11.03-14.71,13.39-29.5,26.67-44.26,39.99-30.04,27.13-60.08,54.26-90.11,81.39h0c-4.02,3.49-8.09,6.93-12.06,10.48-18.42,16.43-36.82,32.88-55.21,49.34-8.44,7.55-16.93,15.03-25.23,22.75-7.17,6.67-8.3,15.67-2.63,22.95,7.24,9.27,14.7,18.37,22.43,27.18,6.74,7.68,13.95,7.7,21.39.98,15.29-13.8,30.64-27.52,45.95-41.29,15.3-13.77,30.58-27.56,45.87-41.35,18.45-16.56,36.92-33.11,55.35-49.7,17.14-15.44,34.24-30.93,51.35-46.4,15.2-12.68,29.54-26.45,44.18-39.84,1.59-1.46,2.68-1.69,4.3-.21,10.07,9.17,20.18,18.28,30.29,27.4,12.19,11.01,24.36,22.06,36.59,33.02,18.76,16.82,37.6,33.54,56.34,50.38,14.56,13.08,28.98,26.33,43.52,39.45,15.61,14.09,31.28,28.12,46.92,42.17,10.06,9.04,20.04,18.18,30.18,27.11,7.08,6.24,13.55,5.87,19.9-.91,4.1-4.38,8.26-8.72,11.6-13.83,4.18-4.95,8.66-9.65,12.46-14.91,4.58-6.34,4.01-13.72-1.28-19.5ZM523.54,261.58s.07-.06.11-.1c0,.02,0,.04,0,.06-.04.01-.08.02-.12.04Z"/>
  <path class="cls-1" d="M615.39,545.55c-.04-29.25-.16-58.5.01-87.74.05-9.22-2.56-16.57-10.09-21.56-.77-.51-1.39-1.27-2.1-1.9-16.54-14.75-33.09-29.49-49.62-44.25-17.59-15.71-35.15-31.47-52.76-47.16-17.49-15.58-35.04-31.08-52.52-46.66-14.2-12.66-28.41-25.3-42.48-38.12-4.76-4.34-6.5-4.75-11.4-.43-19.55,17.26-39.07,34.56-58.57,51.88-21.04,18.69-42.06,37.41-63.07,56.13-14.67,13.07-29.37,26.1-43.97,39.27-9.21,8.31-18.26,16.83-27.38,25.25-3.21,2.74-6.43,5.47-9.63,8.21-5.35,4.58-7.95,10.49-7.86,17.85.1,8.82.01,17.64,0,26.46-.02,62.71-.04,125.43-.04,188.14,0,11.85,3.34,15.34,14.53,15.34,43.36,0,86.73,0,130.09,0,32.64,0,65.27-.08,97.91.07,1.11,0,2.03-.1,2.77-.33h121.04c.75.24,1.67.33,2.79.32,16.4-.17,32.8-.05,49.21-.08,9.35-.02,13.33-4.26,13.32-14.22-.05-42.16-.13-84.31-.18-126.47ZM399.37,633.42c-17.33-.15-31.54-14.51-31.54-31.88,0-17.63,14.54-32.02,32.2-31.87,17.35.15,31.54,14.49,31.55,31.87,0,17.62-14.56,32.04-32.21,31.88ZM479.7,527.26c-2.95,8.61-9.46,13.17-18.36,14.04-7.64.75-13.38-3.14-18.84-8.09-19.93-18.06-47.71-21.79-71.54-9.84-5.77,2.89-10.82,6.78-15.61,11.12-10.23,9.28-22.79,9.23-31.3.08-8.34-8.96-7.43-21.91,2.44-31.24,20.53-19.42,45.08-28.91,73.36-29.42,28.8.56,53.83,10.5,74.55,30.82,6.45,6.33,8.21,14.04,5.31,22.52ZM527.6,482.37c-8.76,8.96-21.47,8.44-31.78-1.29-55.26-52.12-136.4-52.14-192.19.08-6.68,6.25-13.92,9.32-22.88,6.6-8.12-2.47-13.03-8.19-14.61-16.45-1.55-8.08,1.58-14.58,7.32-20.24,33.23-32.77,78.93-51.44,133.76-51.43,40.79.67,82.71,17.14,117.76,50.57,10.7,10.2,11.64,22.94,2.61,32.16Z"/>
</svg>