<?xml version="1.0" encoding="UTF-8"?>
<svg id="Ebene_1" xmlns="http://www.w3.org/2000/svg" viewBox="0 0 800 800">
  <defs>
    <style>
      .cls-1 {
        fill: #fea615;
      }

      .cls-2 {
        fill: #415775;
      }
    </style>
  </defs>
  <g>
    <path class="cls-1" d="M467.53,616.83c.17-4.41,4-8.43,7.32-12.66,3.58-4.56,7.6-8.76,10.94-13.52,1.25-1.78,1.89-3.44.46-5.36-4.44-5.99-7-12.97-10.3-19.55-1.59-3.17-3.97-4.6-7.51-5.12-6.86-1.02-13.87-.14-20.67-2.03-6.93-1.92-10.91-5.72-11.19-12.86-.38-9.83-.52-19.71-.02-29.53.54-10.51,7.37-16.13,18.83-16.83,4.68-.29,9.36-.88,14.01-1.52,2.64-.36,4.32-1.92,5.3-4.53,2.96-7.84,7.03-15.15,11.59-22.16,1.56-2.4,1.51-4.04-.47-6.09-4.62-4.8-9.11-9.73-13.58-14.68-5.84-6.46-6.29-12.32-.84-19.21,6.91-8.73,15.2-16.21,23.4-23.71,4.2-3.85,9.15-3.19,13.84-.7,6.48,3.43,12.25,7.89,17.77,12.64,2.42,2.09,4.8,2.47,7.44.9,7.5-4.47,15.78-6.96,24.02-9.6,5.36-1.72,5.74-2.76,6.67-8.36,1.29-7.71,1.14-15.64,4.07-23.13,2.02-5.17,5.81-7.73,10.83-8.25,9.75-1.02,19.59-.93,29.36-.21,10.15.75,14.26,4.79,15.07,14.72.51,6.26,1.9,12.38,2.41,18.62.18,2.17,1.38,3.57,3.48,4.29,9.36,3.24,18.53,6.9,26.85,12.34,3.14,2.06,5.56.75,8-1.3,4.73-3.97,9.42-7.99,14.29-11.79,6.38-4.97,12.31-5.03,18.53.24,8.31,7.03,15.72,15.03,22.97,23.11,4.93,5.49,4.52,12.47-.42,18.52-4.29,5.25-8.72,10.41-13.33,15.39-2.39,2.58-2.68,4.76-.89,7.85,4.06,7.01,8.63,13.75,11.7,21.32,1.31,3.23,4.14,4.37,7.44,4.62,5.8.43,11.6,1.06,17.41,1.26,8.15.29,13.08,7.01,13.38,14.55.41,10.45.35,20.93.01,31.38-.17,5.19-2.76,9.49-7.99,11.42-4.41,1.63-8.98,2.67-13.75,2.71-2.84.03-5.69.2-8.53.34-5.39.27-8.28,2.92-9.79,7.84-2.14,6.97-5.34,13.47-9.92,19.21-1.82,2.28-1.43,4.02.61,6.04,4.74,4.69,9.36,9.51,13.85,14.44,4.97,5.46,5.6,12.89.94,18.13-7.54,8.47-14.92,17.16-23.89,24.24-5.94,4.69-11.64,4.53-17.6.07-5.83-4.36-11.79-8.57-17.65-12.9-2.2-1.63-4.41-2.26-6.83-.65-6.36,4.22-13.67,6.25-20.74,8.83-5.59,2.04-6.27,3.07-6.7,9.09-.5,6.97-1.35,13.95-2.99,20.75-1.55,6.43-6.97,9.23-12.71,9.71-10.97.91-22.08,1.31-33.02-.18-8.05-1.1-11.76-6.24-12.39-14.21-.52-6.61-1.36-13.19-2.28-19.76-.49-3.51-3.63-4.47-6.47-5.27-5.24-1.48-10.46-2.95-15.35-5.4-2.43-1.21-4.89-2.38-7.17-3.84-2.84-1.82-5.26-1.63-7.69.67-4.66,4.43-9.24,8.94-14.09,13.15-7.46,6.48-12.76,6.27-19.73-.55-7.16-6.99-14.27-14.04-21.35-21.12-2.86-2.86-4.96-6.14-4.98-11.81ZM596.39,476.25c21.9-.21,41.56,6.37,59.51,18.58,6.99,4.75,12.92,10.7,19.42,15.99,4.97,4.05,9.88,3.96,13.64.13,3.49-3.56,3.16-8.52-.71-13.27-3.06-3.76-6.65-6.96-10.31-10.09-23.08-19.68-49.82-30.38-80.28-30.93-24.74-.45-47.59,6.55-68.54,19.51-9.6,5.94-18.44,12.88-25.8,21.49-3.69,4.32-3.85,9.02-.59,12.66,3.52,3.92,8.16,4.31,12.95.87,2.1-1.5,4-3.29,5.88-5.06,20.99-19.71,45.91-29.69,74.81-29.9ZM661.32,533.53c.02-2.44-.66-4.63-2.36-6.42-15.4-16.23-34.32-25.72-56.65-27.54-19.32-1.58-37.24,3.55-53.55,13.99-5.54,3.54-10.62,7.66-15.1,12.47-4.24,4.54-4.57,10.13-.9,13.88,3.62,3.7,9.27,3.5,14.04-.49,1.51-1.27,3.05-2.5,4.55-3.79,20.54-17.62,49.65-21.32,73.94-9.45,7.29,3.56,13.64,8.4,19.74,13.64,3.23,2.77,6.97,3.69,11.02,1.9,3.5-1.56,5.17-4.41,5.27-8.18ZM594.12,542.93c-3.61-.3-8.59.85-13.38,2.47-6.76,2.28-12.79,5.9-17.64,11.22-2.72,2.99-3.33,7.36-1.66,10.62,1.67,3.26,5.04,4.89,9.35,4.61,2.74-.17,4.86-1.66,7.05-3.04,9.98-6.3,20.32-8.04,31.21-2.36,2.73,1.43,5.33,3.1,8.1,4.46,4.08,2,8.37.98,11.37-2.49,2.84-3.28,2.91-6.88.19-10.8-1.34-1.93-2.92-3.65-4.81-5.09-8.34-6.34-17.74-9.52-29.8-9.62ZM595.44,586.97c-8.67.13-15.98,7.36-15.92,15.77.05,8.03,8.09,15.68,16.33,15.54,8.77-.15,16.23-7.65,16.02-16.11-.21-8.46-7.63-15.33-16.43-15.2Z"/>
    <path class="cls-2" d="M451.67,562.72c-7.62-1.14-15.41-.16-22.97-2.27-7.71-2.15-12.13-6.41-12.44-14.4-.43-11.02-.58-22.08-.02-33.08.6-11.77,8.2-18.06,20.93-18.86,5.21-.32,10.4-.99,15.57-1.7,2.93-.4,4.8-2.15,5.9-5.07,1.14-3.04,2.43-6,3.84-8.91-1.25-.02-2.59-.03-4.08-.03-2.85-.28-7.36.56-11.89-.81-3.33-1.01-4.79-2.94-5.07-6.04-.67-7.45-.59-14.93-.16-22.39.27-4.56,2.97-7.67,7.26-8.43,2.63-.46,5.27-.73,7.92-.87-.18-.2-.37-.41-.55-.61-6.49-7.23-6.99-13.8-.93-21.52,1.08-1.37,2.19-2.72,3.33-4.04-2.51.03-5.02.07-7.52-.04-5.51-.25-9.28-3.62-9.55-9.16-.33-6.54-.29-13.11,0-19.65.25-5.68,4.17-9.36,9.87-9.54,6-.19,12.02-.23,18.03,0,6.86.26,10.49,4.17,10.61,11.11.03,1.96.04,3.93.04,5.89.41-.38.82-.75,1.22-1.13,4.67-4.31,10.17-3.57,15.39-.79,2.22,1.18,4.36,2.49,6.44,3.87,0-2.95.06-5.9.16-8.85.21-6.18,4.22-10.02,10.42-10.17,5.66-.13,11.32-.1,16.98-.03,7.09.09,10.66,3.69,10.81,10.81.06,2.92.01,5.84.01,8.76,0,1.16,0,2.25-.01,3.27,3.28-1.14,6.59-2.19,9.9-3.26,5.96-1.92,6.38-3.09,7.42-9.36,1.43-8.64,1.27-17.52,4.52-25.91,2.24-5.79,6.46-8.66,12.04-9.25,3.31-.35,6.63-.57,9.95-.7-.23,0-.47,0-.7,0-17.17-.08-18.87-1.72-18.87-18.74,0-3.1-.09-6.21.03-9.31.26-6.77,4.3-10.77,11.06-10.91,4.93-.1,9.86-.06,14.79-.01,8.46.09,12.18,3.9,12.24,12.49.02,2.37,0,4.75,0,7.12,1.05,15.38-2.71,18.6-11.9,19.23,5.35,0,10.7.22,16.04.61,11.28.84,15.85,5.36,16.75,16.49.57,7.01,2.11,13.87,2.67,20.86.2,2.43,1.54,4,3.87,4.81,3.07,1.07,6.12,2.19,9.14,3.39,0-32.03,0-64.06,0-96.08,0-3.68-.41-7.23-2.02-10.63-5.69-12.04-15.34-17.48-28.44-17.47-58.1.03-116.2.41-174.29-.21-5.11-.05-10.13,1.49-14.6,4.12,0-33.32,0-66.64,0-99.95,0-5.25-.59-10.31-2.89-15.17-8.12-17.19-21.89-24.95-40.59-24.94-82.92.05-165.84.58-248.74-.3-22.91-.24-44.62,21.92-44.1,44.73,1.44,64.11.5,128.27.5,192.42,0,65.97-.01,131.93,0,197.9,0,14.37,5.54,19.97,19.66,19.97,21.98,0,43.96-.1,65.94-.03v.2h300.75c-4.84-6.66-7.67-14.38-11.29-21.68-1.76-3.55-4.42-5.15-8.35-5.74ZM522.98,310.51c16.86-.33,19.06,2.99,18.26,20.09,1.08,17.92-3.31,19.02-18.78,18.96-17.71-.08-19.43-1.61-19.43-19.23,0-18.36,1.36-19.45,19.95-19.81ZM441.09,322.16c.19-7.21,3.77-10.98,11.02-11.39,5.45-.31,10.94-.29,16.4-.08,7.31.28,11.1,4.44,11.21,11.87.04,2.55,0,5.11,0,7.66,1.1,18.51-3.72,19.9-19.58,19.38-2.73-.09-5.48.13-8.2-.06-6.85-.49-10.56-4.21-10.79-10.97-.19-5.46-.22-10.94-.07-16.41ZM253.58,191.08c24.06-.48,27.2,4.27,26.05,28.67,1.54,25.58-4.73,27.15-26.8,27.05-25.27-.11-27.74-2.3-27.73-27.45,0-26.2,1.95-27.75,28.48-28.28ZM279.65,403.65c0,3.39.02,6.77,0,10.15-.07,12.14-4.06,16.59-15.94,17.2-7.8.4-15.62.57-23.42.49-9.28-.1-15.05-5.81-15.29-15.1-.22-8.59-.19-17.19,0-25.77.19-8.52,5.63-14.41,13.97-14.75,8.84-.36,17.71-.35,26.55-.04,8.42.3,13.75,6.02,14.06,14.56.16,4.42.03,8.85.03,13.28h.04ZM225.04,297.93c.3-8.82,6.02-14.3,14.87-14.51,8.07-.19,16.16-.14,24.23-.04,10.12.12,15.22,5.26,15.43,15.43.09,4.17.01,8.34.01,12.51.02,25.53-1.18,26.72-26.88,26.74-4.17,0-8.34.07-12.51-.03-8.96-.22-14.81-5.5-15.16-14.31-.34-8.59-.3-17.2,0-25.79ZM191.75,416.95c-.24,7.71-5.5,13.09-13.18,13.64-4.92.35-9.88.07-17.17.07-4.07-.4-10.5.8-16.97-1.16-4.75-1.44-6.84-4.19-7.24-8.61-.96-10.64-.85-21.31-.22-31.95.38-6.51,4.24-10.95,10.36-12.03,11.27-1.98,22.71-1.68,34.07-.21,8.06,1.05,9.97,7.19,10.3,13.74.45,8.82.31,17.69.03,26.52ZM150.55,338.24c-7.86-.35-13.24-5.16-13.64-13.07-.47-9.33-.42-18.71,0-28.05.36-8.1,5.95-13.36,14.08-13.61,8.57-.27,17.16-.33,25.72,0,9.79.37,14.97,5.95,15.14,15.85.13,7.53.06,15.07.02,22.61-.07,11.51-4.84,16.26-16.38,16.35-3.64.03-7.28,0-10.92,0v-.04c-4.68,0-9.36.17-14.03-.04ZM163.92,246.86c-3.9-.13-7.82.19-11.71-.09-9.78-.7-15.07-6.01-15.4-15.65-.27-7.8-.31-15.62-.11-23.42.28-10.28,5.38-15.68,15.73-16.26,7.78-.44,15.62-.42,23.41-.12,10.43.4,15.83,6.34,16,16.94.06,3.64,0,7.29,0,10.93,1.58,26.41-5.3,28.41-27.94,27.66ZM302.92,570.84h-99.8c-.16-21.06-.07-42.12.01-63.18.07-16.99,8.65-25.54,25.44-25.57,16.69-.04,33.38-.06,50.06.01,16.73.08,24.33,7.62,24.34,24.05.02,21.56.12,43.12-.06,64.68ZM368.58,415.72c-.2,8.56-5.4,14.16-13.96,14.45-8.84.29-17.71.33-26.55-.05-8.07-.34-13.55-5.99-13.83-14.07-.3-8.58-.32-17.19,0-25.77.34-9.04,5.95-14.34,14.93-14.52,7.55-.15,15.1-.08,22.65-.02,11.51.09,16.7,5.23,16.78,16.54.03,3.64,0,7.29,0,10.94-.01,4.17.07,8.33-.03,12.5ZM314.21,298.34c.23-8.15,5.32-14,13.45-14.55,9.08-.61,18.26-.62,27.35-.07,8.63.51,13.4,6.3,13.58,15.04.08,4.17.01,8.34.01,12.52,0,2.87,0,5.74,0,8.6-.03,14.07-4.08,18.25-17.89,18.35-7.3.05-14.6.13-21.9-.07-8.65-.24-14.25-5.49-14.56-14.01-.32-8.59-.27-17.21-.03-25.81ZM341.12,246.8c-24.51-.12-26.93-2.45-26.93-26.75,0-4.43-.12-8.87.04-13.29.36-9.66,6.14-15.37,15.78-15.57,7.04-.14,14.08-.09,21.11-.02,12.08.12,17.38,5.57,17.46,17.82.02,3.39,0,6.78,0,10.17,1.85,27.08-6.75,27.75-27.47,27.65Z"/>
  </g>
  <path class="cls-1" d="M597.07,379.73c2.42,0,4.6,0,6.52-.14-2.18,0-4.35.05-6.52.14Z"/>
</svg>