<?xml version="1.0" encoding="UTF-8"?>
<svg id="Ebene_1" xmlns="http://www.w3.org/2000/svg" viewBox="0 0 800 800">
  <defs>
    <style>
      .cls-1 {
        fill: #3d4f69;
      }

      .cls-2 {
        fill: #f90;
      }
    </style>
  </defs>
  <g>
    <path class="cls-2" d="M443.81,499.87c-6.83,1.74-26.73,11.43-27.79,13.31-.41.72.03,2.36-.19,3.25-.56-.31-1.14-.6-1.73-.85,1.22-13.74,9.44-26.51,17.98-36.99,5.22-6.41,13.39-13.61,13.89-14.47,6.44-11.02-25.84-13.55-32.27-13.17-30.28,1.78-30.06,30.27-23.59,53.11,1.93,6.81,8.71,18.27.14,14.33-1.34-.62-10.36-9.6-12.01-11.43-12.42-13.79-21.52-32.09-23.44-34.44-9.4-11.51-21.59,17.26-23.16,24.31-8.46,38.03,30.95,45.47,59.66,41.9.26.59.55,1.16.87,1.72-4.02.26-8.34,3.38-12.34,5.15-10.42,4.6-21.29,8.37-32.13,11.87-16.94,5.47-31.04,3.59-13.75,22.72,23.44,25.94,48.49,19.53,64.83-9.26,2.63-4.63,8.51-16.98,8.22-21.78.64,0,1.28-.02,1.92-.08,1.79,21.26.54,42.61-.88,63.83,1.43,9.33,20.34.31,25.04-2.17,20.6-10.88,27.86-28.1,16.06-49.35-2.99-5.39-15.89-21.26-20.7-24.17-1.9-1.15-1.98-.81-4.3-.99.19-.72.34-1.46.44-2.2,12.36.6,31.57,8.4,43.8,13.32,3.78,1.52,14.63,7.62,17.95,6.66,5.51-1.59,4.53-14.31,4.2-18.96-2.01-27.66-18.94-42.24-46.74-35.17Z"/>
    <path class="cls-1" d="M663.53,393.79h-356.79c-16.28,0-29.47,13.19-29.47,29.47v220.66c0,16.28,13.19,29.47,29.47,29.47h21.89v8.59c0,1.22.99,2.21,2.21,2.21h37.96c1.22,0,2.21-.99,2.21-2.21v-8.59h234.76v8.59c0,1.22.99,2.21,2.21,2.21h37.96c1.22,0,2.21-.99,2.21-2.21v-8.59h15.36c16.28,0,29.47-13.19,29.47-29.47v-220.66c0-16.28-13.19-29.47-29.47-29.47ZM404.03,635.89c-56.5,0-102.3-45.8-102.3-102.3s45.8-102.3,102.3-102.3,102.3,45.8,102.3,102.3-45.8,102.3-102.3,102.3ZM667.73,589.45c0,6.52-5.28,11.8-11.8,11.8h-100.3c-6.52,0-11.8-5.28-11.8-11.8v-5.74c0-6.52,5.28-11.8,11.8-11.8h100.3c6.52,0,11.8,5.28,11.8,11.8v5.74ZM667.73,536.46c0,6.52-5.28,11.8-11.8,11.8h-100.3c-6.52,0-11.8-5.28-11.8-11.8v-5.74c0-6.52,5.28-11.8,11.8-11.8h100.3c6.52,0,11.8,5.28,11.8,11.8v5.74ZM667.73,483.48c0,6.52-5.28,11.8-11.8,11.8h-100.3c-6.52,0-11.8-5.28-11.8-11.8v-5.74c0-6.52,5.28-11.8,11.8-11.8h100.3c6.52,0,11.8,5.28,11.8,11.8v5.74Z"/>
  </g>
  <g>
    <g>
      <path class="cls-1" d="M379.36,135h-207.05c-15.08,0-27.31,12.23-27.31,27.31v84.11c0,12.95,9.01,23.79,21.1,26.6v-22.18c0-15.75,12.82-28.57,28.57-28.57h160.21c15.75,0,28.57,12.81,28.57,28.57v22.58c13.14-1.97,23.22-13.31,23.22-27v-84.11c0-15.08-12.23-27.31-27.31-27.31ZM373.12,183.57c-8.63,0-15.63-7-15.63-15.63s7-15.63,15.63-15.63,15.63,7,15.63,15.63-7,15.63-15.63,15.63Z"/>
      <path class="cls-1" d="M354.88,237.15h-160.21c-7.55,0-13.69,6.14-13.69,13.69v22.89h187.6v-22.89c0-7.55-6.14-13.69-13.69-13.69Z"/>
    </g>
    <path class="cls-2" d="M231.45,382.92c-3.18-.44-5.46-3.4-4.82-6.64.38-2.17,1.77-3.71,3.39-5.35,6.15-5.7,8.53-13.82,3.97-21.39-1.99-3.35-4.83-5.92-7.58-8.61-3.94-3.76-7.58-8-10.26-12.9-4.48-7.88-5.09-17.51-1.3-25.73,1.74-3.87,3.75-6.8,6.17-9.67,2.4-2.94,6.04-5.64,9.88-4.06,2.51.98,3.73,3.91,3.11,6.44-.41,1.91-1.63,3.59-2.96,5.3-5.3,6.39-7.89,13.99-3.59,21.79,4.47,8.52,12.98,13.06,17.67,21.15,3.63,5.91,5.33,13.92,3.52,21.02-1.17,5.42-4.83,10.91-8.41,14.34-2.41,2.37-5.24,4.83-8.74,4.3h-.05Z"/>
    <path class="cls-2" d="M285.62,382.92c-3.18-.44-5.46-3.4-4.82-6.64.38-2.17,1.77-3.71,3.39-5.35,6.15-5.7,8.53-13.82,3.97-21.39-1.99-3.35-4.83-5.92-7.58-8.61-3.94-3.76-7.58-8-10.26-12.9-4.48-7.88-5.09-17.51-1.3-25.73,1.74-3.87,3.75-6.8,6.17-9.67,2.4-2.94,6.04-5.64,9.88-4.06,2.51.98,3.73,3.91,3.11,6.44-.41,1.91-1.63,3.59-2.96,5.3-5.3,6.39-7.89,13.99-3.59,21.79,4.47,8.52,12.98,13.06,17.67,21.15,3.63,5.91,5.33,13.92,3.52,21.02-1.17,5.42-4.83,10.91-8.41,14.34-2.41,2.37-5.24,4.83-8.74,4.3h-.05Z"/>
    <path class="cls-2" d="M339.79,382.92c-3.18-.44-5.46-3.4-4.82-6.64.38-2.17,1.77-3.71,3.39-5.35,6.15-5.7,8.53-13.82,3.97-21.39-1.99-3.35-4.83-5.92-7.58-8.61-3.94-3.76-7.58-8-10.26-12.9-4.48-7.88-5.09-17.51-1.3-25.73,1.74-3.87,3.75-6.8,6.17-9.67,2.4-2.94,6.04-5.64,9.88-4.06,2.51.98,3.73,3.91,3.11,6.44-.41,1.91-1.63,3.59-2.96,5.3-5.3,6.39-7.89,13.99-3.59,21.79,4.47,8.52,12.98,13.06,17.67,21.15,3.63,5.91,5.33,13.92,3.52,21.02-1.17,5.42-4.83,10.91-8.41,14.34-2.41,2.37-5.24,4.83-8.74,4.3h-.05Z"/>
  </g>
</svg>