<?xml version="1.0" encoding="UTF-8"?>
<svg id="Ebene_1" xmlns="http://www.w3.org/2000/svg" viewBox="0 0 800 800">
  <defs>
    <style>
      .cls-1 {
        fill: #3d4f69;
      }

      .cls-2 {
        fill: #fca010;
      }
    </style>
  </defs>
  <path class="cls-2" d="M425.81,687.61c-17.5.56-33-4.24-48.41-9.04-22.09-6.88-43.99-14.24-66-21.32-4.35-1.4-8.9-2.16-13.52-2.71-11.6-1.38-19.1,4.36-26.15,11.19-7.14,6.91-14.39,13.73-21.71,20.49-5.55,5.13-13.37,5.37-18.85.24-18.62-17.41-37.55-34.59-54.44-53.37-6.4-7.11-5.4-13.63,2.85-19.14,24.05-16.06,48.15-32.06,72.2-48.13,7.54-5.04,14.31-10.83,21.09-16.63,25.6-21.9,55.52-26.34,88.78-16.78,4.11,1.18,8.17,2.69,11.93,4.55,25.5,12.62,52.24,23.23,76.74,37.5,18.23,10.61,16.33,32.33,1.04,41.37-7.11,4.21-14.3,4.12-21.98,2.1-25.08-6.58-50.17-13.14-75.26-19.69-1.8-.47-3.62-1-5.47-1.22-4.54-.55-7.89,1.06-8.77,4.03-.85,2.86,1.56,6.62,5.24,8.03,1.46.56,2.97,1.02,4.49,1.43,28.32,7.73,56.85,14.83,85.41,21.81,5.7,1.39,11.17.81,16.53-1.23,20-7.6,30.67-25.32,26.29-44.08-.98-4.21-.25-7.49,3.72-10.17,12.9-8.73,25.25-18.04,37.62-27.35,18.83-14.16,42.73-12.98,64.01-1.88,5.76,3,11.09,6.53,15.84,10.72,7.63,6.72,8.06,14.39.57,21.26-5.42,4.98-11.32,9.56-17.08,14.26-27.82,22.69-56.19,44.85-84.48,67.09-16.19,12.72-34.62,21.17-55.67,25.4-5.7,1.15-11.48,1.42-16.56,1.26Z"/>
  <g>
    <path class="cls-1" d="M522.48,242.98h-143.51c-3.91,0-6.52,2.61-6.52,6.52s2.61,6.52,6.52,6.52h143.51c3.91,0,6.52-2.61,6.52-6.52s-2.61-6.52-6.52-6.52Z"/>
    <path class="cls-1" d="M378.97,229.94h143.51c2.61,0,5.22-1.3,5.22-3.91l39.14-78.28c1.3-2.61,1.3-5.22-1.3-7.83-1.3-1.3-5.22-1.3-7.83,0l-61.32,36.53-35.22-35.23c-2.61-2.61-6.52-2.61-9.13,0l-35.22,35.23-60.01-36.53c-2.61-1.3-6.52-1.3-7.83,0-2.61,1.3-2.61,5.22-2.61,7.83l26.09,78.28c1.3,2.61,3.91,3.91,6.52,3.91Z"/>
    <path class="cls-1" d="M527.7,271.68c-1.3-1.3-2.61-2.61-5.22-2.61h-143.51c-1.3,0-3.91,1.3-5.22,2.61-2.61,2.61-79.58,87.41-79.58,134.38,0,66.54,75.67,123.94,163.08,123.94,82.19,0,150.03-56.1,150.03-123.94,0-46.97-76.97-131.77-79.58-134.38ZM508.84,458.76c-10.87,10.56-23.92,16.34-38.84,18.39-10.83,1.49-21.47.83-31.76-2.74-19.51-6.78-32.76-19.96-38.74-39.88-1.02-3.4-2.17-4.83-5.84-4.46-3.81.39-7.69,0-11.53.13-2.44.08-3.63-.79-3.48-3.3.14-2.36.03-4.75.37-7.07,1.16-7.94,2.9-9.67,10.81-9.3,4.35.2,5.8-1.08,5.19-5.33-.29-2.01-.42-4.29.24-6.15,1.27-3.58.07-4.55-3.33-4.41-3.25.13-6.51-.07-9.76.03-2.17.07-3.58-.77-3.54-2.93.07-3.53.18-7.09.79-10.55.77-4.38,3.09-7.15,8.2-6.24,8.22,1.47,12.61-.99,16.13-9.82,8.88-22.29,27.16-33.56,50.6-36.13,18.6-2.04,35.81,2.21,50.85,13.84,5.33,4.13,5.28,4.1,1.43,9.7-2.84,4.13-5.68,8.28-8.28,12.58-2.1,3.47-4.12,3.12-6.49.46-9.3-10.4-21.15-14.42-34.68-12.68-11.02,1.42-19.35,7.54-24.82,17.33-.7,1.26-1.21,2.63-1.91,4.21,1.49.9,3.13.51,4.62.52,13.46.04,26.92.15,40.38-.06,3.75-.06,4.93,1.26,4.06,4.66-1.06,4.13-2.31,8.22-3.43,12.34-.77,2.85-2.95,2.82-5.27,2.81-14.35-.04-28.7.07-43.04-.11-3.09-.04-4.74.61-4.64,3.91.01.42-.31.83-.39,1.26-1.56,9.26-.37,10.7,8.84,10.69,11.98,0,23.96.09,35.94-.07,3.4-.04,5.03.99,4.67,4.54-.42,4.15.77,8.41-1.8,12.43-1.43,2.24-2.86,2.85-5.28,2.83-12.27-.09-24.55-.04-37.17-.04,7.81,23.37,32.81,27.61,51.46,19,4.31-1.99,8.25-4.67,11.74-7.86,2.48-2.26,4.29-1.86,6.36.41,3.78,4.15,7.6,8.27,11.54,12.28,1.8,1.83,1.53,3.13-.19,4.8Z"/>
  </g>
</svg>