<?xml version="1.0" encoding="UTF-8"?>
<svg id="Ebene_1" xmlns="http://www.w3.org/2000/svg" viewBox="0 0 800 800">
  <defs>
    <style>
      .cls-1 {
        fill: #3d4f69;
      }

      .cls-2 {
        fill: #f90;
      }
    </style>
  </defs>
  <path class="cls-1" d="M385.68,409.57c-3.78.62-6.51-1.31-9.11-3.9-15.78-15.71-31.74-31.24-47.37-47.11-3.1-3.15-4.47-2.57-7.24.2-32.39,32.4-64.91,64.66-97.41,96.95-2.25,2.24-4.6,4.39-6.92,6.56-4.97,4.66-13.45,4.85-18.61.42-5.19-4.45-6.21-12.83-2.23-18.52.45-.65.96-1.28,1.51-1.84,18.56-18.56,37.09-37.15,55.72-55.64,20.2-20.05,40.54-39.97,60.74-60.04,6.91-6.87,14.57-7.04,21.53-.16,15.84,15.66,31.74,31.25,47.47,47.01,2.23,2.23,3.32,2.11,5.47-.05,21.33-21.41,42.76-42.72,64.22-64,7.18-7.12,17.18-6.07,22.24,2.17,3.45,5.62,2.39,12.45-2.87,17.71-19.02,19-38.07,37.97-57.11,56.94-6.31,6.29-12.67,12.53-18.93,18.86-3.06,3.1-6.52,4.99-11.11,4.44Z"/>
  <path class="cls-1" d="M674.78,237.18c.33-1.09-.31-2.04-.48-3.05-3.14-18.88-20.86-34.01-39.94-34.01-88.63,0-177.27-.01-265.9-.02-.04,9.81-.02,19.62,0,29.43,24.97,0,49.94,0,74.92,0,61.84,0,123.68,0,185.52.01,8.2,0,13.04,2.92,15.43,9.18.36.96.68,1.93,1.02,2.9.02,37.39.05,74.79.05,112.18,0,74.99-.03,149.99-.04,224.98-1.79,6.89-6.21,10.85-13.23,11.92h0c-.42-.02-.83-.06-1.25-.06-109.15,0-218.3,0-327.45.02-37.71,0-75.41.03-113.12.05-3.19-.77-6.32-1.54-8.91-3.84-3.24-2.87-4.36-6.6-4.91-10.65-.75-.93-.38-2.02-.39-3.02-.02-96.35-.01-192.69,0-289.04-9.74,0-19.48,0-29.22,0,0,97.65,0,195.3-.02,292.94,0,2.73.24,5.41.64,8.1,2.67,18.15,20.18,34.13,38.35,34.94.8-.34,1.65-.21,2.47-.21,51.54,0,103.08,0,154.62,0,.91,0,1.89-.29,2.72.36,0,8.36-.14,16.72.08,25.07.07,2.76-.84,3.14-3.31,3.13-19.43-.1-38.86-.15-58.29-.02-9.73.06-16.88,4.54-21.02,13.49-1.95,4.23-1.53,8.76-1.52,13.23,0,7.72,3.74,11.46,11.43,11.46,75.32,0,150.64,0,225.96,0,16.51,0,33.01.01,49.52,0,7.73-.01,11.59-3.87,11.59-11.48,0-.73-.04-1.47.01-2.19,1.06-14.1-9.62-24.96-24.64-24.64-18.59.4-37.19,0-55.78.18-3.16.03-3.68-.9-3.61-3.78.2-8.14.06-16.29.05-24.44,26.01-.01,52.02-.02,78.03-.05,27.26-.03,54.53-.07,81.79-.11,0,0,0,0,0,0h0c3.88-.1,7.58-1.07,11.19-2.41,15.36-5.72,27.12-20.97,27.64-35.79.07-2.09.2-4.17.2-6.26.02-106.47.03-212.94.02-319.41,0-6.37-.14-12.74-.22-19.11Z"/>
  <path class="cls-2" d="M354.28,164.16c.17-14.09-12.04-26.47-26.07-26.31-33.41.38-66.82.12-100.23.12-33.09,0-66.2.45-99.28-.23-13.29-.27-27.33,10.19-27.39,26.69-.09,25.14-.19,50.28.08,75.41.17,15.4,12.55,27.12,27.86,27.13,65.71,0,131.42,0,197.13,0,15.99,0,27.77-11.81,27.79-27.87.03-24.98-.19-49.96.12-74.94ZM176.34,233.73c-.05,2.53-1.42,3.77-3.91,3.76-11.45-.04-22.91-.13-34.36-.12-2,0-2.9-.66-2.89-2.72.05-10.25.04-20.51.05-30.77,0-2.5,0-4.99,0-7.49-.22,0-.44,0-.66,0v8.42c-1.77-7.01.45-13.95-.06-20.96-.3-4.11.03-8.26.08-12.4.01-.95-.33-2.31.16-2.79,4-3.91,9-1.39,13.55-1.78,2.71-.23,2.53,2.31,2.51,4.21-.12,13.84-.11,27.68-.44,41.51-.25,10.53-.45,10.53,10.21,10.55,3.82,0,7.65.19,11.45-.02,2.99-.17,4.02,1.54,4.28,3.91.24,2.2.06,4.45.02,6.68ZM196.45,238.28c-12.45-.22-10.26,1.29-10.37-10.31-.08-8.58-.02-17.17-.02-25.75h.06c0-10.33.11-20.67-.06-31-.06-3.37,1.25-4.56,4.42-4.5,14.02.27,11.68-1.47,11.75,10.97.1,18.12-.12,36.25.13,54.36.06,4.58-1.47,6.3-5.91,6.22ZM271.04,176.76c-6.95,19.1-14.22,38.09-21.32,57.14-1.12,2.99-2.82,4.58-6.33,4.43-3.67-.15-7.05-.2-8.5-4.37-7.11-20.39-16.02-40.12-22.28-60.82-1.58-5.23-.79-6.45,4.52-6.36,11.91.21,9.7-2.23,13.66,9.66,3.77,11.35,7.29,22.78,11.27,35.26,4.92-13.71,9.7-26.55,14.09-39.52,1.38-4.09,3.3-5.71,7.79-5.55,10.31.37,10.67.35,7.1,10.14ZM322.65,227.83c-.36,11.98,1.52,10.44-10.39,10.36-9.2-.07-18.4-.63-27.6-.82-2.54-.05-3.21-1.11-3.24-3.46-.22-20.84-.48-41.67-.84-62.51-.06-3.32,1.35-4.59,4.5-4.57,10.82.06,21.64.13,32.46.03,3.22-.03,4.14,1.37,4.06,4.34-.32,11.96,2.23,11.8-11.29,11.69-4.57-.04-9.14,0-13.79,0,0,1.09.02,2.47,0,3.86q-.1,7.66,7.81,7.66c3.98,0,7.96.09,11.93,0,2.38-.05,3.32.81,3.49,3.31.77,11.26.85,11.26-10.17,11.16-.48,0-.96-.04-1.43-.01-3.93.23-9.15-1.8-11.4.66-1.87,2.05-.15,7.25-.34,11.03-.11,2.13.39,2.63,2.55,2.56,6.2-.18,12.41.1,18.61-.09,3.57-.11,5.18.82,5.06,4.81Z"/>
  <rect class="cls-1" x="543.2" y="309.9" width="67.81" height="258.82" rx="15.47" ry="15.47"/>
  <rect class="cls-1" x="445.79" y="397.76" width="67.81" height="170.96" rx="12.57" ry="12.57"/>
  <rect class="cls-1" x="354.1" y="465.57" width="67.81" height="103.15" rx="9.76" ry="9.76"/>
</svg>