<?xml version="1.0" encoding="UTF-8"?>
<svg id="Ebene_1" data-name="Ebene 1" xmlns="http://www.w3.org/2000/svg" xmlns:xlink="http://www.w3.org/1999/xlink" viewBox="0 0 5442.52 2126.32">
  <defs>
    <style>
      .cls-1 {
        fill: url(#Unbenannter_Verlauf_10-2);
      }

      .cls-2 {
        fill: #1c1c1c;
      }

      .cls-3 {
        fill: url(#Unbenannter_Verlauf_10);
      }

      .cls-4 {
        isolation: isolate;
      }

      .cls-5 {
        fill: url(#Unbenannter_Verlauf_13);
      }
    </style>
    <linearGradient id="Unbenannter_Verlauf_10" data-name="Unbenannter Verlauf 10" x1="4734.87" y1="1523.8" x2="4731.32" y2="1935.04" gradientUnits="userSpaceOnUse">
      <stop offset="0" stop-color="#f8990d"/>
      <stop offset="1" stop-color="#fcd91f"/>
    </linearGradient>
    <linearGradient id="Unbenannter_Verlauf_13" data-name="Unbenannter Verlauf 13" x1="1160.11" y1="338.66" x2="749.23" y2="1787.66" gradientUnits="userSpaceOnUse">
      <stop offset="0" stop-color="#3be9f3"/>
      <stop offset=".07" stop-color="#20d8ef"/>
      <stop offset=".13" stop-color="#0fcded"/>
      <stop offset=".17" stop-color="#0acaed"/>
      <stop offset=".3" stop-color="#06b4e7"/>
      <stop offset=".54" stop-color="#0192e0"/>
      <stop offset=".67" stop-color="#0086dd"/>
    </linearGradient>
    <linearGradient id="Unbenannter_Verlauf_10-2" data-name="Unbenannter Verlauf 10" x1="21624.12" y1="19307.5" x2="21889.35" y2="20242.85" gradientTransform="translate(22694.19 -18477.95) rotate(-180) scale(1 -1)" xlink:href="#Unbenannter_Verlauf_10"/>
  </defs>
  <g>
    <path class="cls-2" d="M2080.09,1209.93c21.72,0,47.72-5.36,77.97-16.09v117.58c-21.73,9.35-42.43,16.03-62.09,20.01-19.67,3.98-42.7,5.98-69.1,5.98-54.19,0-93.24-13.27-117.17-39.81-23.93-26.54-35.89-67.31-35.89-122.33v-192.67h-56.52v-65.6l71.79-50.75,41.67-98.19h105.62v93.65h114.69v120.88h-114.69v181.94c0,30.26,14.58,45.38,43.73,45.38Z"/>
    <path class="cls-2" d="M2521.95,853.48c14.03,0,27.36,1.1,40.02,3.3l9.08,1.65-14.44,152.24c-13.2-3.3-31.5-4.95-54.87-4.95-35.21,0-60.79,8.04-76.74,24.14-15.96,16.09-23.93,39.26-23.93,69.52v229.8h-161.31v-467.43h120.06l25.17,74.67h7.84c13.47-24.75,32.24-44.76,56.31-60.03,24.06-15.26,48.33-22.9,72.82-22.9Z"/>
    <path class="cls-2" d="M2632.93,745.39c0-24.2,6.74-42.22,20.22-54.05,13.47-11.82,35.2-17.74,65.18-17.74s51.84,6.05,65.6,18.15c13.75,12.11,20.63,29.98,20.63,53.63,0,47.31-28.74,70.96-86.23,70.96s-85.4-23.65-85.4-70.96ZM2798.36,1329.16h-161.31v-467.43h161.31v467.43Z"/>
    <path class="cls-2" d="M3123.87,1337.41c-76.47,0-134.43-20.63-173.9-61.88-39.47-41.26-59.2-100.52-59.2-177.81s21.31-137.65,63.95-180.29,103.28-63.95,181.94-63.95c54.18,0,105.2,11.83,153.06,35.48l-47.44,119.23c-19.53-8.52-37.54-15.33-54.05-20.42-16.5-5.09-33.69-7.63-51.57-7.63-26.13,0-46.35,10.18-60.65,30.53-14.3,20.36-21.45,49.09-21.45,86.23,0,74.82,27.64,112.22,82.92,112.22,47.3,0,92.68-13.75,136.15-41.26v128.31c-41.53,27.51-91.45,41.26-149.76,41.26Z"/>
    <path class="cls-2" d="M3812.85,1094.42c0,76.47-20.56,136.08-61.68,178.85-41.12,42.77-98.67,64.15-172.66,64.15s-127.42-21.87-169.36-65.6c-41.95-43.73-62.92-102.86-62.92-177.4s20.56-135.38,61.68-177.61c41.11-42.22,98.81-63.33,173.07-63.33,45.93,0,86.5,9.77,121.71,29.29,35.2,19.53,62.36,47.52,81.48,83.96,19.11,36.45,28.67,79,28.67,127.69ZM3510.03,1094.42c0,40.16,5.36,70.75,16.09,91.79,10.73,21.04,28.74,31.56,54.05,31.56s42.7-10.52,53.01-31.56c10.31-21.04,15.47-51.63,15.47-91.79s-5.23-69.99-15.68-90.35c-10.46-20.35-28.33-30.53-53.63-30.53s-42.49,10.11-53.22,30.32c-10.73,20.22-16.09,50.4-16.09,90.56Z"/>
    <path class="cls-2" d="M4478.73,1329.16v-254.14c0-31.62-4.33-55.35-13-71.17-8.66-15.81-22.35-23.72-41.05-23.72-24.75,0-42.91,10.59-54.46,31.77-11.55,21.18-17.33,54.32-17.33,99.43v217.83h-161.72v-254.14c0-31.62-4.12-55.35-12.38-71.17-8.25-15.81-21.59-23.72-40.02-23.72-25.31,0-43.73,11.28-55.28,33.83-11.55,22.56-17.33,59.41-17.33,110.57v204.63h-161.31v-467.43h121.71l20.22,57.76h9.49c12.38-21.45,30.32-37.81,53.84-49.1,23.52-11.27,50.26-16.92,80.24-16.92,67.38,0,114.69,20.49,141.92,61.47h12.79c13.2-19.25,31.56-34.31,55.08-45.17,23.52-10.86,49.44-16.3,77.77-16.3,55.28,0,96.13,14.17,122.53,42.49,26.4,28.33,39.61,71.37,39.61,129.13v304.06h-161.31Z"/>
    <path class="cls-2" d="M5054.67,1329.16l-30.94-61.88h-3.3c-21.73,26.96-43.87,45.38-66.42,55.28-22.56,9.9-51.71,14.85-87.46,14.85-44.01,0-78.66-13.2-103.97-39.61-25.31-26.4-37.96-63.54-37.96-111.39s17.33-86.84,51.98-111.19c34.66-24.34,84.85-38.02,150.58-41.05l77.97-2.47v-6.6c0-38.5-18.98-57.76-56.93-57.76-34.11,0-77.43,11.55-129.96,34.66l-46.62-106.44c54.46-28.05,123.21-42.08,206.28-42.08,59.96,0,106.37,14.85,139.24,44.56,32.86,29.71,49.3,71.24,49.3,124.59v306.53h-111.8ZM4935.02,1223.55c19.53,0,36.23-6.19,50.13-18.57,13.89-12.38,20.83-28.47,20.83-48.27v-36.31l-37.13,1.65c-53.08,1.93-79.62,21.45-79.62,58.58,0,28.61,15.26,42.91,45.79,42.91Z"/>
  </g>
  <g>
    <path class="cls-3" d="M4380.24,1664.2c-27.14,0-48.35-7.49-63.63-22.47-15.28-14.98-22.92-36.19-22.92-63.63s7.06-50.08,21.18-65.51c14.12-15.43,33.65-23.14,58.58-23.14s42.37,6.78,55.64,20.35c13.27,13.57,19.9,32.32,19.9,56.24v22.31h-108.71c.5,13.07,4.37,23.27,11.61,30.61,7.24,7.34,17.39,11.01,30.46,11.01,10.15,0,19.75-1.06,28.8-3.17,9.05-2.11,18.49-5.48,28.35-10.1v35.58c-8.04,4.02-16.64,7.01-25.78,8.97-9.15,1.96-20.3,2.94-33.47,2.94ZM4373.76,1522.18c-9.75,0-17.39,3.09-22.92,9.27-5.53,6.18-8.7,14.95-9.5,26.31h64.53c-.2-11.36-3.17-20.13-8.9-26.31-5.73-6.18-13.47-9.27-23.22-9.27Z"/>
    <path class="cls-3" d="M4609.56,1661.19h-45.99v-98.46c0-12.16-2.16-21.28-6.48-27.37-4.32-6.08-11.21-9.12-20.66-9.12-12.87,0-22.16,4.3-27.89,12.89-5.73,8.59-8.59,22.84-8.59,42.74v79.31h-45.99v-168.56h35.13l6.18,21.56h2.56c5.13-8.14,12.19-14.3,21.18-18.47,8.99-4.17,19.22-6.26,30.68-6.26,19.6,0,34.48,5.3,44.63,15.91,10.15,10.61,15.23,25.91,15.23,45.91v109.91Z"/>
    <path class="cls-3" d="M4700.78,1664.2c-27.14,0-48.35-7.49-63.63-22.47-15.28-14.98-22.92-36.19-22.92-63.63s7.06-50.08,21.18-65.51c14.12-15.43,33.65-23.14,58.58-23.14s42.37,6.78,55.64,20.35c13.27,13.57,19.9,32.32,19.9,56.24v22.31h-108.71c.5,13.07,4.37,23.27,11.61,30.61,7.24,7.34,17.39,11.01,30.46,11.01,10.15,0,19.75-1.06,28.8-3.17,9.05-2.11,18.49-5.48,28.35-10.1v35.58c-8.04,4.02-16.64,7.01-25.78,8.97-9.15,1.96-20.3,2.94-33.47,2.94ZM4694.29,1522.18c-9.75,0-17.39,3.09-22.92,9.27-5.53,6.18-8.7,14.95-9.5,26.31h64.53c-.2-11.36-3.17-20.13-8.9-26.31-5.73-6.18-13.47-9.27-23.22-9.27Z"/>
    <path class="cls-3" d="M4868.58,1489.46c6.23,0,11.41.45,15.53,1.36l-3.47,43.12c-3.72-1-8.24-1.51-13.57-1.51-14.68,0-26.11,3.77-34.3,11.31-8.19,7.54-12.29,18.09-12.29,31.66v85.79h-45.99v-168.56h34.83l6.79,28.35h2.26c5.22-9.45,12.29-17.06,21.18-22.84,8.9-5.78,18.57-8.67,29.02-8.67Z"/>
    <path class="cls-3" d="M5029,1492.62v23.37l-26.39,6.78c4.83,7.54,7.24,15.98,7.24,25.33,0,18.09-6.31,32.19-18.92,42.29-12.62,10.1-30.13,15.15-52.54,15.15l-8.29-.45-6.79-.75c-4.73,3.62-7.09,7.64-7.09,12.06,0,6.63,8.44,9.95,25.33,9.95h28.65c18.49,0,32.59,3.97,42.29,11.91,9.7,7.94,14.55,19.6,14.55,34.98,0,19.7-8.22,34.98-24.65,45.83-16.43,10.86-40.03,16.28-70.79,16.28-23.52,0-41.49-4.1-53.9-12.29-12.42-8.19-18.62-19.68-18.62-34.45,0-10.15,3.17-18.65,9.5-25.48s15.63-11.71,27.89-14.62c-4.73-2.01-8.85-5.3-12.36-9.88-3.52-4.57-5.28-9.42-5.28-14.55,0-6.43,1.86-11.78,5.58-16.06,3.72-4.27,9.1-8.47,16.13-12.59-8.85-3.82-15.86-9.95-21.03-18.39-5.18-8.44-7.76-18.39-7.76-29.85,0-18.39,5.98-32.62,17.94-42.67,11.96-10.05,29.05-15.08,51.26-15.08,4.72,0,10.33.43,16.81,1.28,6.48.86,10.63,1.48,12.44,1.88h58.8ZM4898.88,1685.01c0,6.33,3.04,11.31,9.12,14.93,6.08,3.62,14.6,5.43,25.56,5.43,16.48,0,29.4-2.26,38.75-6.79,9.35-4.52,14.02-10.71,14.02-18.54,0-6.33-2.77-10.71-8.29-13.12-5.53-2.41-14.07-3.62-25.63-3.62h-23.82c-8.44,0-15.51,1.98-21.18,5.96-5.68,3.97-8.52,9.22-8.52,15.76ZM4915.61,1547.81c0,9.15,2.08,16.38,6.26,21.71,4.17,5.33,10.53,7.99,19.07,7.99s14.98-2.66,19-7.99c4.02-5.33,6.03-12.56,6.03-21.71,0-20.3-8.34-30.46-25.03-30.46s-25.33,10.15-25.33,30.46Z"/>
    <path class="cls-3" d="M5000.19,1492.62h50.36l31.81,94.84c2.71,8.24,4.57,17.99,5.58,29.25h.9c1.11-10.35,3.27-20.1,6.48-29.25l31.21-94.84h49.3l-71.32,190.12c-6.54,17.59-15.86,30.76-27.97,39.5-12.11,8.74-26.26,13.12-42.44,13.12-7.94,0-15.73-.86-23.37-2.56v-36.49c5.53,1.31,11.56,1.96,18.09,1.96,8.14,0,15.25-2.49,21.33-7.46,6.08-4.98,10.83-12.49,14.25-22.54l2.71-8.29-66.94-167.36Z"/>
  </g>
  <g class="cls-4">
    <path class="cls-2" d="M5095.82,745.66c0-12.83,3.21-24.86,9.65-36.12,6.44-11.26,15.26-20.08,26.47-26.59,11.26-6.47,23.34-9.72,36.32-9.72s24.86,3.21,36.12,9.65c11.26,6.44,20.08,15.26,26.59,26.47,6.47,11.26,9.72,23.34,9.72,36.32s-3.09,24.56-9.33,35.65c-6.24,11.1-14.98,20-26.2,26.67-11.22,6.66-23.53,10-36.9,10s-25.57-3.33-36.79-9.96c-11.22-6.63-20-15.53-26.23-26.64-6.27-11.1-9.38-23.02-9.38-35.73h-.04ZM5109.51,745.66c0,10.55,2.62,20.35,7.88,29.41,5.26,9.1,12.47,16.24,21.57,21.5,9.1,5.26,18.86,7.84,29.29,7.84s20.35-2.62,29.41-7.88c9.1-5.26,16.24-12.47,21.5-21.57,5.22-9.14,7.84-18.86,7.84-29.29s-2.62-20.35-7.88-29.41c-5.26-9.1-12.47-16.24-21.57-21.5-9.14-5.22-18.86-7.84-29.29-7.84s-20.35,2.62-29.41,7.88c-9.1,5.26-16.24,12.47-21.5,21.57-5.22,9.14-7.84,18.86-7.84,29.29ZM5197.64,728.87c0,10.9-4.58,18.39-13.76,22.43l22.82,38.55h-24.47l-17.14-32.55h-4.51v32.55h-22.04v-88.25h25.42c11.61,0,20.16,2.23,25.57,6.74,5.41,4.51,8.16,11.34,8.16,20.52h-.05ZM5160.54,741.11h2.98c4.24,0,7.25-.9,9.1-2.74,1.84-1.84,2.74-4.87,2.74-9.1s-.9-7.13-2.71-8.86c-1.81-1.72-4.9-2.59-9.33-2.59h-2.79v23.29h.01Z"/>
  </g>
  <g>
    <path class="cls-5" d="M1648.32,770.09c-37.92-89.65-92.19-170.17-161.31-239.28-69.12-69.12-149.62-123.39-239.28-161.31-92.86-39.28-191.46-59.19-293.07-59.19s-200.2,19.92-293.07,59.19c-89.65,37.92-170.17,92.19-239.28,161.31-69.12,69.11-123.39,149.62-161.31,239.28-39.28,92.86-59.19,191.46-59.19,293.07s19.92,200.2,59.19,293.07c37.92,89.65,92.19,170.17,161.31,239.28,69.11,69.12,149.62,123.39,239.28,161.31,92.86,39.28,191.46,59.19,293.07,59.19s200.2-19.92,293.07-59.19c89.65-37.92,170.17-92.19,239.28-161.31,69.11-69.12,123.39-149.62,161.31-239.28,39.28-92.86,59.19-191.46,59.19-293.07s-19.92-200.2-59.19-293.07ZM1246.22,1176.18l-.62,1.02c-44.97,70.1-93.93,136.22-140.14,197.24-41.1,56.4-82.99,115.12-123.5,171.91-41.95,58.81-85.33,119.62-127.84,177.84l-1.64,2.33c-2.1,3.01-4.49,6.41-7.4,9.72-6.22,6.98-13.27,10.82-21.05,11.54-.94.1-1.87.14-2.8.14-11.22,0-21.88-6.77-26.98-17.53-3.43-6.92-4.03-15.47-1.63-25.1.8-3.12,1.68-6.04,2.56-8.96.67-2.23,1.35-4.46,1.95-6.73,14.22-52.01,29.28-106.14,43.84-158.49,14.99-53.9,30.5-109.64,45.16-163.3l.86-3.18c.09-.34.19-.69.28-1.03-34.19-.09-68.7-.07-103.21-.04-22.36,0-44.71.02-67.06.01l-3.73.02c-4.03.03-8.2.07-12.76-.27-21.43-1.29-37.13-12.43-42.81-30.54l-1.9-6.06.3-.99c-1.34-10.01,1.26-20.31,7.6-29.67l.57-.88c2.35-3.63,4.78-7.38,7.74-11.29,49.88-65.99,129-157.77,133.89-163.43l37.57-46.48c1.2-1.42,121.09-143.3,178.78-223.01l2.4-3.29c4.36-5.98,8.87-12.17,14.22-18.02,3.18-3.4,10.21-10.9,20.94-12.55,14.6-2.34,29.13,7.36,33.16,22.18,2.57,9.55.37,17.78-1.08,23.22l-.36,1.34c-3.57,12.14-6.98,24.39-10.39,36.62-1.98,7.11-3.96,14.21-5.97,21.28-5.67,22.36-12.51,50-18.53,74.35l-3.48,14.04c-4.48,18.68-7.44,31.94-10.06,43.64-4.26,19.02-7.41,33.09-14.16,57.42,34.18.14,68.35.14,102.54.13,23.14,0,46.28,0,69.41.04h2.88c3.43,0,6.9,0,10.32.16,5.52.31,11.89,1.04,18.5,4.25,10.04,4.65,17.7,14.76,20.15,26.88,2.23,10.75.11,21.73-6.51,33.48ZM1452,1421.43l-1-284.94c-.15-43.94-18.7-85.81-51.15-115.44l-403.6-368.67c-23.86-21.79-60.4-21.79-84.26,0l-403.5,368.58c-32.5,29.69-51.06,71.66-51.15,115.68l-.57,284.02c-72.38-100.63-115.03-224.07-115.03-357.49,0-338.51,274.42-612.93,612.93-612.93s612.93,274.42,612.93,612.93c0,133.77-42.88,257.5-115.6,358.27Z"/>
    <path class="cls-1" d="M677.61,1326.62c3.69,11.76,14.6,15.5,24.58,16.1,5.03.36,9.94.18,14.99.19,59.31.04,118.64-.13,177.95.06,2.27.05,4.7.18,6.91.48,7.88,1.02,9.75,4.36,8.28,13.15-.95,5.64-2.6,11.2-4.08,16.69-28.96,105.97-60.25,216.66-88.94,321.55-1.36,5.2-3.1,10.21-4.45,15.48-.91,3.64-1.41,7.88.25,11.21,1.75,3.69,5.52,6.03,9.19,5.66,2.8-.26,5.23-2.15,7.42-4.6,2.86-3.25,5.31-7.04,7.86-10.59,83.39-114.2,167.25-234.37,251.55-350.05,48.18-63.62,95.68-128.06,139.22-195.92,3.35-5.96,5.67-12.44,4.26-19.23-1.11-5.48-4.42-10.29-8.91-12.37-3.26-1.58-6.79-2-10.45-2.2-4.07-.2-8.18-.13-12.25-.14-59.28-.11-118.55.08-177.83-.19-3.42-.11-6.94-.37-10.12-1.25-9.29-2.24-7.24-11.62-5.29-20.01,11.98-42.54,13.05-53.65,25.46-105.45,6.77-27.34,15.29-61.92,22.11-88.79,5.5-19.39,10.81-39,16.49-58.36,1.14-4.31,2.53-8.88,1.34-13.31-1.25-4.61-5.73-7.88-9.98-7.16-3.32.48-6.32,3.33-8.89,6.07-5.44,5.95-10.16,12.72-15.13,19.48-58.83,81.28-179.74,224.24-179.74,224.24l-37.49,46.38s-81.85,94.63-133.26,162.63c-2.81,3.72-5.2,7.49-7.68,11.3-3.66,5.41-5.71,11.97-3.4,18.81l.03.08v.02Z"/>
  </g>
</svg>