<?xml version="1.0" standalone="no"?>
<!DOCTYPE svg PUBLIC "-//W3C//DTD SVG 1.1//EN" "http://www.w3.org/Graphics/SVG/1.1/DTD/svg11.dtd">
<!--Generator: Xara Designer (www.xara.com), SVG filter version: 6.7.0.0-->
<svg fill="none" fill-rule="evenodd" stroke="black" stroke-width="0.501" stroke-linejoin="bevel" stroke-miterlimit="10" font-family="Times New Roman" font-size="16" style="font-variant-ligatures:none" xmlns:xlink="http://www.w3.org/1999/xlink" xmlns="http://www.w3.org/2000/svg" version="1.1" overflow="visible" width="651.97pt" height="226.772pt" viewBox="0 -226.772 651.97 226.772">
 <defs>
  <linearGradient id="LinearGradient" gradientUnits="userSpaceOnUse" x1="0" y1="0" x2="-124.689" y2="-156.461" gradientTransform="translate(185.128 187.056)">
   <stop offset="0" stop-color="#3be9f3"/>
   <stop offset="7.00000077486038E-02" stop-color="#20d8ef"/>
   <stop offset="0.129999995231628" stop-color="#0fcded"/>
   <stop offset="0.170000016689301" stop-color="#0acaed"/>
   <stop offset="0.300000011920929" stop-color="#06b4e7"/>
   <stop offset="0.540000021457672" stop-color="#0192e0"/>
   <stop offset="0.670000016689301" stop-color="#0086dd"/>
   <stop offset="1" stop-color="#0086dd"/>
  </linearGradient>
  <linearGradient id="LinearGradient_1" gradientUnits="userSpaceOnUse" x1="0" y1="0" x2="-128.098" y2="-155.148" gradientTransform="translate(161.234 207.675)">
   <stop offset="0" stop-color="#3be9f3"/>
   <stop offset="7.00000077486038E-02" stop-color="#20d8ef"/>
   <stop offset="0.129999995231628" stop-color="#0fcded"/>
   <stop offset="0.170000016689301" stop-color="#0acaed"/>
   <stop offset="0.300000011920929" stop-color="#06b4e7"/>
   <stop offset="0.540000021457672" stop-color="#0192e0"/>
   <stop offset="0.670000016689301" stop-color="#0086dd"/>
   <stop offset="1" stop-color="#0086dd"/>
  </linearGradient>
  <linearGradient id="LinearGradient_2" gradientUnits="userSpaceOnUse" x1="0" y1="0" x2="-128.058" y2="-157.679" gradientTransform="translate(175.778 196.336)">
   <stop offset="0" stop-color="#3be9f3"/>
   <stop offset="7.00000077486038E-02" stop-color="#20d8ef"/>
   <stop offset="0.129999995231628" stop-color="#0fcded"/>
   <stop offset="0.170000016689301" stop-color="#0acaed"/>
   <stop offset="0.300000011920929" stop-color="#06b4e7"/>
   <stop offset="0.540000021457672" stop-color="#0192e0"/>
   <stop offset="0.670000016689301" stop-color="#0086dd"/>
   <stop offset="1" stop-color="#0086dd"/>
  </linearGradient>
  <linearGradient id="LinearGradient_3" gradientUnits="userSpaceOnUse" x1="0" y1="0" x2="-48.27" y2="-170.226" gradientTransform="translate(175.08 189.085)">
   <stop offset="0" stop-color="#f8990d"/>
   <stop offset="1" stop-color="#fcd91f"/>
  </linearGradient>
 </defs>
 <g id="Layer 1" transform="scale(1 -1)">
  <g id="Group" fill-rule="nonzero" stroke-linejoin="round" stroke-linecap="round" stroke="none" stroke-width="2.365" fill="#000000">
   <g id="Group_1">
    <path d="M 261.07,113.345 C 258.39,116.318 257.051,120.886 257.051,127.046 L 257.051,148.625 L 250.72,148.625 L 250.72,155.972 L 258.76,161.655 L 263.427,172.654 L 275.256,172.654 L 275.256,162.164 L 288.102,162.164 L 288.102,148.625 L 275.256,148.625 L 275.256,128.247 C 275.257,124.859 276.89,123.165 280.154,123.165 C 282.587,123.165 285.499,123.765 288.887,124.967 L 288.887,111.798 C 286.454,110.751 284.136,110.004 281.933,109.557 C 279.73,109.11 277.15,108.887 274.194,108.887 C 268.124,108.887 263.75,110.372 261.07,113.345 Z" marker-start="none" marker-end="none"/>
    <path d="M 298.036,109.811 L 298.036,162.164 L 311.483,162.164 L 314.301,153.801 L 315.179,153.801 C 316.689,156.573 318.791,158.814 321.486,160.524 C 324.181,162.232 326.9,163.088 329.642,163.088 C 331.214,163.088 332.707,162.964 334.124,162.719 L 335.141,162.533 L 333.523,145.484 C 332.045,145.853 329.996,146.038 327.377,146.038 C 323.434,146.038 320.57,145.137 318.783,143.335 C 316.997,141.533 316.103,138.937 316.103,135.548 L 316.103,109.811 L 298.036,109.811 Z" marker-start="none" marker-end="none"/>
    <path d="M 342.533,109.811 L 342.533,162.164 L 360.601,162.164 L 360.601,109.811 L 342.533,109.811 Z M 342.072,175.194 C 342.072,177.906 342.827,179.923 344.336,181.248 C 345.845,182.572 348.278,183.234 351.636,183.234 C 354.994,183.234 357.443,182.556 358.983,181.201 C 360.524,179.846 361.294,177.844 361.294,175.194 C 361.294,169.896 358.075,167.246 351.636,167.246 C 345.26,167.246 342.072,169.896 342.072,175.194 Z" marker-start="none" marker-end="none"/>
    <path d="M 377.581,115.817 C 373.161,120.439 370.952,127.077 370.95,135.734 C 370.952,144.42 373.338,151.151 378.113,155.926 C 382.887,160.7 389.68,163.088 398.491,163.088 C 404.559,163.088 410.274,161.763 415.634,159.115 L 410.32,145.761 C 408.132,146.715 406.114,147.477 404.266,148.048 C 402.418,148.617 400.493,148.902 398.491,148.902 C 395.564,148.902 393.301,147.763 391.699,145.484 C 390.096,143.203 389.295,139.984 389.295,135.826 C 389.295,127.447 392.391,123.257 398.583,123.257 C 403.883,123.257 408.965,124.797 413.831,127.878 L 413.831,113.508 C 409.181,110.427 403.589,108.887 397.058,108.887 C 388.494,108.887 382.001,111.196 377.581,115.817 Z" marker-start="none" marker-end="none"/>
    <path d="M 429.012,116.234 C 424.314,121.131 421.966,127.754 421.964,136.103 C 421.966,144.636 424.268,151.267 428.872,155.996 C 433.478,160.723 439.939,163.088 448.256,163.088 C 453.402,163.088 457.946,161.994 461.888,159.807 C 465.832,157.62 468.873,154.485 471.014,150.404 C 473.154,146.322 474.225,141.555 474.225,136.103 C 474.225,127.539 471.923,120.862 467.317,116.072 C 462.713,111.282 456.266,108.887 447.979,108.887 C 440.031,108.887 433.709,111.335 429.012,116.234 Z M 454.103,125.822 C 455.257,128.179 455.835,131.605 455.835,136.103 C 455.835,140.569 455.249,143.942 454.079,146.222 C 452.908,148.501 450.906,149.642 448.072,149.642 C 445.299,149.642 443.312,148.509 442.112,146.246 C 440.909,143.981 440.309,140.601 440.309,136.103 C 440.309,131.605 440.909,128.179 442.112,125.822 C 443.312,123.466 445.329,122.287 448.164,122.287 C 450.968,122.287 452.947,123.466 454.103,125.822 Z" marker-start="none" marker-end="none"/>
    <path d="M 484.53,109.811 L 484.53,162.164 L 498.161,162.164 L 500.426,155.695 L 501.488,155.695 C 502.874,158.099 504.884,159.931 507.518,161.194 C 510.152,162.456 513.147,163.088 516.505,163.088 C 524.052,163.088 529.352,160.793 532.401,156.203 L 533.834,156.203 C 535.312,158.36 537.368,160.046 540.002,161.262 C 542.636,162.479 545.539,163.088 548.712,163.088 C 554.904,163.088 559.479,161.501 562.436,158.329 C 565.394,155.156 566.872,150.335 566.872,143.866 L 566.872,109.811 L 548.804,109.811 L 548.804,138.274 C 548.805,141.818 548.32,144.474 547.349,146.246 C 546.379,148.016 544.847,148.902 542.752,148.902 C 539.98,148.902 537.946,147.717 536.652,145.344 C 535.358,142.973 534.712,139.261 534.712,134.209 L 534.712,109.811 L 516.599,109.811 L 516.599,138.274 C 516.599,141.818 516.136,144.474 515.212,146.246 C 514.287,148.016 512.794,148.902 510.73,148.902 C 507.896,148.902 505.832,147.639 504.538,145.113 C 503.244,142.587 502.597,138.46 502.597,132.73 L 502.597,109.811 L 484.53,109.811 Z" marker-start="none" marker-end="none"/>
    <path d="M 580.596,113.323 C 577.761,116.28 576.344,120.439 576.345,125.799 C 576.344,131.375 578.285,135.526 582.166,138.252 C 586.049,140.978 591.67,142.51 599.032,142.85 L 607.766,143.127 L 607.766,143.866 C 607.766,148.179 605.64,150.335 601.389,150.335 C 597.569,150.335 592.716,149.041 586.833,146.453 L 581.612,158.375 C 587.711,161.516 595.413,163.088 604.716,163.088 C 611.431,163.088 616.63,161.424 620.311,158.097 C 623.993,154.771 625.833,150.119 625.833,144.143 L 625.833,109.811 L 613.311,109.811 L 609.845,116.741 L 609.476,116.741 C 607.043,113.724 604.563,111.66 602.035,110.551 C 599.51,109.442 596.244,108.887 592.239,108.887 C 587.311,108.887 583.429,110.365 580.596,113.323 Z M 605.525,123.719 C 607.081,125.105 607.858,126.907 607.858,129.125 L 607.858,133.192 L 603.699,133.006 C 597.754,132.792 594.781,130.605 594.781,126.445 C 594.781,123.242 596.491,121.64 599.91,121.64 C 602.098,121.64 603.97,122.333 605.525,123.719 Z" marker-start="none" marker-end="none"/>
   </g>
  </g>
  <g id="Group_2" fill-rule="nonzero" stroke-linejoin="round" stroke-linecap="round" stroke="none" stroke-width="0.521" fill="#000000">
   <g id="Group_3">
    <path d="M 629.602,159.466 C 628.413,160.169 627.488,161.108 626.826,162.283 C 626.164,163.457 625.833,164.716 625.833,166.061 C 625.833,167.419 626.172,168.692 626.851,169.88 C 627.531,171.069 628.464,172.005 629.653,172.692 C 630.84,173.377 632.12,173.72 633.493,173.72 C 634.829,173.72 636.086,173.391 637.261,172.732 C 638.435,172.073 639.376,171.15 640.082,169.962 C 640.788,168.773 641.141,167.473 641.141,166.061 C 641.141,164.676 640.8,163.398 640.118,162.226 C 639.435,161.055 638.508,160.127 637.337,159.441 C 636.166,158.755 634.884,158.412 633.493,158.412 C 632.087,158.412 630.789,158.763 629.602,159.466 Z M 636.487,160.872 C 636.942,161.134 637.35,161.445 637.711,161.804 L 634.745,161.804 L 633.257,165.063 L 632.901,165.063 L 632.901,161.804 L 630.049,161.804 L 630.049,170.716 L 633.013,170.716 C 635.777,170.716 637.159,169.799 637.159,167.965 C 637.159,167.375 637.047,166.877 636.823,166.473 C 636.598,166.07 636.232,165.746 635.722,165.501 L 637.601,161.986 L 637.703,161.795 C 638.077,162.166 638.401,162.588 638.676,163.062 C 639.213,163.989 639.481,164.988 639.481,166.061 C 639.481,167.127 639.217,168.122 638.691,169.045 C 638.165,169.969 637.439,170.7 636.512,171.24 C 635.585,171.779 634.578,172.05 633.493,172.05 C 632.419,172.05 631.419,171.783 630.492,171.25 C 629.565,170.717 628.836,169.988 628.303,169.061 C 627.77,168.134 627.503,167.134 627.503,166.061 C 627.503,164.988 627.774,163.985 628.313,163.052 C 628.854,162.118 629.585,161.388 630.508,160.862 C 631.431,160.336 632.426,160.072 633.493,160.072 C 634.565,160.072 635.563,160.339 636.487,160.872 Z M 637.699,161.804 L 637.703,161.795 C 637.705,161.798 637.708,161.801 637.711,161.804 L 637.699,161.804 Z M 633.945,167.074 C 634.172,167.22 634.286,167.48 634.286,167.854 C 634.286,168.173 634.193,168.398 634.007,168.531 C 633.819,168.663 633.495,168.73 633.034,168.73 L 632.901,168.73 L 632.901,166.855 L 633.013,166.855 C 633.407,166.855 633.718,166.928 633.945,167.074 Z" marker-start="none" marker-end="none"/>
   </g>
  </g>
  <g id="Group_4" fill="#f9a00f" fill-rule="nonzero" stroke-linejoin="round" stroke-linecap="round" stroke="none" stroke-width="1.45">
   <g id="Group_5">
    <path d="M 425.067,70.041 C 422.115,72.88 420.638,76.923 420.637,82.17 C 420.638,87.586 422.006,91.742 424.742,94.639 C 427.48,97.535 431.386,98.984 436.462,98.984 C 441.293,98.984 445.023,97.724 447.656,95.205 C 450.289,92.685 451.606,89.058 451.606,84.321 L 451.606,79.395 L 431.819,79.395 C 431.894,77.602 432.55,76.196 433.787,75.179 C 435.023,74.158 436.707,73.649 438.839,73.649 C 440.783,73.649 442.571,73.833 444.203,74.201 C 445.836,74.57 447.605,75.197 449.511,76.085 L 449.511,68.13 C 447.775,67.243 445.982,66.63 444.132,66.29 C 442.283,65.95 440.076,65.78 437.509,65.78 C 432.169,65.78 428.022,67.2 425.067,70.041 Z M 440.241,90.068 C 439.401,90.992 438.273,91.454 436.857,91.454 C 435.556,91.454 434.465,91.044 433.588,90.223 C 432.71,89.402 432.196,88.115 432.046,86.359 L 441.557,86.359 C 441.519,87.907 441.079,89.142 440.241,90.068 Z" marker-start="none" marker-end="none"/>
    <path d="M 457.862,66.346 L 457.862,98.418 L 466.212,98.418 L 467.599,94.455 L 468.25,94.455 C 469.195,95.964 470.502,97.096 472.171,97.852 C 473.841,98.607 475.761,98.984 477.931,98.984 C 481.48,98.984 484.239,97.955 486.211,95.898 C 488.183,93.842 489.169,90.945 489.169,87.209 L 489.169,66.346 L 478.102,66.346 L 478.102,83.84 C 478.102,85.972 477.795,87.581 477.181,88.667 C 476.568,89.751 475.58,90.293 474.223,90.293 C 472.355,90.293 471.006,89.548 470.175,88.058 C 469.345,86.567 468.929,84.01 468.929,80.387 L 468.929,66.346 L 457.862,66.346 Z" marker-start="none" marker-end="none"/>
    <path d="M 499.74,70.041 C 496.787,72.88 495.311,76.923 495.31,82.17 C 495.311,87.586 496.678,91.742 499.415,94.639 C 502.152,97.535 506.059,98.984 511.135,98.984 C 515.966,98.984 519.696,97.724 522.329,95.205 C 524.962,92.685 526.278,89.058 526.278,84.321 L 526.278,79.395 L 506.491,79.395 C 506.567,77.602 507.223,76.196 508.459,75.179 C 509.696,74.158 511.38,73.649 513.512,73.649 C 515.456,73.649 517.243,73.833 518.875,74.201 C 520.508,74.57 522.278,75.197 524.184,76.085 L 524.184,68.13 C 522.447,67.243 520.654,66.63 518.805,66.29 C 516.956,65.95 514.748,65.78 512.181,65.78 C 506.841,65.78 502.695,67.2 499.74,70.041 Z M 514.913,90.068 C 514.073,90.992 512.946,91.454 511.53,91.454 C 510.229,91.454 509.138,91.044 508.261,90.223 C 507.382,89.402 506.869,88.115 506.719,86.359 L 516.23,86.359 C 516.191,87.907 515.752,89.142 514.913,90.068 Z" marker-start="none" marker-end="none"/>
    <path d="M 532.534,66.346 L 532.534,98.418 L 540.772,98.418 L 542.499,93.294 L 543.036,93.294 C 543.961,94.993 545.249,96.366 546.9,97.413 C 548.551,98.459 550.217,98.984 551.896,98.984 C 552.86,98.984 553.774,98.908 554.642,98.758 L 555.266,98.644 L 554.274,88.2 C 553.368,88.426 552.112,88.539 550.509,88.539 C 548.094,88.539 546.339,87.987 545.243,86.884 C 544.15,85.779 543.602,84.189 543.602,82.114 L 543.602,66.346 L 532.534,66.346 Z" marker-start="none" marker-end="none"/>
    <path d="M 559.61,54.698 C 557.148,56.218 555.916,58.402 555.916,61.251 C 555.916,65.082 558.294,67.554 563.049,68.668 C 562.068,69.084 561.213,69.753 560.487,70.677 C 559.76,71.601 559.398,72.517 559.397,73.423 C 559.398,74.424 559.672,75.305 560.219,76.07 C 560.766,76.834 561.907,77.744 563.644,78.802 C 561.983,79.537 560.676,80.688 559.723,82.255 C 558.77,83.821 558.294,85.727 558.294,87.973 C 558.294,91.464 559.482,94.171 561.86,96.096 C 564.237,98.021 567.634,98.984 572.051,98.984 C 572.636,98.984 573.645,98.918 575.079,98.786 C 576.514,98.654 577.57,98.531 578.249,98.418 L 589.43,98.418 L 589.43,93.068 L 585.043,91.454 C 585.648,90.361 585.949,89.087 585.949,87.633 C 585.949,84.181 584.736,81.499 582.311,79.594 C 579.887,77.688 576.269,76.736 571.456,76.735 C 570.267,76.736 569.323,76.811 568.624,76.962 C 568.361,76.472 568.229,76.009 568.229,75.574 C 568.229,75.027 568.673,74.607 569.559,74.314 C 570.446,74.022 571.607,73.876 573.042,73.876 L 578.363,73.876 C 585.553,73.876 589.147,70.846 589.148,64.789 C 589.147,60.882 587.482,57.844 584.151,55.674 C 580.821,53.505 576.146,52.42 570.125,52.42 C 565.577,52.42 562.072,53.179 559.61,54.698 Z M 577.103,60.331 C 578.717,61.002 579.524,61.865 579.523,62.921 C 579.524,63.771 579.032,64.37 578.052,64.719 C 577.07,65.068 575.664,65.242 573.834,65.242 L 569.503,65.242 C 568.313,65.242 567.308,64.964 566.489,64.407 C 565.666,63.851 565.258,63.167 565.258,62.356 C 565.258,61.449 565.748,60.717 566.728,60.16 C 567.71,59.604 569.022,59.326 570.664,59.326 C 573.344,59.326 575.49,59.661 577.103,60.331 Z M 574.612,84.208 C 575.188,85.021 575.475,86.237 575.475,87.86 C 575.475,91.182 574.371,92.842 572.163,92.841 C 569.88,92.842 568.739,91.201 568.739,87.917 C 568.739,84.632 569.88,82.991 572.163,82.991 C 573.22,82.991 574.036,83.397 574.612,84.208 Z" marker-start="none" marker-end="none"/>
    <path d="M 593.366,52.901 L 593.366,61.591 C 594.366,61.364 595.507,61.251 596.791,61.251 C 597.771,61.251 598.631,61.44 599.366,61.817 C 600.103,62.194 600.744,62.727 601.291,63.416 C 601.839,64.106 602.424,65.234 603.047,66.799 L 590.422,98.418 L 602.084,98.418 L 607.52,80.018 C 607.784,79.057 607.963,77.896 608.057,76.537 L 608.282,76.537 C 608.434,77.839 608.661,78.981 608.963,79.961 L 614.54,98.418 L 625.833,98.418 L 613.152,64.308 C 611.53,59.968 609.533,56.902 607.166,55.108 C 604.797,53.316 601.707,52.42 597.895,52.42 C 596.423,52.42 594.913,52.58 593.366,52.901 Z" marker-start="none" marker-end="none"/>
   </g>
  </g>
  <g id="Group_6" fill-rule="nonzero" stroke-linejoin="miter" stroke="none" stroke-width="0.127">
   <g id="Group_7">
    <g id="Group_8">
     <path d="M 107.849,111.624 C 107.849,121.099 115.54,128.79 125.015,128.79 C 134.49,128.79 142.181,121.099 142.181,111.624 C 142.181,102.149 134.49,94.458 125.015,94.458 C 115.54,94.458 107.849,102.149 107.849,111.624 Z" marker-start="none" marker-end="none" fill="url(#LinearGradient)"/>
     <path d="M 78.902,50.091 C 67.459,51.313 57.097,55.126 47.886,61.554 C 33.996,76.906 25.534,97.266 25.534,119.6 C 25.534,134.329 29.215,148.197 35.703,160.337 C 38.005,162.139 40.713,163.316 43.604,164.171 C 46.012,164.882 48.471,165.21 50.992,165.206 C 62.675,165.181 74.358,165.195 86.041,165.195 C 98.042,165.196 110.044,165.344 122.041,165.14 C 129.134,165.021 135.22,162.3 139.567,156.442 C 146.153,147.57 150.291,137.662 151.971,126.728 C 152.785,121.415 152.988,116.077 152.484,110.74 C 151.126,96.36 145.738,83.657 136.252,72.753 C 127.403,62.58 116.431,55.699 103.443,52.089 L 103.443,52.087 C 95.402,49.853 87.206,49.205 78.902,50.091 Z M 81.872,75.376 C 81.872,84.065 74.928,91.052 66.301,91.047 C 57.68,91.042 50.705,84.101 50.695,75.517 C 50.684,66.787 57.618,59.854 66.352,59.857 C 74.892,59.861 81.872,66.839 81.872,75.376 Z M 120.969,75.401 C 120.985,84.034 113.98,91.054 105.356,91.046 C 96.741,91.039 89.783,84.093 89.775,75.49 C 89.768,66.807 96.687,59.869 105.369,59.858 L 105.369,59.857 C 113.958,59.847 120.953,66.816 120.969,75.401 Z M 62.549,110.865 C 62.558,119.75 55.447,126.935 46.642,126.93 C 37.86,126.926 30.672,119.771 30.642,111.002 C 30.614,102.155 37.754,94.982 46.599,94.975 C 55.422,94.967 62.54,102.057 62.549,110.865 Z M 140.975,110.773 C 141.011,119.651 133.903,126.903 125.139,126.935 C 116.297,126.965 109.101,119.837 109.054,111.004 C 109.006,102.173 116.14,95.003 124.997,94.977 C 133.753,94.952 140.939,102.056 140.975,110.773 Z M 101.793,111.666 C 101.756,120.397 94.581,127.595 85.9,127.606 C 77.076,127.617 69.832,120.42 69.837,111.64 C 69.841,102.789 76.99,95.64 85.834,95.643 C 94.659,95.648 101.83,102.847 101.793,111.666 Z M 116.796,140.147 C 116.747,146.401 111.566,151.459 105.252,151.416 C 98.981,151.375 93.877,146.211 93.907,139.937 C 93.936,133.614 99.109,128.487 105.409,128.536 C 111.811,128.585 116.847,133.721 116.796,140.147 Z M 77.704,140.414 C 77.797,146.788 72.776,152.009 66.481,152.084 C 60.23,152.16 54.964,147.183 54.862,141.105 C 54.751,134.449 59.669,129.298 66.22,129.206 C 72.425,129.119 77.615,134.185 77.704,140.414 Z" marker-start="none" marker-end="none" fill="url(#LinearGradient_1)"/>
    </g>
    <path d="M 71.881,22.941 C 59.634,28.121 48.635,35.535 39.193,44.978 C 29.75,54.42 22.336,65.419 17.155,77.666 C 11.79,90.352 9.069,103.823 9.069,117.703 C 9.069,131.583 11.789,145.053 17.155,157.739 C 22.336,169.987 29.75,180.985 39.193,190.427 C 48.635,199.87 59.634,207.284 71.881,212.464 C 84.567,217.83 98.036,220.55 111.917,220.55 C 125.798,220.55 139.268,217.831 151.953,212.464 C 164.202,207.284 175.199,199.87 184.642,190.427 C 194.085,180.985 201.499,169.987 206.679,157.739 C 212.044,145.053 214.765,131.583 214.765,117.703 C 214.765,103.823 212.045,90.352 206.679,77.666 C 201.499,65.419 194.084,54.421 184.642,44.978 C 175.2,35.535 164.202,28.121 151.953,22.941 C 139.268,17.575 125.798,14.855 111.917,14.855 C 98.036,14.855 84.567,17.574 71.881,22.941 Z M 195.651,117.703 C 195.651,163.948 158.162,201.436 111.917,201.436 C 65.672,201.436 28.184,163.948 28.184,117.703 C 28.184,71.457 65.672,33.969 111.917,33.969 C 158.162,33.969 195.651,71.457 195.651,117.703 Z" marker-start="none" marker-end="none" fill="url(#LinearGradient_2)"/>
    <path d="M 128.314,26.751 C 128.014,27.358 128.104,28.129 128.27,28.791 C 128.515,29.751 128.833,30.662 129.08,31.608 C 134.301,50.699 139.996,70.843 145.267,90.129 C 145.534,91.13 145.837,92.141 146.008,93.167 C 146.276,94.767 145.936,95.376 144.501,95.561 C 144.099,95.616 143.656,95.64 143.243,95.649 C 132.448,95.684 121.651,95.651 110.857,95.659 C 109.938,95.66 109.043,95.627 108.129,95.693 C 106.313,95.803 104.327,96.483 103.655,98.623 L 103.657,98.627 L 103.652,98.643 C 103.231,99.888 103.605,101.082 104.272,102.066 C 104.722,102.759 105.158,103.446 105.669,104.122 C 115.025,116.499 129.921,133.72 129.921,133.72 L 136.744,142.162 C 136.744,142.162 158.749,168.18 169.455,182.973 C 170.36,184.204 171.219,185.435 172.209,186.518 C 172.677,187.017 173.223,187.536 173.826,187.623 C 174.599,187.753 175.414,187.157 175.642,186.319 C 175.859,185.512 175.606,184.681 175.399,183.896 C 174.366,180.374 173.399,176.804 172.397,173.275 C 171.158,168.386 169.607,162.094 168.375,157.117 C 166.116,147.691 165.922,145.668 163.742,137.926 C 163.386,136.399 163.012,134.692 164.703,134.284 C 165.282,134.126 165.923,134.078 166.545,134.057 C 177.333,134.009 188.119,134.042 198.908,134.023 C 199.649,134.02 200.397,134.033 201.136,133.997 C 201.803,133.96 202.447,133.885 203.039,133.597 C 203.856,133.219 204.46,132.343 204.661,131.347 C 204.916,130.111 204.494,128.932 203.884,127.848 C 195.96,115.496 187.317,103.771 178.548,92.191 C 163.205,71.139 147.943,49.269 132.767,28.485 C 132.303,27.839 131.856,27.15 131.336,26.559 C 130.938,26.113 130.495,25.768 129.987,25.721 C 129.319,25.654 128.633,26.079 128.314,26.751 Z" marker-start="none" marker-end="none" fill="url(#LinearGradient_3)"/>
   </g>
  </g>
 </g>
</svg>
