<?xml version="1.0" encoding="UTF-8"?>
<svg id="Ebene_1" xmlns="http://www.w3.org/2000/svg" viewBox="0 0 800 800">
  <defs>
    <style>
      .cls-1 {
        fill: #fa9c00;
      }

      .cls-2 {
        fill: #314b61;
      }
    </style>
  </defs>
  <rect class="cls-2" x="278" y="232" width="59" height="59" rx="12.59" ry="12.59"/>
  <rect class="cls-2" x="360" y="232" width="59" height="59" rx="12.59" ry="12.59"/>
  <rect class="cls-2" x="441" y="232" width="59" height="59" rx="12.59" ry="12.59"/>
  <rect class="cls-2" x="278" y="312" width="59" height="59" rx="12.59" ry="12.59"/>
  <rect class="cls-2" x="360" y="312" width="59" height="59" rx="12.59" ry="12.59"/>
  <rect class="cls-2" x="441" y="312" width="59" height="59" rx="12.59" ry="12.59"/>
  <rect class="cls-2" x="278" y="392" width="59" height="59" rx="12.59" ry="12.59"/>
  <path class="cls-2" d="M534.55,576.89c0,6.56-.82,7.38-7.37,7.38-88.33,0-176.66,0-264.98,0-5.92,0-6.8-.9-6.8-6.96,0-60.41,0-120.81,0-181.22s0-120.26,0-180.39c0-6.39.92-7.22,7.47-7.22,88.05.01,176.1.01,264.16,0,6.72,0,7.54.77,7.54,7.63,0,58.96,0,117.92,0,176.88h22.26c0-71.4.06-142.79-.04-214.19-.04-24.92-19.66-41.09-41.49-41.25-80.3-.58-160.6-.23-240.9-.25-6.63,0-12.86,1.69-18.5,4.94-14.93,8.59-22.87,21.69-22.89,38.91-.1,154.24-.06,308.48-.06,462.73,0,22.74,19.79,42.29,42.66,42.29,79.61-.01,159.22-.04,238.83.08,7.92.01,15.08-2.61,21.5-6.3,13.74-7.89,20.81-20.32,20.82-36.33.01-23.87.01-47.74.02-71.61h-22.22v4.89ZM359.29,172.25c23.46-.03,46.91-.03,70.37,0,3.98,0,5.7,1.69,5.74,5.29.04,3.78-1.47,5.26-5.61,5.27-11.87.03-23.73.01-35.6.01-11.59,0-23.18,0-34.77-.01-4.18,0-6.16-1.77-6.15-5.4.01-3.32,2.04-5.17,6.02-5.17ZM395.37,660.03c-14.63.59-26.98-12.89-27.11-25.63-.16-15.32,11.59-28.51,26.44-27.98,14.92.54,25.86,9.49,26.67,26.39.33,14.39-11.5,26.62-26,27.21Z"/>
  <g>
    <path class="cls-1" d="M496.47,461.8c-3.58-.04-6.6,2.81-6.66,6.29-.06,3.81,2.75,6.76,6.51,6.82,3.56.05,6.53-2.85,6.58-6.42.05-3.65-2.82-6.64-6.43-6.69Z"/>
    <path class="cls-1" d="M518.77,475.29c3.67-.03,6.55-2.97,6.52-6.65-.03-3.58-3-6.48-6.61-6.46-3.59.02-6.52,2.98-6.5,6.58.02,3.62,2.98,6.56,6.59,6.53Z"/>
    <path class="cls-1" d="M507.56,494.14c5.06,0,9.17-4.13,9.14-9.18-.02-5-4.13-9.13-9.11-9.13-5.06,0-9.21,4.12-9.2,9.15,0,5.07,4.1,9.17,9.17,9.17Z"/>
    <path class="cls-1" d="M487.59,454.28c6.69.01,13.39,0,20.08,0,6.88,0,13.75-.08,20.63.03,4.06.07,7.55,1.63,10.04,4.98.84,1.13,1.61,2.3,2.31,3.49,3.85-4.64,9.7-11.8,13.7-17.17-8.47-7.53-19.63-12.1-31.85-12.1-16.78,0-31.55,8.62-40.12,21.67.32-.11.65-.22.98-.32,1.38-.41,2.79-.6,4.23-.59Z"/>
    <path class="cls-1" d="M518.75,514.64c4.92,0,8.93-3.99,8.94-8.91,0-4.95-4-8.97-8.95-8.96-4.94,0-8.92,3.98-8.93,8.91,0,4.98,3.96,8.95,8.93,8.96Z"/>
    <path class="cls-1" d="M494.21,485.42c0-5.09-4.07-9.21-9.11-9.21-5.03,0-9.15,4.1-9.17,9.13-.02,5.07,4.07,9.18,9.14,9.18,5.06,0,9.13-4.06,9.14-9.1Z"/>
    <path class="cls-1" d="M538.78,526.64c18.11-6.53,31.17-23.65,31.68-43.89-3.16,4.55-6.46,8.98-9.78,13.37-7.33,10.06-14.63,20.44-21.9,30.52Z"/>
    <path class="cls-1" d="M568.08,402h-91.16c-18.73,0-33.92,15.19-33.92,33.92v91.16c0,18.73,15.19,33.92,33.92,33.92h91.16c18.73,0,33.92-15.19,33.92-33.92v-91.16c0-18.73-15.19-33.92-33.92-33.92ZM576.79,504.44c-2.97,7.02-7.22,13.32-12.63,18.73s-11.71,9.66-18.73,12.63c-7.27,3.07-14.99,4.63-22.94,4.63s-15.67-1.56-22.94-4.63c-7.02-2.97-13.32-7.22-18.73-12.63-5.41-5.41-9.66-11.71-12.63-18.73-3.07-7.27-4.63-14.99-4.63-22.94s1.56-15.67,4.63-22.94c2.97-7.02,7.22-13.32,12.63-18.73,5.41-5.41,11.71-9.66,18.73-12.63,7.27-3.07,14.99-4.63,22.94-4.63s15.67,1.56,22.94,4.63c7.02,2.97,13.32,7.22,18.73,12.63s9.66,11.71,12.63,18.73c3.07,7.27,4.63,14.99,4.63,22.94s-1.56,15.67-4.63,22.94Z"/>
    <path class="cls-1" d="M552.74,472c.33.09.7.12,1.06.13,5.25.02,10.51.02,15.76.02-1.78-9-6.07-17.09-12.12-23.52-.1.34-.19.69-.29,1.03-.71,2.8-1.6,6.41-2.31,9.26-1.29,5.4-1.41,6.56-2.65,11-.2.88-.42,1.85.55,2.09Z"/>
    <path class="cls-1" d="M536.44,507.25c-5.07,5.83-11.36,9.77-18.8,11.84-4.61,1.28-9.3,1.65-14.06,1.14-5.44-.58-10.45-2.19-15.01-4.82,8.68,8.68,20.68,14.05,33.93,14.05,3.62,0,7.14-.4,10.52-1.16,2.37-8.64,4.89-17.59,7.3-26.35-1.12,1.84-2.41,3.6-3.88,5.29Z"/>
    <path class="cls-1" d="M496.39,514.64c4.89,0,8.89-4,8.89-8.89,0-4.98-3.98-8.98-8.92-8.98-4.94,0-8.93,3.98-8.94,8.9,0,5,3.97,8.97,8.97,8.97Z"/>
  </g>
</svg>