<?xml version="1.0" encoding="UTF-8"?>
<svg id="Ebene_1" xmlns="http://www.w3.org/2000/svg" viewBox="0 0 800 800">
  <defs>
    <style>
      .cls-1 {
        fill: #3d4f69;
      }

      .cls-2 {
        fill: #f9a728;
      }
    </style>
  </defs>
  <path class="cls-1" d="M465.17,556.32c0-39.89.59-79.79-.31-119.65-.32-14.18,13.18-27.97,27.43-27.82,51.55.55,103.12.22,154.68.19,11.63,0,20.19,4.82,25.24,15.51,1.43,3.02,1.79,6.17,1.79,9.43,0,81.88,0,163.76-.02,245.64,0,8.84-3.52,12.18-12.46,12.18-18.81,0-37.62-.11-56.42.1-3.73.04-4.5-.98-4.46-4.55.22-15.89.11-31.78.1-47.67,0-10.22-4.73-14.91-15.14-14.96-10.38-.05-20.75-.03-31.13,0-10.44.02-15.77,5.34-15.82,15.9-.07,15.57-.14,31.13.05,46.7.04,3.49-.59,4.63-4.4,4.58-18.97-.23-37.94-.09-56.91-.1-8.78,0-12.22-3.48-12.23-12.42-.01-41.02,0-82.04,0-123.06ZM586.24,575.94h-.03c0-2.75.08-5.51-.02-8.26-.2-5.31-3.51-8.87-8.75-9.05-5.5-.19-11.01-.2-16.51.03-5.19.21-8.57,3.88-8.69,9.17-.12,5.34-.14,10.69,0,16.03.15,5.78,3.74,9.33,9.51,9.39,4.85.05,9.72-.05,14.57-.3,7.39-.38,9.87-3.15,9.91-10.69.01-2.1,0-4.21,0-6.31ZM531.65,461.24c0-2.27.03-4.53,0-6.8-.1-6.59-3.47-10.28-9.95-10.53-4.85-.19-9.72-.2-14.56.07-6.43.36-9.61,3.71-9.78,10.11-.13,4.85-.1,9.71.07,14.56.21,6,3.49,9.3,9.58,9.73,2.42.17,4.85-.03,7.28.05,14.07.46,18.35-.78,17.37-17.2ZM586.23,461.58c.71-15.18-1.24-18.13-16.2-17.83-16.5.33-17.7,1.29-17.71,17.58,0,15.64,1.53,17,17.24,17.07,13.73.06,17.62-.92,16.67-16.82ZM641.54,461.21c0-2.11.01-4.21,0-6.32-.05-7.62-3.35-11-10.86-11.08-4.38-.04-8.75-.08-13.13.01-6,.12-9.59,3.68-9.81,9.68-.1,2.75-.03,5.51-.03,8.27,0,15.11,1.51,16.56,16.75,16.64,12.88.06,18.24-.36,17.08-17.19ZM514.68,535.29v.02c2.26,0,4.53.02,6.79,0,7.17-.06,10.14-3.01,10.18-10.17.03-4.69.07-9.37,0-14.06-.11-6.16-3.33-9.63-9.42-9.86-5.33-.2-10.67-.16-16,0-5.05.16-8.54,3.43-8.76,8.46-.25,5.8-.29,11.64,0,17.44.25,4.92,3.59,7.91,8.48,8.13,2.9.13,5.82.02,8.72.02ZM512.71,592.73c4.53,0,7.62.18,10.67-.04,4.78-.34,8.05-3.69,8.2-8.48.17-5.49.26-11.01-.02-16.49-.21-4.08-1.39-7.9-6.4-8.55-7.07-.92-14.18-1.1-21.19.13-3.81.67-6.21,3.43-6.45,7.48-.39,6.62-.46,13.25.14,19.87.25,2.75,1.55,4.46,4.5,5.36,4.02,1.22,8.02.47,10.55.72ZM586.2,518.53c0-2.59.05-5.19,0-7.78-.13-6.32-3.3-9.52-9.59-9.59-5.02-.06-10.05-.09-15.07.03-5.5.13-9.06,3.54-9.25,9.02-.18,5.34-.21,10.7,0,16.04.22,5.48,3.85,8.76,9.42,8.9,2.59.06,5.18.02,7.78.02,15.98-.01,16.73-.75,16.72-16.63ZM641.55,518.5c0-2.59.04-5.19,0-7.78-.11-5.44-3.08-9.04-8.44-9.36-5.65-.34-11.36-.33-17.01.05-5.06.34-8.22,3.98-8.36,9.05-.15,5.35-.18,10.71.02,16.05.19,5.3,3.67,8.56,9.05,8.71,4.54.12,9.08.08,13.62.05,8.59-.06,11.11-2.66,11.13-11.41,0-1.78,0-3.57,0-5.35ZM641.56,575.68c0-2.27.01-4.53,0-6.8-.05-7.04-3.28-10.23-10.44-10.29-4.69-.04-9.39-.08-14.09.01-5.58.11-9.07,3.4-9.28,9.03-.2,5.34-.19,10.69,0,16.03.17,5.03,3.58,8.53,8.6,8.75,5.5.23,11.01.21,16.51.03,5.33-.18,8.56-3.66,8.68-8.98.06-2.59.01-5.18.02-7.77Z"/>
  <path class="cls-1" d="M208.24,691.18c-23.01,0-46.05-.61-69.03.22-14.83.53-25.63-11.7-25.41-25.78.44-27.71.17-55.42.04-83.14-.01-2.94,1.06-4.73,3.16-6.55,22.45-19.45,44.82-38.98,67.23-58.48,6.27-5.46,12.58-10.88,18.88-16.31,4.98-4.29,6.34-4.57,11.03.18,7.28,7.39,15.61,13.55,23.17,20.64,9.4,8.81,20.06,16.33,29.66,25.01,6.86,6.21,13.42,12.78,20.54,18.68,3.93,3.26,8.09,6.27,12.07,9.5,2.43,1.97,3.56,4.05,3.54,7.36-.16,28.04-.42,56.08.03,84.11.22,13.54-10.38,24.61-24.42,24.55-23.5-.09-47-.03-70.5-.03v.03ZM213.19,594.99h-.36c0,3.88.18,7.77-.06,11.63-.17,2.69.85,3.25,3.31,3.2,6.94-.14,13.9-.26,20.84.04,3.47.15,4.02-1.25,3.85-4.18-.2-3.54-.05-7.11-.05-10.66,0-10.8-3.25-14.12-14.13-13.98-4.46.06-10.59-2.02-12.93.88-2.19,2.72-.47,8.59-.47,13.08ZM203.86,595.49h-.02c0-3.72-.11-7.44.04-11.15.1-2.31-.25-3.56-3.05-3.42-4.67.23-9.37-.09-14.05.11-5.84.25-9.9,4.44-10.05,10.28-.13,5.17.08,10.34-.06,15.51-.06,2.34.71,3.05,3.04,3,7.11-.14,14.22-.17,21.32,0,2.57.06,2.91-1.08,2.85-3.19-.11-3.71-.03-7.43-.03-11.15ZM226.92,619.02c-3.56,0-7.12.11-10.67-.04-2.31-.1-3.54.26-3.46,3.07.19,6.94.1,13.9.01,20.85-.02,1.9.22,3.04,2.56,2.94,5.48-.23,11,.23,16.45-.64,5.27-.83,8.69-4.56,8.86-9.84.15-4.36-.1-8.73.08-13.09.1-2.46-.52-3.48-3.19-3.31-3.54.23-7.11.06-10.66.06ZM203.84,632.31c0-3.55-.04-7.1.02-10.65.03-1.64-.1-2.72-2.27-2.69-7.58.11-15.17.05-22.76.02-1.34,0-2.15.32-2.13,1.85.08,5.65-.08,11.31.28,16.93.14,2.17,1.4,4.36,3.49,5.58,7.04,4.09,15.02,3.15,22.15,1.86,3.1-.56.55-7.79,1.2-11.94.05-.32,0-.64.01-.97Z"/>
  <path class="cls-2" d="M482.34,228.03c.15,22.25-6.54,39.55-16.03,55.67-19.01,32.27-41.12,62.36-66.37,90.07-6.29,6.9-11.31,7.1-17.5.01-27.08-31.02-52.27-63.46-71.14-100.25-17.49-34.1-15.93-67.5,7.51-98.33,16.3-21.44,38.88-32.3,65.84-34.3,42.31-3.14,83.03,22.98,94.97,68.08,1.91,7.22,2.87,14.58,2.72,19.04ZM348.73,230.31c-.05,23.61,18.55,41.96,42.72,42.13,22.33.16,41.93-19.57,41.96-42.24.03-22.99-19.31-42.37-42.3-42.37-23.67,0-42.33,18.7-42.39,42.48Z"/>
  <path class="cls-1" d="M258.26,483.99c0-5.92-.1-10.73.03-15.52.17-6.51,3.08-9.45,9.59-9.6,5.83-.14,11.67-.06,17.51,0,7.67.09,10.6,2.89,10.66,10.58.12,14.1.18,28.21,0,42.31-.04,3.12,1.05,4.96,3.32,6.9,11.81,10.12,23.58,20.3,35.13,30.72,5.99,5.4,6.85,10.62,3.8,17.37-3.96,8.77-13.6,11.34-21.25,5.42-4.57-3.54-8.34-8.23-12.84-11.62-8.15-6.14-15.56-13.06-23.37-19.55-7.51-6.24-14.81-12.74-22.21-19.11-11.58-9.96-23.39-19.65-34.61-30-3.31-3.05-7.31-5.36-10.04-9.18-2.33-3.25-7.23-2.64-11.55,1.07-8.04,6.89-15.98,13.89-23.97,20.84-23.14,20.14-46.26,40.3-69.45,60.38-2.98,2.58-6.21,4.81-9.1,7.59-4.88,4.7-13.46,3.69-18.48-1.38-5.19-5.24-6.25-13.73-1.13-18.78,9.3-9.18,19.23-17.71,29.6-25.73,5.24-4.05,9.93-8.88,14.82-13.39,8.21-7.58,17.55-13.95,25.55-21.73,7.54-7.34,15.46-14.2,23.31-21.17,7.81-6.93,15.71-13.76,23.59-20.6,5.71-4.96,16.01-4.96,21.85.08,12.77,11.04,25.5,22.14,39.25,34.09Z"/>
  <path class="cls-1" d="M345.94,360.06c-38.09,0-74.67.02-111.25,0-10.52,0-13.26,2.62-13.27,13.14-.03,17.49,0,34.98,0,53.03-8.26-3.63-16.25-3.41-24.09.34-1.22-1.61-.69-3.27-.68-4.78.05-17.01.3-34.02.24-51.02-.07-18.89,13.05-34.97,34.6-34.96,30.29.01,60.58-.03,90.88-.14,2.51,0,4.11.75,5.7,2.75,5.5,6.93,11.24,13.66,17.89,21.67Z"/>
  <path class="cls-1" d="M436.04,359.57c6.69-7.98,12.87-15.36,19.05-22.75,1.09-1.31,2.56-1.13,4.01-1.13,31.11.03,62.23-.28,93.34.18,20.78.31,33.22,15.54,32.92,33.6-.12,6.8-.12,13.61.03,20.42.05,2.44-.47,3.41-3.16,3.31-5.99-.21-11.99-.19-17.98,0-2.7.09-3.21-.92-3.16-3.37.12-6.48.07-12.96-.11-19.44-.2-7.03-3.51-10.27-10.59-10.34-20.74-.21-41.48-.38-62.22-.47-17.1-.07-34.2-.02-52.11-.02Z"/>
  <path class="cls-1" d="M384.35,615.07c19.27,0,38.54.1,57.81-.09,3.61-.04,4.25,1.23,4.11,4.42-.24,5.49-.32,11.02.03,16.51.23,3.63-.8,4.52-4.46,4.51-34.49-.16-68.98-.09-103.47-.09-4.37,0-8.75-.18-13.11.06-2.88.16-3.49-.91-3.41-3.58.19-5.82.29-11.67-.04-17.48-.2-3.48.87-4.33,4.25-4.3,19.43.15,38.86.07,58.29.07v-.03Z"/>
</svg>