<?xml version="1.0" encoding="UTF-8"?>
<svg id="Ebene_1" xmlns="http://www.w3.org/2000/svg" viewBox="0 0 800 800">
  <defs>
    <style>
      .cls-1 {
        fill: #3d4f69;
      }

      .cls-2 {
        fill: #f90;
      }
    </style>
  </defs>
  <g>
    <path class="cls-2" d="M240.97,204.01c-51.8-13.72-87.03,28.18-84.02,69.35,3.18,43.48,49.48,66.47,86.67,59.13,3.65-.72,5.62-3.03,7.13-6.38,5.87-12.97,11.99-25.83,18.02-38.73l.07.03c6.03-12.9,12.06-25.8,18.08-38.7,1.22-2.61,2.39-4.85.42-8.01-11.09-17.84-26.21-31.35-46.37-36.69Z"/>
    <path class="cls-2" d="M279.84,182.66c.27-10.37.71-20.74,1.12-32.41-2.41,2.05-3.69,3.07-4.9,4.17-8.47,7.77-16.7,15.81-25.45,23.25-8.05,6.85-14.84,5.42-20.24-3.56-3.51-5.83-5.59-12.27-7.94-18.61-2.4-6.48-4-13.31-8.28-20.5-4.12,14.74-7.9,28.31-11.71,41.87-2.19,7.79-9.15,10.96-16.37,7.08-4.85-2.61-9.4-5.8-13.95-8.92-7.57-5.21-15.04-10.57-22.79-16.03-1.25,3.38.35,5.47.92,7.73,2.81,11.23,8.04,21.81,9.55,33.35,1.34,10.21-4.4,16.3-14.53,15.9-6.22-.24-12.41-1.28-18.63-1.61-6.87-.37-13.77-1.95-21.66-.47,9.35,9.05,18.17,17.1,26.42,25.7,9.31,9.71,8.14,17.32-3.51,24.25-4.54,2.7-9.59,4.55-14.47,6.65-6.81,2.93-14.07,4.88-20.31,9.27,1.86,1.73,4.02,1.67,6.13,2.09,12.23,2.43,24.46,4.85,36.27,8.97,7.12,2.49,10.31,10.2,6.38,16.21-6.18,9.45-12.59,18.75-18.78,28.19-1.38,2.11-4.12,4.69-2.6,6.92,1.72,2.52,4.88.45,7.33-.33,9.41-3.01,18.32-7.54,28.18-9.18,9.97-1.66,14.64,1.73,15.31,11.9.38,5.71-.09,11.48-.14,17.22-.08,8.2-.12,16.41-.18,25.78,12.1-10.96,21.97-22.17,34.04-30.95,6.22-4.52,8.82-4.02,13.87,1.83,4.12,4.78,5.29,11.03,8.68,16.72l14.1-30.18c-50.16,3.43-85.22-26.42-93.34-60.6-8.56-36.01,11.55-70.82,37.22-84.12,19.1-9.89,39.13-12.27,60.08-5.76,20.67,6.42,37.15,18.21,49.09,36.31,4.72-10.1,9.32-19.95,14.16-30.31-2.08.46-3.28.64-4.43.99-21.51,6.38-25.22,3.58-24.63-18.79Z"/>
  </g>
  <g>
    <g>
      <polygon class="cls-1" points="360.36 441.89 316.64 554.83 421.95 566.52 457.94 447.8 360.36 441.89"/>
      <polygon class="cls-1" points="404.16 328.73 368.36 421.2 464.24 427.01 494.01 328.73 404.16 328.73"/>
      <polygon class="cls-1" points="485.92 428.32 605.69 435.57 629.44 328.73 516.09 328.73 485.92 428.32"/>
      <polygon class="cls-1" points="381.51 328.73 266.26 328.73 227.1 412.64 346.22 419.87 381.51 328.73"/>
      <path class="cls-1" d="M522.49,307.6h111.64l25.31-113.94c.72-3.25-.13-6.64-2.3-9.17-2.18-2.54-5.39-3.85-8.73-3.66l-89.32,5.96-36.6,120.81Z"/>
      <path class="cls-1" d="M338.21,440.53l-120.72-7.31-42.83,91.79c-1.44,3.09-1.31,6.68.36,9.64,1.67,2.98,4.67,4.94,8.05,5.33l111.83,12.43,43.32-111.87Z"/>
      <path class="cls-1" d="M479.62,449.11l-36.3,119.79,120.13,13.35c.4.04.78.06,1.18.06,4.88,0,9.23-3.4,10.31-8.28l26.12-117.57-121.44-7.35Z"/>
      <path class="cls-1" d="M389.69,307.6l43.51-112.42-101.72,6.78c-3.85.25-7.25,2.6-8.88,6.09l-46.47,99.55h113.56Z"/>
      <polygon class="cls-1" points="500.41 307.6 536.57 188.29 456.46 193.64 412.34 307.6 500.41 307.6"/>
    </g>
    <path class="cls-1" d="M511.67,674.12c-1.48-24.03-19.12-43.74-42.16-48.43v-23.14c0-5.39-4.04-9.91-9.4-10.5l-63.39-7.04c-2.94-.27-5.96.63-8.22,2.64-2.24,2.01-3.53,4.86-3.53,7.88v30.15c-24.09,4.9-42.26,26.24-42.26,51.75,0,5.83,4.73,10.57,10.57,10.57h148.34c5.83,0,10.57-4.73,10.57-10.57.02-1.18-.17-2.3-.51-3.32Z"/>
  </g>
</svg>