<?xml version="1.0" encoding="UTF-8"?>
<svg id="Ebene_1" xmlns="http://www.w3.org/2000/svg" viewBox="0 0 800 800">
  <defs>
    <style>
      .cls-1 {
        fill: #3d4f69;
      }

      .cls-2 {
        fill: #f9a728;
      }

      .cls-3 {
        fill: #f90;
      }
    </style>
  </defs>
  <path class="cls-3" d="M175.24,308.29c.61,1.93,2.39,2.54,4.03,2.64.82.06,1.63.03,2.46.03,9.73,0,19.46-.02,29.19,0,.37,0,.77.03,1.13.08,1.29.17,1.6.72,1.36,2.16-.16.93-.43,1.84-.67,2.74-4.75,17.38-9.88,35.54-14.59,52.74-.22.85-.51,1.67-.73,2.54-.15.6-.23,1.29.04,1.84.29.6.9.99,1.51.93.46-.04.86-.35,1.22-.75.47-.53.87-1.15,1.29-1.74,13.68-18.73,27.43-38.44,41.26-57.41,7.9-10.44,15.69-21,22.83-32.14.55-.98.93-2.04.7-3.15-.18-.9-.72-1.69-1.46-2.03-.53-.26-1.11-.33-1.72-.36-.67-.03-1.34-.02-2.01-.02-9.72-.02-19.44.01-29.17-.03-.56-.02-1.14-.06-1.66-.2-1.52-.37-1.19-1.91-.87-3.28,1.96-6.98,2.14-8.8,4.18-17.29,1.11-4.48,2.51-10.16,3.63-14.56.9-3.18,1.77-6.4,2.7-9.57.19-.71.41-1.46.22-2.18-.21-.76-.94-1.29-1.64-1.18-.54.08-1.04.55-1.46,1-.89.98-1.67,2.09-2.48,3.2-9.65,13.33-29.48,36.78-29.48,36.78l-6.15,7.61s-13.43,15.52-21.86,26.68c-.46.61-.85,1.23-1.26,1.85-.6.89-.94,1.96-.56,3.09h0Z"/>
  <path class="cls-1" d="M373.5,268.37c-7.75-.52-15.49-1.27-23.23-1.93-3.4-.29-5.25-2.21-6.46-5.37-2.36-6.18-4.62-12.46-7.78-18.24-2.28-4.18-1.39-7.03,1.33-10.18,4.98-5.76,9.97-11.52,14.75-17.44,5.16-6.41,4.87-12.45-.81-18.17-8.62-8.68-17.3-17.3-26.07-25.82-6.66-6.47-13.19-6.52-20.18-.41-5.74,5.01-11.46,10.03-17.19,15.05-2.26,1.98-4.69,2.47-7.43,1.01-6.57-3.52-13.6-5.93-20.66-8.14-3.86-1.21-5.18-3.56-5.45-7.21-.58-7.75-1.25-15.49-1.95-23.22-.63-6.92-4.74-12.1-10.36-12.31-13.64-.5-27.3-1.24-40.95-.19-7.32.56-10.78,3.93-11.7,11.2-1.06,8.33-2.01,16.67-2.92,25.02-.3,2.72-1.11,4.85-4,5.78-7.38,2.37-14.46,5.48-21.25,9.2-2.77,1.52-4.99,1.13-7.27-.94-5.39-4.91-10.89-9.71-16.34-14.55-7.71-6.84-14.4-6.83-21.71.32-8.4,8.22-16.67,16.57-24.92,24.96-5.86,5.96-6.2,12.04-1.03,18.64,4.99,6.37,10.12,12.62,15.25,18.87,1.81,2.2,2.13,4.31.71,6.91-3.33,6.1-5.8,12.59-7.95,19.19-1.44,4.41-4.2,6.12-8.83,6.26-7.28.22-14.55.95-21.8,1.72-7.13.76-11.61,4.73-11.85,11.85-.46,13.64-.49,27.33-.02,40.97.27,7.87,4.95,11.64,12.97,12.29,7.27.59,14.52,1.33,21.79,1.89,4.1.32,6.62,2.11,7.73,6.28,1.68,6.26,4.09,12.3,7.34,17.91,1.8,3.11,1.48,5.45-.77,8.1-5.45,6.4-10.74,12.93-16.03,19.47-4.42,5.46-4.65,11.75-.09,16.31,9.32,9.32,18.88,18.39,28.39,27.51,2.6,2.49,5.71,3.97,9.95,3.86,4.55.22,7.97-2.99,11.5-5.94,5.23-4.38,10.4-8.83,15.64-13.19,1.92-1.6,4.03-2.39,6.52-1.06,6.97,3.74,14.47,6.19,21.9,8.77,3.05,1.06,4.08,2.97,4.29,6,.54,7.75,1.24,15.48,2.01,23.21.91,9.2,5.33,13.18,14.63,13.28,5.24.06,10.49.14,15.73.02,7.61-.18,15.26.65,22.83-.62,5.55-.93,9.2-4.06,9.97-9.85,1.24-9.26,2.47-18.52,3.46-27.81.29-2.69,1.52-3.86,3.88-4.62,7.04-2.28,14.05-4.67,20.75-7.83,2.74-1.29,4.99-1.07,7.39.96,6.42,5.42,12.88,10.81,19.57,15.9,5.65,4.3,12.2,3.79,17.29-1.06,8.86-8.43,17.68-16.9,26.38-25.5,6.57-6.49,6.66-12.75.76-19.64-4.95-5.78-9.73-11.71-14.72-17.47-2.31-2.67-2.9-5.05-1.17-8.49,2.89-5.76,5.52-11.72,7.52-17.83,1.55-4.73,4.48-6.39,9.01-6.73,7.27-.54,14.53-1.23,21.79-1.96,6.98-.7,12.14-5.07,12.23-11.06.22-13.98.24-27.96-.02-41.94-.12-6.74-5.57-11.5-12.32-11.96ZM218.9,387.7c-47.09-.6-86.66-39.97-86.42-86.95.25-47.6,39.74-86.42,87.87-86.36,48.39.05,87.38,38.77,87.29,86.65,1.04,45.21-38.1,87.31-88.74,86.66Z"/>
  <path class="cls-2" d="M718.5,190.88l-95.66,18.18c-10.05,1.91-13.44,14.58-5.7,21.26l25.13,21.66-98.17,113.73-26.99-89.97c-3.53-11.75-14.21-19.9-26.48-20.19-12.27-.28-23.32,7.34-27.4,18.91l-125.04,354.77h-200.22c-15.65,0-28.34,12.69-28.34,28.34s12.69,28.34,28.34,28.34h220.28c12.02,0,22.73-7.58,26.73-18.92l102.81-291.7,16.85,56.19c2.97,9.91,11.11,17.41,21.23,19.58,10.12,2.16,20.61-1.37,27.37-9.2l131.95-152.87,23.72,20.45c7.75,6.68,19.78,1.45,20.19-8.77l3.87-97.29c.31-7.86-6.77-13.96-14.49-12.49Z"/>
  <path class="cls-1" d="M557.16,686c-.48,0-.96-.01-1.44-.04-9.84-.61-18.24-7.33-20.99-16.8l-19.89-68.63h-52.99c-12.89,0-23.35-10.45-23.35-23.35s10.45-23.35,23.35-23.35h70.54c10.39,0,19.53,6.87,22.42,16.85l6.61,22.81,54.82-127.84c4.05-9.44,13.8-15.13,24.02-14,10.21,1.13,18.49,8.8,20.39,18.9l14.05,74.86h67.67c12.89,0,23.35,10.45,23.35,23.35s-10.45,23.35-23.35,23.35h-87.04c-11.23,0-20.87-8-22.95-19.04l-3.47-18.47-50.29,117.27c-3.7,8.62-12.16,14.15-21.45,14.15Z"/>
</svg>