<?xml version="1.0" encoding="UTF-8"?>
<svg id="Ebene_1" xmlns="http://www.w3.org/2000/svg" viewBox="0 0 800 800">
  <defs>
    <style>
      .cls-1 {
        fill: #3d4f69;
      }

      .cls-2 {
        fill: #f90;
      }

      .cls-3 {
        fill: #324d64;
      }
    </style>
  </defs>
  <g>
    <path class="cls-2" d="M150.76,172.91c-30.71-8.13-51.59,16.71-49.81,41.11,1.89,25.78,29.34,39.4,51.38,35.06,2.16-.43,3.33-1.8,4.23-3.78,3.48-7.69,7.11-15.31,10.68-22.96l.04.02c3.57-7.65,7.15-15.29,10.72-22.94.72-1.54,1.42-2.87.25-4.75-6.58-10.58-15.54-18.59-27.49-21.75Z"/>
    <path class="cls-2" d="M173.81,160.26c.16-6.15.42-12.3.66-19.21-1.43,1.22-2.19,1.82-2.9,2.47-5.02,4.6-9.9,9.37-15.09,13.78-4.77,4.06-8.8,3.21-12-2.11-2.08-3.45-3.32-7.27-4.71-11.03-1.42-3.84-2.37-7.89-4.91-12.15-2.44,8.74-4.68,16.78-6.94,24.82-1.3,4.62-5.43,6.5-9.71,4.2-2.87-1.55-5.57-3.44-8.27-5.29-4.49-3.09-8.92-6.27-13.51-9.5-.74,2,.21,3.24.54,4.58,1.67,6.66,4.76,12.93,5.66,19.77.79,6.05-2.61,9.66-8.61,9.43-3.69-.14-7.36-.76-11.04-.95-4.07-.22-8.17-1.16-12.84-.28,5.54,5.37,10.77,10.14,15.66,15.24,5.52,5.76,4.82,10.27-2.08,14.37-2.69,1.6-5.69,2.7-8.58,3.94-4.04,1.74-8.34,2.89-12.04,5.5,1.1,1.03,2.39.99,3.64,1.24,7.25,1.44,14.5,2.87,21.5,5.32,4.22,1.47,6.11,6.05,3.78,9.61-3.67,5.6-7.46,11.11-11.13,16.71-.82,1.25-2.44,2.78-1.54,4.1,1.02,1.49,2.9.27,4.35-.2,5.58-1.78,10.86-4.47,16.71-5.44,5.91-.99,8.68,1.03,9.08,7.06.22,3.39-.05,6.8-.09,10.21-.04,4.86-.07,9.73-.11,15.28,7.18-6.5,13.02-13.14,20.18-18.35,3.69-2.68,5.23-2.39,8.22,1.09,2.44,2.83,3.14,6.54,5.15,9.91,2.87-6.13,5.52-11.82,8.36-17.89-29.74,2.03-50.52-15.66-55.34-35.93-5.07-21.35,6.85-41.99,22.07-49.87,11.33-5.86,23.2-7.27,35.62-3.41,12.25,3.8,22.03,10.79,29.1,21.52,2.8-5.99,5.53-11.83,8.4-17.97-1.23.27-1.95.38-2.63.58-12.75,3.78-14.95,2.12-14.6-11.14Z"/>
  </g>
  <g>
    <g>
      <polygon class="cls-1" points="221.54 313.94 195.62 380.89 258.06 387.82 279.39 317.44 221.54 313.94"/>
      <polygon class="cls-1" points="247.51 246.85 226.29 301.67 283.12 305.12 300.77 246.85 247.51 246.85"/>
      <polygon class="cls-1" points="295.98 305.89 366.98 310.19 381.06 246.85 313.87 246.85 295.98 305.89"/>
      <polygon class="cls-1" points="234.08 246.85 165.76 246.85 142.54 296.6 213.16 300.88 234.08 246.85"/>
      <path class="cls-1" d="M317.66,234.32h66.18l15.01-67.55c.43-1.93-.08-3.93-1.37-5.44s-3.19-2.28-5.17-2.17l-52.95,3.53-21.7,71.62Z"/>
      <path class="cls-1" d="M208.41,313.13l-71.57-4.33-25.39,54.42c-.85,1.83-.78,3.96.21,5.71.99,1.77,2.77,2.93,4.77,3.16l66.29,7.37,25.68-66.32Z"/>
      <path class="cls-1" d="M292.24,318.22l-21.52,71.02,71.22,7.92c.24.03.46.04.7.04,2.89,0,5.47-2.02,6.11-4.91l15.48-69.7-71.99-4.36Z"/>
      <path class="cls-1" d="M238.93,234.32l25.79-66.65-60.31,4.02c-2.28.15-4.3,1.54-5.26,3.61l-27.55,59.02h67.32Z"/>
      <polygon class="cls-1" points="304.57 234.32 326 163.59 278.51 166.76 252.36 234.32 304.57 234.32"/>
    </g>
    <path class="cls-1" d="M311.25,451.61c-.88-14.24-11.34-25.93-24.99-28.71v-13.72c0-3.19-2.39-5.88-5.57-6.23l-37.58-4.17c-1.74-.16-3.53.38-4.87,1.57-1.33,1.19-2.09,2.88-2.09,4.67v17.88c-14.28,2.91-25.05,15.56-25.05,30.68,0,3.46,2.81,6.26,6.26,6.26h87.94c3.46,0,6.26-2.81,6.26-6.26.01-.7-.1-1.37-.3-1.97Z"/>
  </g>
  <g>
    <g>
      <path class="cls-2" d="M761.77,457.91c-5.25-7.71-12.42-12.23-22.18-11.94-6.64.2-13.28.04-19.92.04-6.95,0-13.91.02-20.86,0-7.82-.02-14.17,3.14-18.53,9.51-9.54,13.92-10.53,29.17-5.02,44.64,5,14.05,13.87,24.24,27.56,28.77-.32,1.01-.49,2.08-.49,3.2v10.24c0,4.93,3.34,9.06,7.88,10.29.39,6.09.54,12.26.42,18.39-.26,13.16-.42,21.11-2.84,29.61-1.95,6.85-6.5,22.88-16.87,27.34-2.01.86-2.88.89-10.43.28-4.18-.34-9.89-.8-17.97-1.08-8.84-.31-17.72-.31-26.4,0-5.47.19-9.74,4.78-9.55,10.25.19,5.47,4.77,9.74,10.25,9.55,8.22-.29,16.63-.29,25,0,7.62.27,12.86.69,17.07,1.03,3.19.26,5.88.47,8.38.47,3.93,0,7.37-.54,11.47-2.3,19.03-8.18,25.39-30.56,28.1-40.12,3.12-10.97,3.3-20.38,3.59-34.63.12-6.14,0-12.33-.35-18.45.07-.1.14-.21.2-.32,4.56-1.22,7.91-5.36,7.91-10.3v-10.24c0-.98-.14-1.92-.39-2.82,8.7-3.18,15.5-9.16,21.23-16.62,12.43-16.17,13.63-38.75,2.74-54.77ZM726.83,520.78c-19.49,3.35-41.31-10.66-44.16-32.52-1.12-8.63.12-16.65,4.34-24.22,2.74-4.91,6.84-7.53,12.61-7.45,6.85.09,13.7.02,20.55.02h0c6.64,0,13.29.14,19.92-.06,5.35-.16,9.15,2.21,11.9,6.49,14.05,21.9,3.56,52.81-25.16,57.74Z"/>
      <path class="cls-2" d="M697.6,480.52c-3.69-.2-7.14,2.94-7.27,6.6-.12,3.45,3.06,6.74,6.61,6.85,3.69.12,6.88-2.78,7.03-6.38.15-3.62-2.79-6.88-6.38-7.08Z"/>
      <path class="cls-2" d="M730.86,499.07c-3.37-.1-6.82,3.33-6.82,6.78,0,3.63,3.04,6.75,6.65,6.81,3.67.06,6.77-2.92,6.86-6.59.08-3.33-3.33-6.9-6.69-7Z"/>
      <path class="cls-2" d="M708.79,476.53c3.46-.09,6.47-3.17,6.49-6.62.02-3.84-3.13-7.15-6.71-7.07-3.48.08-6.4,3.07-6.47,6.62-.07,3.84,3.08,7.16,6.69,7.07Z"/>
      <path class="cls-2" d="M731.42,476.44c3.75.1,6.84-3.05,6.81-6.94-.02-3.74-2.98-6.71-6.65-6.68-3.67.03-6.47,2.99-6.46,6.83,0,3.59,2.89,6.7,6.3,6.79Z"/>
      <path class="cls-2" d="M726.56,487.09c-.07-3.54-3.02-6.56-6.47-6.61-3.7-.06-6.84,3.16-6.78,6.97.05,3.61,3.21,6.64,6.81,6.53,3.71-.11,6.51-3.11,6.44-6.88Z"/>
      <path class="cls-2" d="M709.67,498.96c-3.3.04-6.35,3.3-6.32,6.77.03,3.66,2.81,6.45,6.46,6.47,3.93.02,6.66-2.69,6.63-6.57-.02-3.58-3.2-6.71-6.77-6.67Z"/>
      <path class="cls-2" d="M743.38,480.26c-3.73-.11-6.93,2.76-7.03,6.29-.1,3.48,3.07,6.71,6.67,6.8,3.61.09,6.42-2.69,6.48-6.39.06-3.8-2.49-6.6-6.12-6.7Z"/>
    </g>
    <path class="cls-2" d="M599.73,471.1c-.29-.14-.6-.18-.92-.19-.36-.02-.72-.01-1.08-.01-5.23,0-10.45,0-15.68-.02-.3-.01-.61-.03-.89-.11-.82-.2-.64-1.02-.47-1.76,1.06-3.75,1.15-4.73,2.24-9.3.6-2.41,1.35-5.46,1.95-7.83.49-1.71.95-3.44,1.45-5.14.1-.38.22-.78.12-1.17-.11-.41-.5-.7-.88-.63-.29.04-.56.29-.78.54-.48.52-.9,1.12-1.33,1.72-5.19,7.17-15.85,19.77-15.85,19.77l-3.3,4.09s-7.22,8.34-11.75,14.34c-.25.33-.46.66-.68,1-.32.48-.5,1.05-.3,1.66h0c.33,1.04,1.29,1.37,2.17,1.43.44.03.88.02,1.32.02,5.23,0,10.46-.01,15.69,0,.2,0,.41.02.61.04.7.09.86.38.73,1.16-.08.5-.23.99-.36,1.47-2.55,9.34-5.31,19.1-7.84,28.35-.12.46-.27.9-.39,1.36-.08.32-.12.69.02.99.15.33.49.53.81.5.25-.02.46-.19.65-.41.25-.29.47-.62.69-.93,7.35-10.07,14.74-20.66,22.18-30.86,4.25-5.61,8.43-11.29,12.27-17.27.3-.53.5-1.1.38-1.69-.1-.48-.39-.91-.79-1.09Z"/>
    <path class="cls-1" d="M653.7,627.99c0-.27,0-.55.02-.82-.05,0-.09,0-.14,0v-201.94c0-15.46-12.53-27.99-27.99-27.99h-99.14c-15.46,0-27.99,12.53-27.99,27.99v237.95c0,15.46,12.53,27.99,27.99,27.99h99.14c15.46,0,27.99-12.53,27.99-27.99v-17.18s.08,0,.12,0v-18.01ZM622.74,521.83c0,8.24-6.68,14.92-14.92,14.92h-63.59c-8.24,0-14.92-6.68-14.92-14.92v-81.21c0-8.24,6.68-14.92,14.92-14.92h63.59c8.24,0,14.92,6.68,14.92,14.92v81.21Z"/>
  </g>
  <path class="cls-3" d="M352.37,628.18c-25.75.09-49.84-2.87-73.09-11.09-46.11-16.32-81.59-44.99-103.63-89.3-6.78-13.63-10.67-28.14-13.49-42.98-1.29-6.77,2.36-12.64,8.29-13.82,6.43-1.28,12.28,2.35,13.66,9.29,5.23,26.28,16.47,49.57,34.08,69.75,23.43,26.84,53.08,43.07,87.57,50.83,13.99,3.15,28.19,4.61,41.4,4.11-2.31-2.68-5.1-6.06-8.04-9.3-4.96-5.47-5.32-11.67-.84-16.52,4.25-4.61,10.47-4.87,16.01-.17,10.15,8.61,20.57,16.87,31.12,24.99,9.37,7.21,9.38,13.79.62,21.66-10.17,9.13-19.5,19.11-29.01,28.91-3.75,3.87-9.27,4.79-13.72,2.61-4.45-2.19-6.95-6.85-6.36-11.95.39-3.33,2.25-5.82,4.71-7.93,1.64-1.41,3.25-2.85,4.9-4.25,1.63-1.38,3.29-2.73,5.81-4.82Z"/>
  <path class="cls-3" d="M635.56,336c-5.3-17.87-13.33-33.55-24.14-47.78-27.58-36.34-64.57-56.22-109.45-62.2-8.43-1.12-16.89-1.63-25.38-1.88-6.73-.2-11.57-4.58-11.65-10.49-.09-5.94,5.15-11.5,11.43-11.61,79.61-1.31,147.23,42.33,176.22,112.07,2.45,5.9,4.49,11.96,6,19.02,2.71-4.34,4.93-8.13,7.39-11.76,4.38-6.45,11.11-7.97,16.73-3.95,4.7,3.35,5.91,10.87,1.82,16.9-6.89,10.14-12.92,20.87-19.27,31.37-5.07,8.4-10.92,9.87-19.02,4.62-10.58-6.86-21.12-13.78-32.02-20.15-7.27-4.25-9.11-10.42-5.42-16.72,3.55-6.05,10.15-7.23,17.36-3.05,2.86,1.66,5.69,3.39,9.4,5.61Z"/>
</svg>