<?xml version="1.0" encoding="UTF-8"?>
<svg id="Ebene_1" xmlns="http://www.w3.org/2000/svg" viewBox="0 0 800 800">
  <defs>
    <style>
      .cls-1 {
        fill: #3d4f69;
      }

      .cls-2 {
        fill: #f90;
      }
    </style>
  </defs>
  <g>
    <path class="cls-1" d="M722.2,202.84c-31.22-29.77-68.57-44.45-104.9-45.04-48.84,0-89.55,16.63-119.15,45.82-5.12,5.05-7.9,10.83-6.52,18.03,1.41,7.36,5.78,12.46,13.02,14.66,7.98,2.42,14.43-.31,20.38-5.88,49.7-46.52,121.98-46.5,171.21-.07,9.19,8.67,20.51,9.12,28.31,1.15,8.04-8.22,7.2-19.57-2.33-28.65Z"/>
    <path class="cls-1" d="M610.72,223.97c-25.19.45-47.06,8.91-65.35,26.21-8.78,8.31-9.59,19.85-2.17,27.82,7.59,8.15,18.77,8.2,27.89-.07,4.26-3.87,8.77-7.33,13.9-9.91,21.23-10.65,45.98-7.32,63.73,8.76,4.86,4.41,9.97,7.88,16.78,7.21,7.93-.78,13.72-4.84,16.36-12.51,2.59-7.55,1.02-14.43-4.73-20.06-18.46-18.1-40.76-26.95-66.41-27.45Z"/>
    <path class="cls-1" d="M610.89,291.37c-15.74-.14-28.69,12.68-28.68,28.39,0,15.47,12.66,28.26,28.1,28.4,15.72.14,28.69-12.71,28.69-28.4,0-15.48-12.65-28.25-28.1-28.39Z"/>
  </g>
  <path class="cls-2" d="M303.78,375.05c.51,1.64,2.04,2.16,3.43,2.25.7.05,1.39.02,2.09.03,8.28,0,16.55-.02,24.83,0,.32,0,.66.02.96.07,1.1.14,1.36.61,1.16,1.83-.13.79-.36,1.56-.57,2.33-4.04,14.79-8.41,30.23-12.41,44.86-.19.73-.43,1.42-.62,2.16-.13.51-.2,1.1.03,1.56.24.51.77.84,1.28.79.39-.04.73-.3,1.03-.64.4-.45.74-.98,1.1-1.48,11.63-15.93,23.33-32.7,35.1-48.84,6.72-8.88,13.35-17.87,19.42-27.34.47-.83.79-1.73.6-2.68-.15-.76-.62-1.44-1.24-1.73-.45-.22-.95-.28-1.46-.31-.57-.03-1.14-.02-1.71-.02-8.27-.01-16.54.01-24.81-.03-.48-.02-.97-.05-1.41-.17-1.3-.31-1.01-1.62-.74-2.79,1.67-5.94,1.82-7.49,3.55-14.71.94-3.81,2.13-8.64,3.08-12.39.77-2.71,1.51-5.44,2.3-8.14.16-.6.35-1.24.19-1.86-.18-.64-.8-1.1-1.39-1-.46.07-.88.46-1.24.85-.76.83-1.42,1.77-2.11,2.72-8.21,11.34-25.08,31.29-25.08,31.29l-5.23,6.47s-11.42,13.2-18.59,22.69c-.39.52-.73,1.04-1.07,1.58-.51.75-.8,1.67-.47,2.62h0Z"/>
  <path class="cls-1" d="M393.62,438.76c11.18-4.66,22.35-9.34,33.57-13.9,2.36-.96,3.28-2.35,3.45-5.16,1.38-21.93,9.91-39.62,27.05-51.71,4.82-3.4,9.93-5.89,15.16-7.61-.02-2.72-.06-5.44-.11-8.15-.1-5.51-4.55-9.4-10.06-9.77-6.33-.43-12.65-1.04-18.98-1.58-2.78-.24-4.29-1.8-5.27-4.39-1.93-5.04-3.78-10.18-6.35-14.9-1.87-3.42-1.14-5.74,1.08-8.31,4.07-4.71,8.15-9.41,12.05-14.25,4.22-5.23,3.98-10.17-.66-14.84-7.04-7.09-14.13-14.13-21.3-21.09-5.44-5.28-10.77-5.32-16.49-.34-4.69,4.09-9.36,8.19-14.04,12.3-1.84,1.62-3.83,2.02-6.07.82-5.36-2.87-11.11-4.84-16.88-6.65-3.16-.99-4.23-2.91-4.45-5.89-.47-6.33-1.02-12.65-1.59-18.97-.51-5.65-3.88-9.89-8.47-10.05-11.14-.41-22.3-1.02-33.45-.16-5.98.46-8.8,3.21-9.56,9.15-.87,6.8-1.64,13.62-2.38,20.44-.24,2.22-.9,3.96-3.27,4.72-6.03,1.93-11.81,4.48-17.36,7.52-2.27,1.24-4.08.92-5.94-.77-4.41-4.01-8.89-7.93-13.35-11.89-6.3-5.59-11.76-5.58-17.73.26-6.86,6.72-13.62,13.54-20.35,20.39-4.79,4.87-5.07,9.83-.85,15.22,4.07,5.2,8.26,10.31,12.45,15.41,1.48,1.8,1.74,3.52.58,5.64-2.72,4.98-4.74,10.29-6.49,15.67-1.17,3.6-3.43,5-7.22,5.12-5.95.18-11.89.77-17.81,1.4-5.83.62-9.48,3.86-9.68,9.68-.38,11.15-.4,22.32-.02,33.47.22,6.43,4.05,9.51,10.59,10.04,5.94.48,11.86,1.09,17.8,1.55,3.35.26,5.4,1.73,6.32,5.13,1.37,5.11,3.34,10.04,5.99,14.63,1.47,2.54,1.21,4.45-.63,6.62-4.45,5.23-8.77,10.57-13.1,15.9-3.61,4.46-3.8,9.6-.08,13.32,7.61,7.61,15.42,15.02,23.19,22.48,2.12,2.03,4.66,3.24,8.13,3.15,3.72.18,6.51-2.44,9.39-4.85,4.27-3.58,8.49-7.21,12.77-10.78,1.57-1.31,3.3-1.95,5.33-.86,5.69,3.05,11.82,5.06,17.89,7.16,2.33.81,3.21,2.24,3.45,4.44,15.61-6.44,31.22-12.87,46.82-19.33,12.31-5.1,24.59-10.28,36.89-15.41ZM265.81,368.9c.2-38.89,32.46-70.59,71.78-70.55,39.52.04,71.38,31.67,71.3,70.78.85,36.93-31.12,71.32-72.49,70.79-38.46-.49-70.79-32.65-70.59-71.03Z"/>
  <path class="cls-1" d="M305.62,492.37c21.69-8.95,43.39-17.88,65.07-26.86,12.31-5.1,24.59-10.28,36.89-15.41,11.18-4.66,22.35-9.34,33.57-13.9,2.36-.96,3.28-2.35,3.45-5.16,1.38-21.93,9.91-39.62,27.05-51.71,27.03-19.06,63.23-10.13,79.31,8.66,4.84,5.66,3.95,8.49-2.53,10.35-6.97,2-13.77,4.57-20.55,7.14-6.51,2.47-12.87,5.3-19.33,7.88-1.28.51-2.85.69-3.18,2.26-1.93,9.41-4.99,18.72.56,28.55,4.04,7.16,10.47,11.2,17.16,13.98,4.5,1.87,9.02-1.9,13.34-3.47,11.08-4.05,22.16-8.15,32.78-13.35,3.6-1.76,5.97-.06,6.46,4.68,2.12,20.68-4.84,37.39-18.97,50.24-22.52,20.48-57.44,19.88-82.15-.96-2.49-2.1-4.36-2.34-6.96-.84-19.4,11.19-38.81,22.35-58.33,33.33-15.96,8.98-32.09,17.67-48.09,26.57-6.07,3.38-11.96,7.09-18.04,10.47-17.09,9.51-39.01,6.96-52.72-12.92-13.26-19.24-9.37-44.34,7.92-55.76,2.26-1.49,4.89-2.41,7.35-3.59-.03-.06-.05-.12-.08-.18Z"/>
  <path class="cls-1" d="M646.96,574.69c-1.87,7.21-6.5,11.36-13.86,12.48h0c-.44-.02-.87-.07-1.31-.07-114.29,0-228.57,0-342.86.02-39.48,0-78.96.03-118.44.05-3.34-.8-6.61-1.61-9.33-4.02-3.39-3.01-4.56-6.91-5.14-11.15-.78-.97-.4-2.11-.4-3.16-.02-114.22-.02-228.44,0-342.66,0-1.05-.38-2.19.4-3.17,1.19-6.57,4.33-11.5,11.12-13.49,2.59-.76,5.2-.52,7.81-.52,86.84-.02,173.68-.02,260.53-.02,14.3,0,28.6,0,42.9,0,2.95-10.92,7.31-21.26,12.88-30.81-107.52,0-215.04,0-322.56-.02-2.98,0-5.89.38-8.76,1.02-21.06,4.74-34.91,22.14-34.91,43.83,0,116.64,0,233.27-.02,349.91,0,2.85.25,5.66.67,8.48,2.8,19.01,21.13,35.74,40.16,36.59.84-.36,1.72-.22,2.59-.22,53.97,0,107.93,0,161.9,0,.95,0,1.98-.31,2.85.38,0,8.75-.14,17.5.08,26.25.07,2.89-.88,3.29-3.46,3.28-20.34-.11-40.69-.15-61.03-.02-10.19.07-17.68,4.76-22.01,14.13-2.05,4.43-1.6,9.17-1.59,13.85,0,8.08,3.91,11.99,11.97,11.99,78.86,0,157.73,0,236.59,0,17.28,0,34.56.01,51.85,0,8.09-.01,12.13-4.05,12.14-12.02,0-.77-.05-1.54.01-2.3,1.11-14.76-10.07-26.13-25.8-25.8-19.46.42-38.94,0-58.41.19-3.31.03-3.85-.94-3.78-3.96.21-8.53.06-17.06.05-25.59,27.23-.02,54.47-.02,81.7-.05,28.55-.03,57.09-.07,85.64-.11h0s0,0,0,0c4.06-.1,7.94-1.12,11.71-2.52,16.08-5.99,28.4-21.95,28.94-37.48.07-2.19.21-4.37.21-6.56.01-76.11.01-152.21.01-228.32-9.39,7.17-19.8,13.06-30.99,17.41,0,71.38-.03,142.76-.04,214.13Z"/>
</svg>