<?xml version="1.0" encoding="UTF-8"?>
<svg id="Ebene_1" xmlns="http://www.w3.org/2000/svg" viewBox="0 0 800 800">
  <defs>
    <style>
      .cls-1 {
        fill: #fe9d0f;
      }

      .cls-2 {
        fill: #2f4b64;
      }
    </style>
  </defs>
  <path class="cls-2" d="M197.99,688.93c-15.15-.72-25.46-10.23-27.51-23.98-1.9-12.67-5.26-25.12-7.99-37.67-7.04-32.29-14.12-64.56-21.11-96.86-7.67-35.45-15.27-70.91-22.87-106.37-2.09-9.76-4.4-19.5-6.01-29.35-1.34-8.18,1.11-15.04,6.93-21.64,7.76-8.77,18.36-8.44,28-11.34,5.27-1.58,11.08-1.18,16.12-2.9,8.23-2.81,16.65-4.61,25.1-6.01,15.79-2.62,31.24-6.75,46.92-9.82,3.86-.75,7.49-2.71,11.36-3.38,16.8-2.92,33.09-8.26,49.92-10.85,7.62-1.17,14.83-3.78,22.56-4.64,7.91-.88,15.57-3.93,23.37-5.92,14.12-3.6,28.19,5.76,31.31,20.7,3.49,16.73,7.03,33.45,10.53,50.18,3.34,15.99,6.63,31.99,9.99,47.97.49,2.35-.59,3.86-2.15,5.41-10.18,10.13-20.31,20.3-30.44,30.49-4.61,4.63-6.98,10.11-6.49,16.79.27,3.7,1.81,6.83,3.77,9.74,5.07,7.55,5.19,14.92.38,22.74-6.63,10.79-5.64,18.23,3.39,27.37,18.52,18.75,36.86,37.69,55.88,55.92,6.24,5.98,6.57,11.95,4.41,19.09-3.18,10.56-10.87,16.19-21.19,18.58-14.15,3.28-28.35,6.35-42.53,9.53-27.32,6.13-54.65,12.21-81.95,18.42-24.17,5.5-48.31,11.15-72.46,16.71-2.73.63-5.46,1.37-7.23,1.07ZM256.71,519.92c37.55-3.15,67.21-29.42,67.44-70.8.23-40.1-31.77-70.24-70.14-70.4-40.23-.17-73.08,34.19-69.53,76.37,2.69,31.9,26.58,63.25,72.23,64.83Z"/>
  <path class="cls-2" d="M472.87,403.71c-6.48-7.49-12.22-14.21-18.07-20.83-1.28-1.45-1.63-2.96-1.62-4.81.04-42.2-.18-84.4.17-126.6.09-11.15,5.18-19.99,15.05-26.46,7.83-5.13,15.91-6.46,24.86-6.44,52.12.13,104.24.03,156.37.11,7.27.01,14.47,1.24,20.38,5.81,9.55,7.37,15.36,16.61,15.35,29.38-.15,106.02-.07,212.04-.08,318.06,0,8.06.14,16.1-.64,24.16-1.09,11.19-12.72,23.73-25.34,26.93-3.19.81-6.4,1.01-9.67,1-52.71-.01-105.43-.06-158.14.03-7.47.01-14.3-1.77-20.67-5.5-2.23-1.31-3.74-2.2-1.29-5.46,6.9-9.15,14.29-17.98,19.85-28.11,5.04-9.17,9.53-18.58,12.64-28.57.95-3.04,2.42-3.64,5.34-3.63,49.16.09,98.32.07,147.48.08,7.77,0,10.63-2.66,10.67-10.56.09-19.4.04-38.8.04-58.19,0-66.04,0-132.08,0-198.12,0-1.78.06-3.56-.07-5.33-.5-6.79-3.37-9.45-10.07-9.45-57.3,0-114.61,0-171.91,0-7.72,0-10.55,2.76-10.58,10.65-.05,21.17-.03,42.35-.03,63.52,0,19.09,0,38.18,0,58.34ZM569.34,254.99c8.72,0,17.45,0,26.17,0,5.44,0,7.34-1.67,7.3-6.41-.04-4.79-1.72-6.21-7.44-6.22-17.45-.03-34.9-.04-52.34-.05-5.22,0-6.92,1.66-6.91,6.68,0,4.18,2.1,5.98,7.06,5.99,8.72.02,17.45,0,26.17,0ZM569.2,598.12c5.33,0,10.67.2,15.98-.09,2.58-.14,5.49-.07,6.88-3.43,3.28-7.95.18-12.99-8.52-13.12-9.03-.13-18.06-.04-27.08.01-1.76,0-3.57.06-5.27.44-4.61,1.04-7.01,4.48-6.55,9.05.42,4.14,3.55,6.99,8.15,7.09,5.47.12,10.95.03,16.43.04Z"/>
  <path class="cls-1" d="M260.69,136.07c38.35,0,76.7.07,115.04-.04,17.19-.05,28.74,13.72,28.57,28.4-.34,29.46-.08,58.93-.13,88.39-.03,17-12.04,28.93-29.11,28.93-76.1,0-152.21,0-228.31-.01-18.5,0-30.11-11.74-30.08-30.14.05-28.72.02-57.45.02-86.17,0-17.79,11.54-29.35,29.4-29.36,38.2-.01,76.4,0,114.6,0ZM152.95,208.63c0,10.07,0,20.13,0,30.2,0,12.31-1.2,10.79,11.37,10.96,3.51.05,4.71-1.55,4.62-4.87-.13-5.18-.03-10.36-.03-15.54,0-7.15.02-6.93,7.23-7.24,3.52-.15,5.31.93,6.59,4.21,1.86,4.79,4.27,9.38,6.47,14.04,5.46,11.56,1.89,9.1,14.76,9.35,5.81.11,6.94-1.71,4.47-6.95-3.39-7.19-6.88-14.35-10.31-21.53-.67-1.41-1.84-2.8.24-4.16,8.81-5.78,10.99-14.42,10.55-24.28-.56-12.63-8.86-22.07-21.28-24-9.72-1.51-19.5-.29-29.24-.73-3.99-.18-5.55,1.41-5.49,5.47.17,11.69.06,23.39.05,35.08ZM315.56,208.69c0,11.98.07,23.97-.04,35.95-.03,3.51,1.13,5.23,4.84,5.16,6.8-.14,13.62.1,20.42-.12,15.88-.51,27.78-8.83,32.49-22.89,3.85-11.51,4.06-23.28.34-34.81-4.33-13.41-13.64-21.25-27.83-23.2-8.27-1.14-16.54-.29-24.81-.66-4.01-.18-5.51,1.48-5.46,5.51.17,11.69.06,23.38.05,35.07ZM224.04,208.76c0,10.07.03,20.13,0,30.2-.04,12.11-.77,10.66,11.13,10.85,3.73.06,4.97-1.5,4.9-5.03-.13-7.25.07-14.51-.1-21.76-.06-2.65.56-3.69,3.41-3.53,4.43.24,8.88.08,13.32.07,11.4-.03,10.59,1.77,10.61-11.31,0-3.15-1.38-4.85-4.91-4.74-6.36.18-12.73-.06-19.09.07-2.41.05-3.47-.49-3.33-3.16.22-4.13.22-8.3,0-12.43-.15-2.72,1.02-3.18,3.38-3.12,5.33.13,10.66.02,15.99.03,11.47.04,10.83,1.12,10.94-11.16.04-4.33-1.73-5.74-5.83-5.69-11.55.14-23.09.04-34.64.07-5.13.01-5.75.66-5.76,5.99-.01,11.55,0,23.09,0,34.64ZM299.24,208.9h.01c0-10.35.01-20.69,0-31.04q-.02-9.67-9.72-9.73c-5.91-.03-6.61.66-6.61,6.56,0,21.73.07,43.46,0,65.18-.04,11.35.35,9.84,9.88,9.89,5.75.03,6.43-.69,6.43-6.72.01-11.38,0-22.76,0-34.14Z"/>
  <path class="cls-2" d="M485.3,510.65c-1.32,31.67-10.93,60.45-32.16,84.87-4.19,4.82-10.31,5.83-14.69,2.23-4.71-3.86-5.23-10.36-.97-15.4,5.65-6.68,10.62-13.79,14.76-21.5,20.24-37.72,14.52-87.21-13.82-119.33-5.23-5.93-4.86-12.97.91-17.32,4.1-3.09,9.38-2.97,12.86.83,15.39,16.78,25.27,36.34,29.89,58.71,1.82,8.84,2.74,17.68,3.22,26.91Z"/>
  <path class="cls-2" d="M443.74,501.73c1.41,11.92.16,23.64-3.3,35.06-3.33,10.96-8.8,20.86-16.06,29.75-3.58,4.38-8.49,5.63-12.91,3.15-4.74-2.66-6.9-8.68-4.77-13.77.67-1.6,1.7-3.11,2.81-4.46,9.22-11.26,12.77-24.6,13.23-38.7.51-15.79-4.17-30.14-14.34-42.5-4.95-6.02-4.11-13.22,1.91-17.21,3.81-2.52,8.45-2.2,11.82.83,9.9,8.88,21.7,35.02,21.6,47.85Z"/>
  <path class="cls-2" d="M402.68,508.82c.06,11.83-2.78,20.45-8.11,28.26-3.6,5.27-8.92,6.51-13.77,3.33-5.08-3.33-6.22-8.87-2.92-14.2,6.3-10.18,5.91-20.34-.15-30.46-3.01-5.03-1.4-11.19,3.64-13.94,3.19-1.74,10.55.15,13.07,3.37,5.97,7.62,7.84,16.56,8.24,23.64Z"/>
  <path class="cls-1" d="M310.48,449.35c-.03,31.83-24.64,56.51-56.46,56.32-32.13-.19-56.42-27.34-55.98-57.24.46-31.05,25.48-56.74,56.46-56.32,31.33.42,56.23,25.52,55.98,57.25ZM255.48,423.02c-13.98-.2-25.9,3.42-36.52,11.15-4.07,2.96-4.69,5.62-2.42,8.97,2.31,3.4,5.68,3.85,9.62,1.3,18.53-12,37.14-11.55,55.77-.27,4.65,2.81,7.99,2.49,10.36-1.19,2.13-3.31,1.21-5.99-3.26-9.13-10.33-7.23-21.72-11.09-33.55-10.82ZM272.13,464.41c2.65.01,5.89-2.38,6.68-5.05.83-2.83-.49-4.79-2.68-6.44-12.13-9.15-30.67-9.29-43.13-.28-3.79,2.74-4.58,5.48-2.46,8.54,2.32,3.36,6,4.18,9.66,1.8,9.3-6.06,18.54-5.87,27.87-.17,1.25.76,2.52,1.56,4.07,1.6ZM261.39,476.33c.02-4.91-2.53-7.85-6.87-7.95-4.58-.1-7.38,2.92-7.37,7.95,0,4.95,2.9,8.09,7.39,8.01,4.25-.08,6.83-3.09,6.85-8.01Z"/>
  <path class="cls-1" d="M168.91,194.89q0-9.97,10.07-9.98c1.77,0,3.56-.11,5.3.12,5.64.74,8.95,4.99,8.65,10.88-.28,5.42-4.16,9.33-9.65,9.51-3.83.13-7.68-.1-11.51.1-2.47.13-3.02-.91-2.9-3.1.14-2.5.03-5.02.03-7.52Z"/>
  <path class="cls-1" d="M331.65,208.5c0-6.65.16-13.31-.07-19.95-.11-3.02.91-3.96,3.76-3.65,1.75.19,3.54.01,5.32.03,9.6.13,15.54,4.59,18.06,13.79,1.87,6.83,1.79,13.76-.05,20.56-2.36,8.74-7.58,12.62-17.09,13.13q-9.96.53-9.94-9.29c0-4.88,0-9.76,0-14.63h.02Z"/>
</svg>