<?xml version="1.0" encoding="UTF-8"?>
<svg id="Ebene_1" xmlns="http://www.w3.org/2000/svg" viewBox="0 0 800 800">
  <defs>
    <style>
      .cls-1 {
        fill: #3d4f69;
      }

      .cls-2 {
        fill: #f90;
      }

      .cls-3 {
        fill: #324d64;
      }
    </style>
  </defs>
  <g>
    <g>
      <path class="cls-2" d="M748.04,206.93c-5.61-8.25-13.29-13.09-23.74-12.78-7.1.21-14.21.04-21.32.04-7.44,0-14.88.02-22.32,0-8.37-.02-15.16,3.36-19.83,10.18-10.21,14.9-11.27,31.22-5.38,47.78,5.35,15.03,14.84,25.94,29.49,30.78-.34,1.08-.52,2.23-.52,3.42v10.96c0,5.27,3.58,9.7,8.44,11.01.42,6.52.58,13.12.45,19.68-.28,14.09-.45,22.59-3.04,31.69-2.08,7.33-6.96,24.48-18.06,29.26-2.15.92-3.09.95-11.17.3-4.47-.36-10.59-.85-19.23-1.15-9.46-.33-18.96-.33-28.25,0-5.85.21-10.42,5.12-10.22,10.97.21,5.85,5.1,10.42,10.97,10.22,8.79-.31,17.8-.31,26.76,0,8.16.29,13.76.74,18.27,1.1,3.41.27,6.29.51,8.97.51,4.2,0,7.89-.57,12.28-2.46,20.36-8.76,27.17-32.71,30.07-42.94,3.34-11.74,3.54-21.81,3.84-37.07.13-6.57,0-13.2-.37-19.75.08-.11.15-.22.21-.34,4.87-1.3,8.47-5.74,8.47-11.02v-10.96c0-1.05-.15-2.06-.42-3.02,9.31-3.4,16.59-9.8,22.72-17.78,13.3-17.31,14.59-41.47,2.93-58.62ZM710.64,274.22c-20.86,3.58-44.21-11.41-47.26-34.8-1.2-9.24.13-17.82,4.64-25.92,2.93-5.25,7.32-8.05,13.5-7.97,7.33.1,14.66.02,21.99.02h0c7.11-.01,14.22.15,21.32-.06,5.73-.18,9.79,2.36,12.73,6.95,15.04,23.44,3.81,56.51-26.92,61.79Z"/>
      <path class="cls-2" d="M679.37,231.13c-3.94-.21-7.64,3.14-7.78,7.06-.13,3.69,3.27,7.22,7.08,7.34,3.95.12,7.36-2.97,7.52-6.83.16-3.88-2.99-7.37-6.83-7.57Z"/>
      <path class="cls-2" d="M714.96,250.98c-3.61-.11-7.3,3.56-7.3,7.26,0,3.89,3.26,7.22,7.12,7.28,3.92.06,7.25-3.13,7.34-7.05.09-3.57-3.56-7.38-7.16-7.49Z"/>
      <path class="cls-2" d="M691.34,226.86c3.7-.1,6.92-3.39,6.94-7.08.02-4.1-3.35-7.65-7.18-7.56-3.72.09-6.85,3.29-6.92,7.08-.07,4.11,3.3,7.67,7.16,7.56Z"/>
      <path class="cls-2" d="M715.56,226.77c4.01.11,7.32-3.26,7.29-7.43-.02-4-3.18-7.18-7.12-7.15-3.93.03-6.92,3.2-6.91,7.31,0,3.84,3.09,7.17,6.74,7.26Z"/>
      <path class="cls-2" d="M710.35,238.16c-.07-3.79-3.23-7.02-6.92-7.07-3.96-.06-7.31,3.38-7.26,7.45.06,3.86,3.44,7.1,7.29,6.99,3.97-.12,6.97-3.33,6.89-7.37Z"/>
      <path class="cls-2" d="M692.28,250.86c-3.53.04-6.79,3.53-6.77,7.24.03,3.92,3.01,6.9,6.92,6.93,4.2.02,7.13-2.88,7.1-7.03-.03-3.84-3.42-7.18-7.25-7.13Z"/>
      <path class="cls-2" d="M728.36,230.85c-3.99-.11-7.41,2.95-7.52,6.73-.11,3.72,3.29,7.18,7.13,7.28,3.86.09,6.87-2.87,6.94-6.84.07-4.06-2.67-7.06-6.55-7.17Z"/>
    </g>
    <path class="cls-2" d="M574.63,221.05c-.31-.15-.64-.19-.99-.21-.38-.02-.77-.01-1.16-.01-5.59-.01-11.18,0-16.78-.02-.32-.01-.65-.03-.95-.12-.88-.21-.68-1.1-.5-1.89,1.13-4.01,1.23-5.06,2.4-9.95.64-2.58,1.44-5.84,2.09-8.38.52-1.83,1.02-3.68,1.56-5.51.11-.41.24-.84.13-1.26-.12-.43-.54-.74-.94-.68-.31.05-.6.31-.84.57-.51.56-.96,1.2-1.43,1.84-5.55,7.67-16.96,21.16-16.96,21.16l-3.54,4.38s-7.72,8.93-12.57,15.34c-.27.35-.49.71-.72,1.07-.35.51-.54,1.13-.32,1.77h0c.35,1.12,1.38,1.47,2.32,1.53.47.03.94.02,1.41.02,5.6,0,11.19-.01,16.79,0,.21,0,.44.02.65.05.74.1.92.41.78,1.24-.09.53-.25,1.06-.38,1.57-2.73,10-5.68,20.44-8.39,30.34-.13.49-.29.96-.42,1.46-.09.34-.13.74.02,1.06.17.35.52.57.87.53.26-.02.49-.2.7-.43.27-.31.5-.66.74-1,7.87-10.77,15.78-22.11,23.73-33.02,4.55-6,9.03-12.08,13.13-18.48.32-.56.54-1.17.4-1.81-.1-.52-.42-.97-.84-1.17Z"/>
    <path class="cls-1" d="M632.39,388.95c0-.29,0-.58.02-.87-.05,0-.1,0-.15,0v-216.11c0-16.55-13.41-29.96-29.96-29.96h-106.09c-16.55,0-29.96,13.41-29.96,29.96v254.65c0,16.55,13.41,29.96,29.96,29.96h106.09c16.55,0,29.96-13.41,29.96-29.96v-18.39s.09,0,.13,0v-19.28ZM599.24,275.34c0,8.82-7.15,15.97-15.97,15.97h-68.05c-8.82,0-15.97-7.15-15.97-15.97v-86.91c0-8.82,7.15-15.97,15.97-15.97h68.05c8.82,0,15.97,7.15,15.97,15.97v86.91Z"/>
  </g>
  <g>
    <g>
      <path class="cls-2" d="M389.04,444.93c-5.61-8.25-13.29-13.09-23.74-12.78-7.1.21-14.21.04-21.32.04-7.44,0-14.88.02-22.32,0-8.37-.02-15.16,3.36-19.83,10.18-10.21,14.9-11.27,31.22-5.38,47.78,5.35,15.03,14.84,25.94,29.49,30.78-.34,1.08-.52,2.23-.52,3.42v10.96c0,5.27,3.58,9.7,8.44,11.01.42,6.52.58,13.12.45,19.68-.28,14.09-.45,22.59-3.04,31.69-2.08,7.33-6.96,24.48-18.06,29.26-2.15.92-3.09.95-11.17.3-4.47-.36-10.59-.85-19.23-1.15-9.46-.33-18.96-.33-28.25,0-5.85.21-10.42,5.12-10.22,10.97.21,5.85,5.1,10.42,10.97,10.22,8.79-.31,17.8-.31,26.76,0,8.16.29,13.76.74,18.27,1.1,3.41.27,6.29.51,8.97.51,4.2,0,7.89-.57,12.28-2.46,20.36-8.76,27.17-32.71,30.07-42.94,3.34-11.74,3.54-21.81,3.84-37.07.13-6.57,0-13.2-.37-19.75.08-.11.15-.22.21-.34,4.87-1.3,8.47-5.74,8.47-11.02v-10.96c0-1.05-.15-2.06-.42-3.02,9.31-3.4,16.59-9.8,22.72-17.78,13.3-17.31,14.59-41.47,2.93-58.62ZM351.64,512.22c-20.86,3.58-44.21-11.41-47.26-34.8-1.2-9.24.13-17.82,4.64-25.92,2.93-5.25,7.32-8.05,13.5-7.97,7.33.1,14.66.02,21.99.02h0c7.11-.01,14.22.15,21.32-.06,5.73-.18,9.79,2.36,12.73,6.95,15.04,23.44,3.81,56.51-26.92,61.79Z"/>
      <path class="cls-2" d="M320.37,469.13c-3.94-.21-7.64,3.14-7.78,7.06-.13,3.69,3.27,7.22,7.08,7.34,3.95.12,7.36-2.97,7.52-6.83.16-3.88-2.99-7.37-6.83-7.57Z"/>
      <path class="cls-2" d="M355.96,488.98c-3.61-.11-7.3,3.56-7.3,7.26,0,3.89,3.26,7.22,7.12,7.28,3.92.06,7.25-3.13,7.34-7.05.09-3.57-3.56-7.38-7.16-7.49Z"/>
      <path class="cls-2" d="M332.34,464.86c3.7-.1,6.92-3.39,6.94-7.08.02-4.1-3.35-7.65-7.18-7.56-3.72.09-6.85,3.29-6.92,7.08-.07,4.11,3.3,7.67,7.16,7.56Z"/>
      <path class="cls-2" d="M356.56,464.77c4.01.11,7.32-3.26,7.29-7.43-.02-4-3.18-7.18-7.12-7.15-3.93.03-6.92,3.2-6.91,7.31,0,3.84,3.09,7.17,6.74,7.26Z"/>
      <path class="cls-2" d="M351.35,476.16c-.07-3.79-3.23-7.02-6.92-7.07-3.96-.06-7.31,3.38-7.26,7.45.06,3.86,3.44,7.1,7.29,6.99,3.97-.12,6.97-3.33,6.89-7.37Z"/>
      <path class="cls-2" d="M333.28,488.86c-3.53.04-6.79,3.53-6.77,7.24.03,3.92,3.01,6.9,6.92,6.93,4.2.02,7.13-2.88,7.1-7.03-.03-3.84-3.42-7.18-7.25-7.13Z"/>
      <path class="cls-2" d="M369.36,468.85c-3.99-.11-7.41,2.95-7.52,6.73-.11,3.72,3.29,7.18,7.13,7.28,3.86.09,6.87-2.87,6.94-6.84.07-4.06-2.67-7.06-6.55-7.17Z"/>
    </g>
    <path class="cls-2" d="M215.63,459.05c-.31-.15-.64-.19-.99-.21-.38-.02-.77-.01-1.16-.01-5.59-.01-11.18,0-16.78-.02-.32-.01-.65-.03-.95-.12-.88-.21-.68-1.1-.5-1.89,1.13-4.01,1.23-5.06,2.4-9.95.64-2.58,1.44-5.84,2.09-8.38.52-1.83,1.02-3.68,1.56-5.51.11-.41.24-.84.13-1.26-.12-.43-.54-.74-.94-.68-.31.05-.6.31-.84.57-.51.56-.96,1.2-1.43,1.84-5.55,7.67-16.96,21.16-16.96,21.16l-3.54,4.38s-7.72,8.93-12.57,15.34c-.27.35-.49.71-.72,1.07-.35.51-.54,1.13-.32,1.77h0c.35,1.12,1.38,1.47,2.32,1.53.47.03.94.02,1.41.02,5.6,0,11.19-.01,16.79,0,.21,0,.44.02.65.05.74.1.92.41.78,1.24-.09.53-.25,1.06-.38,1.57-2.73,10-5.68,20.44-8.39,30.34-.13.49-.29.96-.42,1.46-.09.34-.13.74.02,1.06.17.35.52.57.87.53.26-.02.49-.2.7-.43.27-.31.5-.66.74-1,7.87-10.77,15.78-22.11,23.73-33.02,4.55-6,9.03-12.08,13.13-18.48.32-.56.54-1.17.4-1.81-.1-.52-.42-.97-.84-1.17Z"/>
    <path class="cls-1" d="M273.39,626.95c0-.29,0-.58.02-.87-.05,0-.1,0-.15,0v-216.11c0-16.55-13.41-29.96-29.96-29.96h-106.09c-16.55,0-29.96,13.41-29.96,29.96v254.65c0,16.55,13.41,29.96,29.96,29.96h106.09c16.55,0,29.96-13.41,29.96-29.96v-18.39s.09,0,.13,0v-19.28ZM240.24,513.34c0,8.82-7.15,15.97-15.97,15.97h-68.05c-8.82,0-15.97-7.15-15.97-15.97v-86.91c0-8.82,7.15-15.97,15.97-15.97h68.05c8.82,0,15.97,7.15,15.97,15.97v86.91Z"/>
  </g>
  <path class="cls-3" d="M419.54,642.18c25.75.09,49.84-2.87,73.09-11.09,46.11-16.32,81.59-44.99,103.63-89.3,6.78-13.63,10.67-28.14,13.49-42.98,1.29-6.77-2.36-12.64-8.29-13.82-6.43-1.28-12.28,2.35-13.66,9.29-5.23,26.28-16.47,49.57-34.08,69.75-23.43,26.84-53.08,43.07-87.57,50.83-13.99,3.15-28.19,4.61-41.4,4.11,2.31-2.68,5.1-6.06,8.04-9.3,4.96-5.47,5.32-11.67.84-16.52-4.25-4.61-10.47-4.87-16.01-.17-10.15,8.61-20.57,16.87-31.12,24.99-9.37,7.21-9.38,13.79-.62,21.66,10.17,9.13,19.5,19.11,29.01,28.91,3.75,3.87,9.27,4.79,13.72,2.61,4.45-2.19,6.95-6.85,6.36-11.95-.39-3.33-2.25-5.82-4.71-7.93-1.64-1.41-3.25-2.85-4.9-4.25-1.63-1.38-3.29-2.73-5.81-4.82Z"/>
  <path class="cls-3" d="M213.34,313c5.3-17.87,13.33-33.55,24.14-47.78,27.58-36.34,64.57-56.22,109.45-62.2,8.43-1.12,16.89-1.63,25.38-1.88,6.73-.2,11.57-4.58,11.65-10.49.09-5.94-5.15-11.5-11.43-11.61-79.61-1.31-147.23,42.33-176.22,112.07-2.45,5.9-4.49,11.96-6,19.02-2.71-4.34-4.93-8.13-7.39-11.76-4.38-6.45-11.11-7.97-16.73-3.95-4.7,3.35-5.91,10.87-1.82,16.9,6.89,10.14,12.92,20.87,19.27,31.37,5.07,8.4,10.92,9.87,19.02,4.62,10.58-6.86,21.12-13.78,32.02-20.15,7.27-4.25,9.11-10.42,5.42-16.72-3.55-6.05-10.15-7.23-17.36-3.05-2.86,1.66-5.69,3.39-9.4,5.61Z"/>
</svg>