<?xml version="1.0" encoding="UTF-8"?>
<svg id="Ebene_1" xmlns="http://www.w3.org/2000/svg" viewBox="0 0 800 800">
  <defs>
    <style>
      .cls-1 {
        fill: #fca414;
      }

      .cls-2 {
        fill: #324d67;
      }
    </style>
  </defs>
  <path class="cls-2" d="M634.89,467.46c-5.13-1.72-7.09,1.03-8.08,4.21-5.19,16.72-11.88,32.8-20.38,48.09-1.51,2.71.1,4,1.22,5.66,7.48,11.11,15,22.19,22.55,33.25,5.8,8.52,5.49,12.61-1.74,19.84-18.07,18.08-36.15,36.14-54.24,54.19-5.57,5.56-10.01,6.04-16.69,1.49-11.26-7.65-22.48-15.36-33.58-23.25-2.74-1.95-4.83-2.66-8.08-.88-13.64,7.45-28.14,12.88-43.1,16.98-4.85,1.33-6.88,3.97-7.8,8.66-2.37,12.09-5,24.13-7.76,36.13-2.23,9.74-6.98,13.37-16.88,13.38-24.05.01-48.09,0-72.14,0-9.17,0-11.92-2.17-13.79-11.04-2.65-12.59-4.49-25.33-7.71-37.82-1.17-4.54-2.78-7.41-7.7-8.88-14.87-4.43-29.34-10.02-42.88-17.71-3.01-1.71-5.15-.98-7.61.7-11.06,7.55-22.15,15.07-33.25,22.56-9.16,6.18-13.09,5.57-20.8-2.25-17.04-17.27-34.24-34.36-51.35-51.57-7.86-7.91-8.12-12.31-1.84-21.5,7.31-10.7,14.37-21.58,21.76-32.22,2.03-2.92,1.95-5.06.28-8.15-7.19-13.27-13.14-27.1-17.07-41.7-1.25-4.66-3.43-6.94-8.69-7.76-12.34-1.93-24.54-4.76-36.73-7.55-8.72-1.99-11.37-5.61-11.39-14.67-.05-24.7-.05-49.39,0-74.09.02-10.01,3.04-13.19,12.85-15.38,10.8-2.41,21.64-4.31,32.7-5.07,5.46-.37,9.05-2.5,10.68-8.63,3.95-14.83,9.92-28.96,18.02-42.04,2.02-3.26,1.93-5.38-.17-8.38-8.39-11.99-17.2-23.71-24.68-36.32-2.95-4.97-2.31-9.47,1.7-13.5,18.94-19.04,37.85-38.11,56.91-57.04,4.81-4.78,9.9-5,15.85-.96,11.62,7.88,23.17,15.88,34.61,24.02,3.21,2.28,5.75,2.4,9.29.46,13.99-7.66,28.44-14.44,43.85-18.72,3.89-1.08,4.53-3.72,5.14-6.5,2.85-13.03,5.55-26.1,8.13-39.19,1.71-8.68,3.6-10.42,12.46-10.42,24.7,0,49.39,0,74.09,0,13.59,0,14.91,1.11,16.4,14.47,1.44,12.97,5.38,25.4,8.02,38.1.53,2.54,2.1,3.9,4.67,4.72,15.77,5.05,31.25,10.89,46.02,18.41,3.35,1.71,5.31.18,7.56-1.42,10.22-7.26,20.35-14.64,30.62-21.82,7.61-5.32,16.67-4.2,23.08,2.33,16.24,16.54,32.46,33.09,48.92,49.4,2.64,2.61,4.81,5.58,6.64,8.52,3.26,5.21-.84,9.81-3.48,13.89-7.01,10.9-14.5,21.49-21.83,32.18-1.61,2.35-2.97,4.2-.86,7.43,8.16,12.53,13.82,26.25,18.3,40.49,2.73,8.67,5.16,9.86,14.07,10.56,11.33.89,22.49,3.17,33.39,6.42,5.66,1.68,8.29,6.18,8.32,11.78.13,25.56.22,51.13-.05,76.68-.09,8.83-2.96,12.05-11.39,14.14-11.65,2.89-23.23,6.24-34.41,7.26ZM579.45,409.83c1.36-94.22-78.43-175.47-179.96-171.67-87.85,3.29-166.9,71.37-168,169.92-.54,48.43,16.32,90.6,50.86,124.86,43.95,43.6,97.66,58.47,157.56,47.66,34.16-6.16,64.34-22.7,89.1-48.11,33.34-34.21,49.89-75.1,50.44-122.67Z"/>
  <g>
    <path class="cls-2" d="M308.14,388.7v124.86c0,8.01,6.49,14.5,14.5,14.5h0c8.01,0,14.5-6.49,14.5-14.5v-124.89c-4.35,2.26-9.29,3.54-14.53,3.54s-10.13-1.27-14.47-3.51Z"/>
    <path class="cls-2" d="M337.14,332.54v-26.98c0-8.01-6.49-14.5-14.5-14.5h0c-8.01,0-14.5,6.49-14.5,14.5v26.95c4.34-2.24,9.25-3.51,14.47-3.51s10.18,1.28,14.53,3.54Z"/>
    <path class="cls-2" d="M419.64,422.74v-117.18c0-8.01-6.49-14.5-14.5-14.5h0c-8.01,0-14.5,6.49-14.5,14.5v117.65c4.45-2.4,9.55-3.76,14.96-3.76,5.04,0,9.81,1.19,14.04,3.29Z"/>
    <path class="cls-2" d="M390.64,478.9v34.66c0,8.01,6.49,14.5,14.5,14.5h0c8.01,0,14.5-6.49,14.5-14.5v-34.19c-4.23,2.1-9,3.29-14.04,3.29-5.41,0-10.51-1.36-14.96-3.76Z"/>
    <path class="cls-2" d="M473.14,420.01v93.55c0,8.01,6.49,14.5,14.5,14.5h0c8.01,0,14.5-6.49,14.5-14.5v-93.8c-4.4,2.33-9.42,3.65-14.74,3.65s-9.97-1.23-14.26-3.4Z"/>
    <path class="cls-2" d="M502.14,363.85v-58.29c0-8.01-6.49-14.5-14.5-14.5h0c-8.01,0-14.5,6.49-14.5,14.5v58.04c4.28-2.17,9.13-3.4,14.26-3.4s10.34,1.32,14.74,3.65Z"/>
  </g>
  <circle class="cls-1" cx="322.5" cy="360.5" r="26.5"/>
  <circle class="cls-1" cx="487.5" cy="391.5" r="26.5"/>
  <circle class="cls-1" cx="405.5" cy="451.5" r="26.5"/>
</svg>