<?xml version="1.0" encoding="UTF-8"?>
<svg id="Ebene_1" xmlns="http://www.w3.org/2000/svg" viewBox="0 0 800 800">
  <defs>
    <style>
      .cls-1 {
        fill: #3d4f69;
      }

      .cls-2 {
        fill: #f90;
      }
    </style>
  </defs>
  <path class="cls-2" d="M633.09,191.73c-5.97-3.43-13.31-6.69-20.48-8.59l-8.13-32.3c-2.04-5.3-9.54-9.93-15.01-9.26l-57.41,7.04c-5.47.67-11.63,6.98-12.16,13.98l-.08,33.31c-6.5,3.57-11.46,8.34-17.8,13.28l-32.95-8.45c-7.17-1.9-13.67,1.68-15.73,7.48l-23,50c-3.43,5.97-1.06,14.01,4.91,17.44l28.49,17.32,1.17,9.57c.34,2.73.84,6.83,1.34,10.94l-24.82,23.86c-4.96,4.77-5.33,13.14-.55,18.11l34.58,44.32c4.77,4.96,10.58,7.03,17.07,3.46l31.13-17.7c5.97,3.43,13.31,6.69,20.48,8.59l8.13,32.3c2.04,5.3,9.54,9.93,15.01,9.26l56.05-6.88c6.83-.84,11.63-6.98,12.16-13.98l.08-33.31c6.5-3.57,11.46-8.34,17.8-13.28l32.95,8.45c1.37-.17,2.9,1.03,5.64.7h0c5.47-.67,9.23-3.91,11.46-8.34l23-50c3.43-5.97,1.06-14.01-4.91-17.44l-28.49-17.32-1.17-9.57c-.34-2.73-.84-6.83-1.34-10.94l24.82-23.86c2.23-4.44,2.76-11.44-.65-16.57l-34.58-44.32M612.56,284.45c2.35,19.14-10.84,36.02-29.98,38.37s-36.02-10.84-38.37-29.98c-2.35-19.14,10.84-36.02,29.98-38.37,19.14-2.35,36.02,10.84,38.37,29.98Z"/>
  <path class="cls-1" d="M557.4,455.04c-5.4.55-12.69-4.15-14.59-9.41l-7.36-31.96c-7.02-2.01-14.18-5.37-19.99-8.86l-22.49,12.19c5.09,4.63,10.17,9.25,15.27,13.86,13.55,12.23,27.15,24.41,40.73,36.61,8.73,7.85,17.4,15.78,26.2,23.53,6.15,5.41,11.76,5.1,17.28-.79,3.56-3.8,7.17-7.57,10.07-12.01,3.63-4.3,7.52-8.38,10.81-12.94,3.71-5.15,3.52-11.08-.27-15.93-.13.02-.25.04-.38.06l-55.3,5.65Z"/>
  <path class="cls-1" d="M441.6,313.95c-.41-4.05-.83-8.09-1.1-10.79-.28-2.7-.55-5.4-.97-9.44l-27.7-17.61c-5.48-3.3-7.72-10.56-5.03-16.25-7.77-7.05-15.54-14.09-23.31-21.15-10-9.1-19.87-18.36-29.95-27.36-6.55-5.84-12.44-5.7-19.04-.06-2.28,1.95-4.55,3.89-6.76,5.92-8.43,7.76-16.84,15.55-25.25,23.33h0c-3.99,2.78-7.42,6.29-11.03,9.58-12.77,11.62-25.61,23.15-38.42,34.72-26.08,23.55-52.16,47.1-78.23,70.66-3.49,3.03-7.02,6.02-10.47,9.1-15.99,14.26-31.96,28.55-47.93,42.84-7.32,6.56-14.7,13.05-21.9,19.75-6.23,5.79-7.21,13.61-2.28,19.92,6.28,8.05,12.76,15.95,19.48,23.59,5.85,6.67,12.11,6.68,18.57.85,13.27-11.98,26.6-23.89,39.89-35.85,13.28-11.95,26.55-23.93,39.82-35.89,16.02-14.38,32.05-28.74,48.05-43.15,14.88-13.4,29.72-26.85,44.58-40.28,13.19-11.01,25.64-22.96,38.36-34.58,1.38-1.26,2.33-1.47,3.73-.18,8.74,7.96,17.52,15.87,26.29,23.79,10.58,9.56,21.15,19.15,31.76,28.67,3.41,3.06,6.83,6.11,10.25,9.16.58-2.36,1.82-4.58,3.67-6.29l24.91-22.99Z"/>
  <path class="cls-2" d="M450.64,309.45s.07-.02.1-.03c0-.02,0-.04,0-.06-.03.03-.06.06-.09.09Z"/>
  <path class="cls-1" d="M530.35,561.06c-.03-25.39-.14-50.78.01-76.17.05-8-2.22-14.39-8.76-18.72-.67-.44-1.21-1.1-1.82-1.65-14.36-12.8-28.73-25.6-43.08-38.41-15.27-13.64-30.52-27.32-45.8-40.94-15.18-13.53-30.42-26.98-45.6-40.51-12.33-10.99-24.67-21.96-36.88-33.09-4.13-3.77-5.65-4.12-9.9-.37-16.97,14.98-33.92,30-50.85,45.04-18.27,16.22-36.51,32.48-54.76,48.73-12.74,11.35-25.5,22.66-38.17,34.09-8,7.21-15.85,14.61-23.77,21.92-2.79,2.38-5.58,4.75-8.36,7.13-4.64,3.98-6.9,9.1-6.83,15.49.09,7.66,0,15.31,0,22.97-.01,54.45-.03,108.89-.03,163.34,0,10.29,2.9,13.31,12.61,13.31,37.65,0,75.29,0,112.94,0,28.33,0,56.67-.07,85,.06.97,0,1.76-.08,2.4-.28h105.08c.65.2,1.45.29,2.42.28,14.24-.15,28.48-.05,42.72-.07,8.12-.01,11.57-3.7,11.56-12.35-.04-36.6-.11-73.2-.16-109.79ZM342.81,637.35c-15.05-.13-27.38-12.6-27.38-27.68,0-15.31,12.62-27.8,27.96-27.67,15.06.13,27.38,12.58,27.39,27.66,0,15.3-12.64,27.82-27.96,27.68ZM412.55,545.19c-2.56,7.47-8.21,11.43-15.94,12.19-6.63.65-11.62-2.73-16.36-7.02-17.3-15.68-41.42-18.92-62.11-8.54-5.01,2.51-9.4,5.89-13.55,9.65-8.88,8.06-19.78,8.01-27.18.07-7.24-7.77-6.45-19.02,2.11-27.12,17.82-16.86,39.14-25.1,63.69-25.54,25,.49,46.73,9.12,64.72,26.75,5.6,5.49,7.13,12.19,4.61,19.55ZM454.13,506.21c-7.6,7.77-18.64,7.33-27.59-1.12-47.97-45.24-118.41-45.27-166.85.07-5.8,5.43-12.09,8.09-19.86,5.73-7.05-2.14-11.31-7.11-12.68-14.28-1.34-7.01,1.37-12.65,6.36-17.57,28.85-28.45,68.52-44.66,116.13-44.65,35.41.58,71.81,14.88,102.24,43.9,9.29,8.85,10.1,19.92,2.27,27.92Z"/>
</svg>