<?xml version="1.0" encoding="UTF-8"?>
<svg id="Ebene_1" xmlns="http://www.w3.org/2000/svg" viewBox="0 0 800 800">
  <defs>
    <style>
      .cls-1 {
        fill: #3d4f69;
      }

      .cls-2 {
        fill: #f9a728;
      }
    </style>
  </defs>
  <path class="cls-1" d="M654.37,312.41H145.88c-5.26,0-8.77,3.51-8.77,8.77v268.27c0,40.33,33.32,73.64,75.4,73.64h375.23c42.08,0,75.4-33.32,75.4-73.64v-268.27c0-5.26-3.51-8.77-8.77-8.77ZM615.4,569.04c0,20.4-16.54,36.93-36.93,36.93H221.79c-20.4,0-36.93-16.54-36.93-36.93v-210.19h430.54v210.19Z"/>
  <path class="cls-1" d="M251.09,242.27c5.26,0,8.77-3.51,8.77-8.77v-87.67c0-5.26-3.51-8.77-8.77-8.77s-8.77,3.51-8.77,8.77v87.67c0,5.26,3.51,8.77,8.77,8.77Z"/>
  <path class="cls-1" d="M549.17,242.27c5.26,0,8.77-3.51,8.77-8.77v-87.67c0-5.26-3.51-8.77-8.77-8.77s-8.77,3.51-8.77,8.77v87.67c0,5.26,3.51,8.77,8.77,8.77Z"/>
  <path class="cls-1" d="M145.88,294.87h508.49c5.26,0,8.77-3.51,8.77-8.77v-22.79c0-40.33-33.32-73.64-75.4-73.64h-12.27v43.84c0,14.03-12.27,26.3-26.3,26.3s-26.3-12.27-26.3-26.3v-43.84h-245.48v43.84c0,14.03-12.27,26.3-26.3,26.3s-26.3-12.27-26.3-26.3v-43.84h-12.27c-42.08,0-75.4,33.32-75.4,73.64v22.79c0,5.26,3.51,8.77,8.77,8.77Z"/>
  <rect class="cls-1" x="209" y="382" width="68" height="68" rx="14.8" ry="14.8"/>
  <rect class="cls-1" x="306" y="382" width="68" height="68" rx="14.8" ry="14.8"/>
  <rect class="cls-1" x="403" y="382" width="68" height="68" rx="14.8" ry="14.8"/>
  <rect class="cls-1" x="499" y="382" width="68" height="68" rx="14.8" ry="14.8"/>
  <rect class="cls-1" x="209" y="469" width="68" height="68" rx="14.8" ry="14.8"/>
  <rect class="cls-1" x="306" y="469" width="68" height="68" rx="14.8" ry="14.8"/>
  <rect class="cls-1" x="403" y="469" width="68" height="68" rx="14.8" ry="14.8"/>
  <rect class="cls-1" x="499" y="469" width="68" height="68" rx="14.8" ry="14.8"/>
  <path class="cls-2" d="M596.21,691.08c-7.54,0-14.8-3.04-20.1-8.47l-97.34-99.78c-10.83-11.1-10.61-28.88.49-39.7,11.1-10.83,28.88-10.61,39.7.49l74.77,76.64,140.04-181.41c9.48-12.27,27.11-14.54,39.38-5.07,12.27,9.48,14.54,27.11,5.07,39.38l-159.79,207c-4.97,6.44-12.48,10.4-20.6,10.87-.54.03-1.08.05-1.62.05Z"/>
</svg>