<?xml version="1.0" encoding="UTF-8"?>
<svg id="Ebene_1" xmlns="http://www.w3.org/2000/svg" viewBox="0 0 800 800">
  <defs>
    <style>
      .cls-1 {
        fill: #fca414;
      }

      .cls-2 {
        fill: #3c5670;
      }
    </style>
  </defs>
  <path class="cls-1" d="M499.79,491.76c-2.01-2.21-3.77-2.59-6.18-.4-3.4,3.1-7.22,5.7-11.41,7.64-18.13,8.37-42.42,4.25-50.01-18.47,12.27,0,24.2-.05,36.13.04,2.35.02,3.75-.58,5.13-2.75,2.5-3.91,1.34-8.04,1.75-12.08.35-3.46-1.23-4.46-4.54-4.42-11.64.15-23.29.06-34.93.06-8.95,0-10.11-1.39-8.59-10.39.07-.42.39-.82.37-1.23-.1-3.2,1.5-3.84,4.51-3.8,13.94.18,27.89.07,41.83.11,2.25,0,4.37.04,5.12-2.73,1.08-4,2.3-7.97,3.33-11.99.85-3.3-.3-4.58-3.95-4.53-13.08.2-26.16.1-39.24.06-1.46,0-3.04.37-4.49-.5.69-1.53,1.18-2.86,1.86-4.09,5.31-9.51,13.41-15.46,24.12-16.84,13.15-1.7,24.66,2.21,33.7,12.32,2.31,2.58,4.27,2.93,6.31-.45,2.52-4.17,5.28-8.21,8.04-12.22,3.74-5.44,3.79-5.42-1.39-9.43-14.61-11.31-31.34-15.44-49.42-13.45-22.77,2.5-40.54,13.45-49.17,35.11-3.42,8.59-7.68,10.97-15.67,9.55-4.97-.89-7.23,1.81-7.97,6.07-.59,3.36-.69,6.83-.76,10.26-.04,2.1,1.33,2.92,3.44,2.85,3.16-.1,6.33.1,9.48-.03,3.3-.14,4.47.8,3.24,4.28-.64,1.8-.51,4.02-.23,5.97.6,4.12-.81,5.37-5.04,5.18-7.68-.36-9.37,1.32-10.5,9.04-.33,2.26-.22,4.58-.36,6.87-.15,2.44,1.01,3.29,3.38,3.21,3.73-.13,7.5.25,11.2-.13,3.57-.36,4.68,1.03,5.67,4.34,5.82,19.36,18.69,32.17,37.65,38.76,9.99,3.47,20.33,4.11,30.86,2.67,14.5-1.99,27.19-7.61,37.75-17.87,1.67-1.62,1.94-2.89.19-4.67-3.82-3.89-7.54-7.9-11.21-11.93Z"/>
  <path class="cls-2" d="M123.81,395.67c-.05-88.41.23-161.85-.72-235.28-.17-12.86,5.64-21.72,16.17-25.04,2.43-.77,4.93-1.1,7.47-1.1,91.92,0,183.85.02,275.77-.1,4.83,0,8.4,1.59,11.65,4.89,22.21,22.55,44.4,45.13,66.77,67.52,5.89,5.9,11.55,12.09,18.16,17.25,2.13,1.66,2.94,3.89,2.97,6.59.19,22.66.46,45.32.65,67.99.06,6.82-1.83,8.26-8.31,5.96-21.5-7.65-43.58-10.74-66.35-9.25-18.71,1.23-36.7,5.44-53.68,13.36-44.18,20.61-73.49,54.07-86.69,101.27-6.43,23-7.42,46.55-2.52,69.58,12.64,59.51,48.54,99.4,105.72,120.06,8.28,2.99,16.9,4.71,25.66,5.97,16.13,2.34,32.12,1.76,48.15-.77,10.74-1.69,21.01-4.93,31.17-8.67,4.66-1.72,5.3-1.25,5.24,3.59-.02,1.52-.1,3.04,0,4.56,1.07,17.39-11.03,25.91-26.01,25.96-27.1.09-54.19,0-81.29.01-87.49,0-174.99.02-262.48.04-3.67,0-7.36.15-10.94-.81-9.12-2.44-15.16-9.72-16.6-19.56-.74-5.04-.72-10.09-.73-15.15-.08-71.28,1.4-142.56.8-198.88ZM273.83,286.36c0,.39,0,.77,0,1.16,27.97,0,55.94.03,83.91-.02,8.47-.02,14.75-6.88,14.54-15.6-.18-7.17-7.12-13-15.2-12.68-38.19,1.51-76.41,1.84-114.62,2.14-17.34.14-34.68-.15-52.01-.15-7.8,0-12.95,5.36-12.66,12.93.28,7.24,5.81,12.19,14.05,12.21,27.33.06,54.67.02,82,.02ZM274.85,231.64v-.04c28.1,0,56.2-.09,84.3.08,5.73.04,8.95-2.82,11.13-7.46,2.23-4.74,2.43-9.47-.9-13.94-3.1-4.17-7.39-5.28-12.34-5.26-27.97.07-55.95.04-83.92.05-27.09,0-54.17-.01-81.26.06-8.33.02-13.97,5.37-13.86,12.84.12,8.22,5.59,13.67,13.69,13.67,27.72,0,55.44,0,83.16,0ZM239.02,318.06c-13.5,0-30.71.03-47.92-.02-5.08-.01-9.16,1.73-11.7,6.29-5.51,9.91,2.35,20.18,11.9,20.11,34.17-.23,68.33,0,102.5,0,2.13,0,4.31-.23,6.39-.7,7.74-1.75,12.23-9.85,9.66-17.21-2.34-6.68-8.24-9.96-17.41-9.74-16.57.41-33.14.79-53.42,1.27ZM232.43,400.66v-.04c10.89,0,21.77.03,32.66-.02,3.92-.02,7.86.02,11.75-.39,6.15-.65,10.74-5.82,11.09-12.04.37-6.57-3.21-11.55-9.42-13.32-1.99-.57-3.99-.67-6.01-.68-25.06-.11-50.13-.21-75.19-.28-2.78,0-5.57.05-8.33.29-4.2.36-7.7,2.86-9.36,6.17-5.67,11.27,3.7,20.9,12.57,20.48,13.39-.64,26.83-.17,40.25-.17ZM226.41,430.44c0,.06,0,.12,0,.19-11.65,0-23.29.04-34.94-.02-7.68-.04-13.53,5.54-13.67,13.13-.11,6.26,4.87,13.6,13.26,13.44,21.14-.41,42.28-.14,63.43-.22,2.64,0,5.31-.28,7.91-.76,7.11-1.3,11.16-7.19,10.38-14.83-.69-6.77-5.45-10.92-12.58-10.93-11.27-.02-22.53,0-33.8,0ZM421.4,206.49c-.16,6.81-1.18,13.63.19,20.41,1.08,5.34,3.92,7.55,9.24,7.51,8.47-.07,16.94-.17,25.41-.27,3.85-.05,7.75-1.31,11.51-.39,2.5.61,4.44.27,6.77-.5,2.16-.72,1.33-1.54.74-2.58-1.82-3.22-4.31-5.92-6.92-8.5-13.03-12.89-26.07-25.77-39.14-38.62-1.23-1.21-2.42-3.43-4.11-2.94-2.01.59-2.19,3.15-2.66,5.1-.03.12-.04.25-.07.37-1.43,6.75-.25,13.62-.95,20.41Z"/>
  <path class="cls-2" d="M459.14,317.35c57.2.07,108.82,36.44,126,93.92,12.77,42.72,5.89,82.71-20.57,118.97-.67.92-1.38,1.82-2.15,2.66-5.46,5.97-5.74,6.43.71,12.83,2.07,2.05,4.14,4.1,6.18,6.18,2.37,2.41,5.04,2.97,8.53,2.88,6.36-.17,12.32.3,17.62,5.72,25.51,26.06,51.49,51.66,77.34,77.38,8.01,7.97,9.61,15.37,4.85,25.66-5.03,10.84-13.06,18.49-24.8,21.68-5.99,1.63-11.64.79-16.22-3.68-11.49-11.25-22.9-22.58-34.29-33.92-15.16-15.1-30.16-30.38-45.48-45.31-5.8-5.65-8.4-11.79-6.19-19.75.8-2.89.11-5.33-2.26-7.48-3.94-3.57-7.79-7.26-11.35-11.19-2.49-2.75-4.6-2.65-7.54-.8-12.7,7.99-26.3,13.91-40.95,17.38-13.36,3.16-26.97,4.63-40.55,3.35-28.57-2.69-53.86-13.63-75.79-32.26-24.18-20.54-39.23-46.49-44.51-77.6-5.93-34.96-.26-68.03,19.93-97.77,20.2-29.74,48.37-47.94,83.3-55.79,8.88-2,17.95-2.89,28.21-3.06ZM455.4,347.86c-52.69,1.29-105.55,46.29-99.45,113.9,2.32,25.73,13.98,48.27,33.59,65.91,25,22.49,54.99,30.31,87.34,25.28,23.57-3.66,43.97-15.69,59.89-34.26,18.03-21.02,26.69-45.42,25.26-72.92-2.96-56.91-52.74-100.03-106.63-97.92Z"/>
</svg>