<?xml version="1.0" encoding="UTF-8"?>
<svg id="Ebene_1" xmlns="http://www.w3.org/2000/svg" viewBox="0 0 800 800">
  <defs>
    <style>
      .cls-1 {
        fill: #334c61;
      }

      .cls-2 {
        fill: #fea10e;
      }
    </style>
  </defs>
  <path class="cls-2" d="M426.28,424.08c-.97-64.44,44.4-125.28,112.88-136.82,79.63-13.42,146.93,39.89,158.83,109.22,6.94,40.44-1.51,77.58-25.86,110.82-2,2.73-2.61,4.25.15,7.11,20.78,21.58,41.3,43.4,61.95,65.1,9.24,9.71,9.04,23.6-.61,32.21-9.71,8.67-23.77,7.74-32.01-3.11-18.52-24.4-40.34-45.69-61.81-67.35-2.84-2.86-4.66-3.14-8.25-1.05-51.01,29.72-109.89,25.69-155.72-11.33-27.55-22.25-43.4-51.54-48.34-86.72-.93-6.6-.92-13.18-1.2-18.09ZM563.49,320.66c-57.31-.05-102.67,44.32-102.76,100.53-.1,58.86,44.46,104.84,102.52,104.45,57.68-.38,101.91-44.7,102.2-103.14.29-56.86-44.8-101.79-101.97-101.84Z"/>
  <path class="cls-1" d="M116.32,413.78c0-84.37,0-168.74,0-253.11,0-1.65-.03-3.31.03-4.96.34-9.25,5.66-14.77,14.17-14.72,8.6.05,14.94,6.07,14.98,14.9.11,26.47-.02,52.94-.06,79.41-.21,136.75-.44,273.51-.63,410.26-.02,13.02.07,12.88,12.91,12.49,44.29-1.36,88.59-.65,132.88-.73,104.4-.17,208.81-.1,313.21-.12,2.57,0,5.15,0,7.72.06,8.47.2,15.17,6.32,14.7,13.8-.67,10.83-7.12,15.23-15.54,15.26-49.08.16-98.15.53-147.23.73-109.55.44-219.1-.23-328.64,1.13-13.95.17-19.37-5.25-19.37-19.09,0-85.1,0-170.21,0-255.31.29,0,.57,0,.86,0Z"/>
  <path class="cls-1" d="M413.13,448.79c-.93-6.6-.92-13.18-1.2-18.09-.38-25.28,6.37-50.01,18.86-71.42-2.64.03-5.28.06-7.91.12-11.18.26-13.27,2.76-13.28,14.04-.02,37.87,0,75.74,0,113.61h.03c0,36.58,0,73.17,0,109.75,0,3.31-.11,6.63.17,9.92.53,6.12,4.94,10.83,11,10.94,13.6.23,27.35,1.2,40.76-.39,11.7-1.39,14.11-3.84,14.09-15.03-.03-18.85.01-37.69.07-56.54-4.87-3.06-9.63-6.45-14.26-10.18-27.55-22.25-43.4-51.54-48.34-86.72Z"/>
  <path class="cls-1" d="M301.86,493.59c0-35.46,0-70.92,0-106.38,0-2.39-.1-4.8.18-7.16.73-6,4.14-9.37,10.2-9.44,15.43-.17,30.87-.2,46.3-.01,7.25.09,10.59,4.28,10.6,12.47.04,44.46.06,88.92.08,133.39.01,28.85.02,57.69.01,86.54,0,9.38-3.23,12.96-12.52,13.73-13.2,1.1-26.44,1.19-39.65.71-11.96-.43-15.27-4.02-15.28-15.82-.04-36.01-.02-72.02-.02-108.03h.1Z"/>
  <path class="cls-1" d="M571.12,141.75c.35,4.88-2.74,8.26-5.36,11.72-17.07,22.53-34.3,44.94-51.35,67.48-17.71,23.42-35.2,47.01-52.94,70.4-3.2,4.22-6.99,8.04-10.81,11.74-6.15,5.97-9.24,6.14-16.59,1.87-21.07-12.23-42.17-24.39-63.23-36.63-6.3-3.66-12.41-7.63-19.26-10.31-3.2-1.25-5.83-1.64-8.49,1.04-9.82,9.85-20.21,19.2-29.64,29.34-19.24,20.7-37.27,42.51-56.04,63.66-11.34,12.78-23.16,25.13-34.7,37.73-4.59,5.01-10.21,6.52-16.49,4.55-10.68-3.36-13.25-15.44-5.25-23.8,23.51-24.56,47.26-48.88,70.46-73.72,17.55-18.79,34.39-38.25,51.55-57.41,2.7-3.01,5.35-6.06,8.13-8.99,6.94-7.33,11.59-8.72,20.53-3.95,22.67,12.08,45.34,24.19,67.29,37.59,5.99,3.66,12.75,6.09,19.23,8.91,3.18,1.38,4.61-1.26,6.15-3.28,16-21.03,32.18-41.94,47.92-63.16,17.37-23.43,34.34-47.17,51.48-70.77,5.43-7.47,11.39-9.44,20.03-6.64,3.82,1.24,7.33,7.25,7.37,12.64Z"/>
  <path class="cls-1" d="M262.36,535.63c0,23.16,0,46.32-.02,69.48,0,8.82-3.85,12.62-12.77,12.65-12.87.04-25.73.07-38.6-.03-11.78-.09-15.84-4.24-15.85-16.03-.02-44.66-.03-89.33,0-133.99,0-11.77,3.86-15.56,15.38-15.53,12.87.03,25.73-.03,38.6-.01,9.39,0,13.26,3.94,13.27,13.45.01,23.34,0,46.69,0,70.03Z"/>
  <path class="cls-1" d="M604.47,372.2c-.07,3.69-1.78,6.34-3.27,9.06-10.05,18.35-22.33,35.28-33.54,52.89-9.44,14.84-18.84,29.7-28.45,44.42-4.76,7.3-8.47,8.49-14.5,5.48-5.03-2.51-6.53-6.21-3.68-11.21,5.35-9.38,11.05-18.55,16.73-27.74,14.73-23.84,30.05-47.32,45.66-70.6,1.97-2.94,4.5-5.25,7.17-7.32,2.14-1.65,5.14-3.86,7.75-1.82,2.41,1.89,6.9,2.53,6.15,6.83Z"/>
  <path class="cls-1" d="M559.27,390.78c-.27,18.94-13.91,31-34.56,30.57-14.16-.29-26.04-14.42-26.28-30.69-.23-15.36,15.55-31.28,32.55-30.38,15.83.83,28.52,14.02,28.29,30.5ZM539.02,391.03c.05-6.28-3.59-10.33-9.46-10.49-6.33-.18-11.3,4.25-11.38,10.15-.08,5.49,5.38,10.81,11.05,10.76,5.45-.05,9.74-4.62,9.79-10.42Z"/>
  <path class="cls-1" d="M631.13,453.64c-.3,16.92-14.89,31.13-31.72,30.52-15.07-.55-29.69-11.15-28.62-31.35.8-15.11,14.11-28.2,29.58-28,16.63.21,31.02,13.71,30.75,28.84ZM600.34,444.58c-5.07-.07-9.48,4.95-9.48,10.78,0,4.76,5,10.02,9.58,10.08,4.16.06,10.18-5.9,10.3-10.19.16-5.48-4.82-10.59-10.4-10.67Z"/>
</svg>