<?xml version="1.0" encoding="UTF-8"?>
<svg id="Ebene_1" xmlns="http://www.w3.org/2000/svg" viewBox="0 0 800 800">
  <defs>
    <style>
      .cls-1 {
        fill: #3d4f69;
      }

      .cls-2 {
        fill: #f90;
      }
    </style>
  </defs>
  <path class="cls-2" d="M307.77,452.81c.62,1.97,2.45,2.6,4.12,2.7.84.06,1.67.03,2.51.03,9.94,0,19.89-.02,29.83,0,.38,0,.79.03,1.16.08,1.32.17,1.64.73,1.39,2.2-.16.95-.44,1.88-.68,2.8-4.85,17.76-10.1,36.32-14.91,53.9-.23.87-.52,1.71-.75,2.6-.15.61-.24,1.32.04,1.88.29.62.92,1.01,1.54.95.47-.04.88-.36,1.24-.77.48-.54.89-1.18,1.32-1.77,13.98-19.14,28.03-39.29,42.17-58.68,8.08-10.66,16.04-21.47,23.34-32.84.56-1,.95-2.08.72-3.22-.19-.92-.74-1.72-1.49-2.07-.55-.26-1.14-.33-1.75-.37-.68-.03-1.37-.02-2.05-.02-9.94-.02-19.87.01-29.81-.03-.57-.02-1.16-.06-1.7-.21-1.56-.38-1.21-1.95-.89-3.35,2.01-7.13,2.19-8.99,4.27-17.68,1.13-4.58,2.56-10.38,3.71-14.88.92-3.25,1.81-6.54,2.76-9.78.19-.72.42-1.49.22-2.23-.21-.77-.96-1.32-1.67-1.2-.56.08-1.06.56-1.49,1.02-.91,1-1.7,2.13-2.54,3.27-9.86,13.62-30.13,37.59-30.13,37.59l-6.28,7.78s-13.72,15.86-22.34,27.26c-.47.62-.87,1.26-1.29,1.89-.61.91-.96,2.01-.57,3.15h0Z"/>
  <path class="cls-1" d="M476.91,137h-245.02c-32.25,0-58.39,26.14-58.39,58.39v328.87c0,32.25,26.14,58.39,58.39,58.39h245.02c32.25,0,58.39-26.14,58.39-58.39V195.39c0-32.25-26.14-58.39-58.39-58.39ZM444.74,484.2c0,26.56-21.73,48.29-48.29,48.29h-84.11c-26.56,0-48.29-21.73-48.29-48.29v-77.26c0-26.56,21.73-48.29,48.29-48.29h84.11c26.56,0,48.29,21.73,48.29,48.29v77.26ZM444.95,215.04c0,17.33-14.05,31.38-31.38,31.38h-117.92c-17.33,0-31.38-14.05-31.38-31.38v-1.37c0-17.33,14.05-31.38,31.38-31.38h117.92c17.33,0,31.38,14.05,31.38,31.38v1.37Z"/>
  <path class="cls-1" d="M663.79,287.88c0-40.49-32.83-73.32-73.32-73.32h-42.51c-14.75,0-26.71,11.96-26.71,26.71v42.26c0,14.75,11.96,26.71,26.71,26.71h18.3l-.05.31,30.8,25.57c1.66,1.38,2.63,3.43,2.63,5.59v34.71c0,15.21,12.33,27.54,27.54,27.54h29.35c4.02,0,7.27-3.26,7.27-7.27v-105.98h-.18c.12-.93.18-1.87.18-2.83h0Z"/>
  <path class="cls-1" d="M537.37,687.67c-13.59,0-25-3.02-33.79-6.65-31.78-13.09-45.96-40.42-50.58-51.55-11.17-26.91-7.17-51.44-3.78-63.67l37.59,10.39c-2.04,7.39-4.48,22.21,2.21,38.33,2.76,6.65,11.15,22.92,29.42,30.45,15.36,6.33,32.71,4.56,51.56-5.26,24.8-12.92,34.62-37.63,39.89-50.91,8.66-21.81,8.4-37.99,7.71-81.23l-.08-5.26c-.59-37.56-.93-77.01-1-117.27l39-.07c.08,40.08.41,79.35,1,116.73l.08,5.25c.72,44.75,1.08,67.21-10.46,96.25-6.12,15.4-20.44,51.47-58.11,71.1-19.02,9.91-36.09,13.38-50.64,13.38Z"/>
</svg>