<?xml version="1.0" encoding="UTF-8"?>
<svg id="Ebene_1" xmlns="http://www.w3.org/2000/svg" viewBox="0 0 800 800">
  <defs>
    <style>
      .cls-1 {
        fill: #3d4f69;
      }

      .cls-2 {
        fill: #fe9e0e;
      }

      .cls-3 {
        fill: #465a6e;
      }

      .cls-4 {
        fill: #f90;
      }
    </style>
  </defs>
  <path class="cls-3" d="M694.95,327.61c0-49.58.1-99.16-.02-148.74-.06-23.94-15.78-39.61-39.35-39.61-67.1,0-134.2,0-201.29,0v-.25c-103.91.01-207.82.03-311.73-.04-23.23-.01-37.21,20.1-37.18,36.81.24,156.84.12,313.68.17,470.52,0,24.38,16.36,40.44,40.69,40.43,61.88,0,123.76,0,185.64,0v.24c107.39,0,214.78,0,322.18,0,10.77,0,20.53-3.05,28.52-10.43,9.23-8.53,12.43-19.44,12.42-31.79-.08-105.72-.05-211.43-.05-317.15ZM284.53,180.83c8.45-.17,16.49,7.73,16.38,16.09-.1,7.82-9.02,17.18-16.37,17.17-7.24,0-15.56-9.19-15.6-17.21-.04-8.51,7.12-15.88,15.59-16.05ZM229.09,180.85c9.05-.04,16.21,7.01,16.27,16.03.06,7.86-8.92,17.37-16.51,17.18-8.33-.21-15.88-10.32-15.59-17.48.36-8.8,6.98-15.69,15.83-15.73ZM175.5,180.87c8.29.52,14.95,8.07,14.62,16.36-.29,6.99-8.47,16.56-14.52,15.51-10.77.58-17.45-7.21-17.31-16.51.15-9.37,7.75-15.95,17.21-15.36ZM668.42,643.78c0,13.07-2.69,15.72-16.07,15.72-66.02,0-132.03,0-198.05,0v-.27c-102.32,0-204.64,0-306.96,0-13.15,0-15.77-2.74-15.77-16.01.01-127.72.06-255.45-.13-383.17,0-5.51,1.62-6.43,6.66-6.43,64.59.03,129.19.03,193.78.05v.28c110.11,0,220.22-.04,330.33-.1,4.98,0,6.33.99,6.33,6.19-.16,127.92-.12,255.84-.12,383.75Z"/>
  <path class="cls-2" d="M578.06,552.17c-21.65,0-43.31.1-64.96-.09-3.77-.03-4.69.96-4.66,4.7.18,25.15.19,50.31,0,75.46-.03,3.83,1.02,4.81,4.7,4.62,3.77-.2,7.6-.55,11.39.63,8.21,2.54,13.23,10.94,11.28,19.14-.58,2.42-2.25,3.08-4.44,3.08-22.82,0-45.64-.02-68.46,0-3.08,0-4.86-1.51-4.85-4.45.02-10.09,3.9-18.52,16.49-18.54,8.06,0,8.06-.11,8.06-8.04,0-60.47,0-120.94-.01-181.4,0-1-.01-2,.03-3,.31-7.2,4.51-12.72,10.26-13.52,7.41-1.03,13.31,2.68,15,10.56.88,4.11,2.6,4.54,6.18,4.53,42.81-.12,85.62-.07,128.43-.09,3.21,0,6.38-.17,8.29,3.2,1.86,3.27-.17,5.68-1.71,8.22-7.63,12.67-15.16,25.39-22.95,37.96-1.86,3-1.75,5.16.16,8.11,7.91,12.29,15.56,24.74,23.27,37.17,4.23,6.83,1.6,11.69-6.53,11.72-21.65.09-43.31.03-64.96.03v-.02ZM522.52,499.3c0-5.82,0-11.63,0-17.45,0-10.17,0-10.02-10.23-10.01-3.21,0-3.84,1.05-3.81,4,.14,13.29.07,26.59.07,39.88,0,10.47,0,10.35,10.45,10.19,2.87-.04,3.65-.88,3.59-3.67-.18-7.64-.06-15.29-.07-22.93Z"/>
  <path class="cls-4" d="M270.12,425c.51,1.63,2.02,2.15,3.41,2.23.7.05,1.38.02,2.08.03,8.22,0,16.44-.02,24.66,0,.31,0,.65.02.96.07,1.09.14,1.35.6,1.15,1.82-.13.78-.36,1.55-.57,2.31-4.01,14.69-8.35,30.03-12.33,44.56-.19.72-.43,1.42-.62,2.15-.13.5-.19,1.09.03,1.55.24.51.76.84,1.27.78.39-.04.73-.3,1.03-.64.4-.45.74-.98,1.09-1.47,11.56-15.83,23.18-32.48,34.86-48.51,6.68-8.82,13.26-17.75,19.29-27.15.46-.83.79-1.72.59-2.66-.15-.76-.61-1.43-1.23-1.71-.45-.22-.94-.28-1.45-.3-.56-.03-1.13-.02-1.7-.02-8.22-.01-16.43.01-24.64-.03-.47-.02-.96-.05-1.4-.17-1.29-.31-1-1.61-.73-2.77,1.66-5.9,1.81-7.44,3.53-14.61.94-3.79,2.12-8.58,3.06-12.31.76-2.69,1.5-5.41,2.29-8.09.16-.6.35-1.23.19-1.84-.17-.64-.79-1.09-1.38-.99-.46.07-.88.46-1.23.84-.75.82-1.41,1.76-2.1,2.7-8.15,11.26-24.91,31.08-24.91,31.08l-5.2,6.43s-11.34,13.11-18.47,22.54c-.39.52-.72,1.04-1.06,1.57-.51.75-.79,1.66-.47,2.61h0Z"/>
  <path class="cls-1" d="M438.36,390.4c-6.59-.45-13.18-1.08-19.76-1.64-2.89-.25-4.46-1.88-5.49-4.57-2.01-5.25-3.93-10.6-6.62-15.52-1.94-3.56-1.19-5.98,1.13-8.66,4.23-4.9,8.49-9.8,12.55-14.84,4.39-5.45,4.14-10.59-.69-15.46-7.33-7.39-14.72-14.72-22.18-21.97-5.67-5.5-11.22-5.54-17.17-.35-4.88,4.26-9.75,8.54-14.62,12.81-1.92,1.69-3.99,2.11-6.32.86-5.59-2.99-11.57-5.05-17.58-6.93-3.29-1.03-4.41-3.03-4.64-6.14-.49-6.59-1.06-13.18-1.66-19.76-.53-5.89-4.04-10.3-8.82-10.47-11.61-.42-23.23-1.06-34.84-.16-6.23.48-9.17,3.35-9.95,9.53-.9,7.09-1.71,14.18-2.48,21.28-.25,2.31-.94,4.13-3.41,4.92-6.28,2.01-12.3,4.67-18.08,7.83-2.36,1.29-4.25.96-6.19-.8-4.59-4.18-9.26-8.26-13.9-12.38-6.56-5.82-12.25-5.81-18.47.27-7.15,6.99-14.19,14.1-21.2,21.23-4.99,5.07-5.28,10.24-.88,15.86,4.24,5.42,8.61,10.73,12.97,16.05,1.54,1.87,1.81,3.67.61,5.88-2.83,5.19-4.94,10.71-6.76,16.32-1.22,3.75-3.57,5.21-7.52,5.33-6.19.19-12.38.81-18.55,1.46-6.07.65-9.88,4.02-10.08,10.08-.39,11.61-.41,23.25-.02,34.86.23,6.69,4.21,9.9,11.03,10.45,6.18.5,12.35,1.13,18.54,1.61,3.49.27,5.63,1.8,6.58,5.34,1.43,5.32,3.48,10.46,6.24,15.23,1.53,2.64,1.26,4.64-.66,6.89-4.63,5.45-9.14,11-13.64,16.56-3.76,4.65-3.96,9.99-.08,13.88,7.93,7.93,16.06,15.65,24.16,23.41,2.21,2.12,4.86,3.37,8.46,3.28,3.87.19,6.78-2.54,9.78-5.05,4.45-3.73,8.85-7.51,13.3-11.22,1.64-1.36,3.43-2.04,5.55-.9,5.93,3.18,12.31,5.27,18.63,7.46,2.6.9,3.47,2.53,3.65,5.1.46,6.59,1.06,13.17,1.71,19.75.77,7.83,4.54,11.21,12.45,11.3,4.46.05,8.92.12,13.38.01,6.47-.15,12.98.55,19.42-.52,4.72-.79,7.83-3.45,8.49-8.38,1.05-7.88,2.1-15.76,2.94-23.66.24-2.28,1.3-3.28,3.3-3.93,5.99-1.94,11.95-3.97,17.66-6.66,2.33-1.1,4.25-.91,6.29.82,5.46,4.61,10.96,9.2,16.65,13.53,4.81,3.66,10.38,3.22,14.71-.9,7.54-7.17,15.04-14.38,22.44-21.69,5.59-5.52,5.67-10.85.65-16.71-4.21-4.92-8.28-9.97-12.52-14.86-1.97-2.27-2.47-4.3-1-7.22,2.46-4.9,4.69-9.97,6.4-15.17,1.32-4.02,3.81-5.44,7.67-5.72,6.19-.46,12.36-1.05,18.54-1.66,5.94-.59,10.33-4.32,10.41-9.41.18-11.89.2-23.79-.02-35.68-.11-5.74-4.74-9.79-10.48-10.17ZM306.83,491.93c-40.06-.51-73.73-34.01-73.52-73.98.21-40.5,33.81-73.52,74.76-73.48,41.17.04,74.35,32.98,74.26,73.73.88,38.47-32.42,74.28-75.5,73.73Z"/>
</svg>